spectral-mediumitalic.ufo
<glyph name="exclam" format="2">
  <advance width="245.82142857142856"/>
  <unicode hex="0021"/>
  <outline>
    <contour>
      <point x="92.39285714285714" y="205.35714285714286" type="line"/>
      <point x="113.42857142857143" y="205.35714285714286" type="line"/>
      <point x="236.17857142857144" y="660.0" type="line"/>
      <point x="129.5" y="660.0" type="line"/>
    </contour>
    <contour>
      <point x="68.17857142857143" y="-5.0" type="curve" smooth="yes"/>
      <point x="106.96428571428572" y="-5.0"/>
      <point x="132.21428571428572" y="26.892857142857142"/>
      <point x="132.21428571428572" y="63.39285714285714" type="curve" smooth="yes"/>
      <point x="132.21428571428572" y="93.82142857142857"/>
      <point x="116.5" y="115.89285714285714"/>
      <point x="81.71428571428572" y="115.89285714285714" type="curve" smooth="yes"/>
      <point x="43.92857142857143" y="115.89285714285714"/>
      <point x="17.67857142857143" y="83.10714285714286"/>
      <point x="17.67857142857143" y="47.5" type="curve" smooth="yes"/>
      <point x="17.67857142857143" y="17.07142857142857"/>
      <point x="33.392857142857146" y="-5.0"/>
    </contour>
  </outline>
</glyph>
<glyph name="numbersign" format="2">
  <advance width="517.8571428571429"/>
  <unicode hex="0023"/>
  <outline>
    <contour>
      <point x="19.75" y="0.0" type="line"/>
      <point x="67.10714285714286" y="0.0" type="line"/>
      <point x="336.10714285714283" y="660.0" type="line"/>
      <point x="288.75" y="660.0" type="line"/>
    </contour>
    <contour>
      <point x="229.10714285714286" y="0.0" type="line"/>
      <point x="498.10714285714283" y="660.0" type="line"/>
      <point x="450.75" y="660.0" type="line"/>
      <point x="181.75" y="0.0" type="line"/>
    </contour>
    <contour>
      <point x="91.92857142857143" y="407.82142857142856" type="line"/>
      <point x="484.92857142857144" y="407.82142857142856" type="line"/>
      <point x="491.92857142857144" y="450.17857142857144" type="line"/>
      <point x="98.92857142857143" y="450.17857142857144" type="line"/>
    </contour>
    <contour>
      <point x="417.92857142857144" y="207.82142857142858" type="line"/>
      <point x="424.92857142857144" y="250.17857142857142" type="line"/>
      <point x="31.928571428571427" y="250.17857142857142" type="line"/>
      <point x="24.92857142857143" y="207.82142857142858" type="line"/>
    </contour>
  </outline>
</glyph>
<glyph name="dollar" format="2">
  <advance width="517.8571428571429"/>
  <unicode hex="0024"/>
  <outline>
    <contour>
      <point x="217.92857142857142" y="-10.0" type="curve" smooth="yes"/>
      <point x="348.68490980017856" y="-10.0"/>
      <point x="451.9642857142857" y="70.5"/>
      <point x="451.9642857142857" y="195.85714285714286" type="curve" smooth="yes"/>
      <point x="451.9642857142857" y="272.75"/>
      <point x="412.32142857142856" y="320.2857142857143"/>
      <point x="313.14285714285717" y="377.57142857142856" type="curve" smooth="yes"/>
      <point x="225.92972886428572" y="427.92990023196427"/>
      <point x="201.32142857142856" y="456.2857142857143"/>
      <point x="201.32142857142856" y="508.57142857142856" type="curve" smooth="yes"/>
      <point x="201.32142857142856" y="580.1428571428571"/>
      <point x="257.3165024630357" y="625.0357142857143"/>
      <point x="329.5357142857143" y="625.0357142857143" type="curve" smooth="yes"/>
      <point x="401.6032818532143" y="625.0357142857143"/>
      <point x="437.5709870605357" y="596.8404729844643"/>
      <point x="428.42857142857144" y="539.75" type="curve" smooth="yes"/>
      <point x="424.25" y="512.75" type="line"/>
      <point x="428.42857142857144" y="508.75" type="line"/>
      <point x="460.9642857142857" y="508.75" type="line" smooth="yes"/>
      <point x="488.0" y="508.75"/>
      <point x="504.6071428571429" y="523.6428571428571"/>
      <point x="504.6071428571429" y="555.4642857142857" type="curve" smooth="yes"/>
      <point x="504.6071428571429" y="580.4642857142857"/>
      <point x="493.0" y="605.4642857142857"/>
      <point x="469.0" y="627.9285714285714" type="curve" smooth="yes"/>
      <point x="441.62265453714286" y="652.7965974096428"/>
      <point x="405.6957504521429" y="670.0"/>
      <point x="343.64285714285717" y="670.0" type="curve" smooth="yes"/>
      <point x="228.10714285714286" y="670.0"/>
      <point x="119.32142857142857" y="584.5"/>
      <point x="119.32142857142857" y="474.35714285714283" type="curve" smooth="yes"/>
      <point x="119.32142857142857" y="400.35714285714283"/>
      <point x="154.67857142857142" y="355.07142857142856"/>
      <point x="224.82142857142858" y="315.7857142857143" type="curve" smooth="yes"/>
      <point x="331.15207403875" y="254.7739695705357"/>
      <point x="366.5357142857143" y="223.25"/>
      <point x="366.5357142857143" y="163.64285714285714" type="curve" smooth="yes"/>
      <point x="366.5357142857143" y="92.25"/>
      <point x="317.1442414175" y="33.32142857142857"/>
      <point x="218.28571428571428" y="33.32142857142857" type="curve" smooth="yes"/>
      <point x="155.81972789107144" y="33.32142857142857"/>
      <point x="125.44640723642857" y="76.66059907716071"/>
      <point x="135.53571428571428" y="141.0" type="curve" smooth="yes"/>
      <point x="139.71428571428572" y="168.0" type="line"/>
      <point x="134.71428571428572" y="172.0" type="line"/>
      <point x="102.89285714285714" y="172.0" type="line" smooth="yes"/>
      <point x="75.67857142857143" y="172.0"/>
      <point x="59.357142857142854" y="155.19000730732145"/>
      <point x="59.357142857142854" y="122.17857142857143" type="curve" smooth="yes"/>
      <point x="59.357142857142854" y="95.59523809523215"/>
      <point x="70.53571428571428" y="68.07142857142857"/>
      <point x="91.71428571428572" y="44.07142857142857" type="curve" smooth="yes"/>
      <point x="114.42857142857143" y="18.714285714285715"/>
      <point x="160.07092198589285" y="-10.0"/>
    </contour>
    <contour>
      <point x="148.64285714285714" y="-80.0" type="line"/>
      <point x="186.35714285714286" y="-80.0" type="line"/>
      <point x="323.7857142857143" y="740.0" type="line"/>
      <point x="286.07142857142856" y="740.0" type="line"/>
    </contour>
    <contour>
      <point x="241.53571428571428" y="-80.0" type="line"/>
      <point x="279.25" y="-80.0" type="line"/>
      <point x="416.67857142857144" y="740.0" type="line"/>
      <point x="379.7857142857143" y="740.0" type="line"/>
    </contour>
  </outline>
</glyph>
<glyph name="ampersand" format="2">
  <advance width="745.2142857142857"/>
  <unicode hex="0026"/>
  <outline>
    <contour>
      <point x="571.4642857142857" y="-10.0" type="curve" smooth="yes"/>
      <point x="621.3928571428571" y="-10.0"/>
      <point x="669.3928571428571" y="13.321428571428571"/>
      <point x="701.8214285714286" y="58.714285714285715" type="curve"/>
      <point x="692.2857142857143" y="70.25" type="line"/>
      <point x="690.1071428571429" y="70.25" type="line"/>
      <point x="671.9285714285714" y="54.785714285714285"/>
      <point x="653.5714285714286" y="48.14285714285714"/>
      <point x="630.2142857142857" y="48.14285714285714" type="curve" smooth="yes"/>
      <point x="577.6785714285714" y="48.14285714285714"/>
      <point x="529.0714285714286" y="86.89285714285714"/>
      <point x="477.35714285714283" y="154.92857142857144" type="curve"/>
      <point x="322.32142857142856" y="355.89285714285717" type="line" smooth="yes"/>
      <point x="262.60714285714283" y="433.32142857142856"/>
      <point x="235.10714285714286" y="479.42857142857144"/>
      <point x="235.10714285714286" y="530.6785714285714" type="curve" smooth="yes"/>
      <point x="235.10714285714286" y="594.6785714285714"/>
      <point x="277.75" y="629.0"/>
      <point x="327.67857142857144" y="629.0" type="curve" smooth="yes"/>
      <point x="377.07142857142856" y="629.0"/>
      <point x="406.0357142857143" y="598.4642857142857"/>
      <point x="406.0357142857143" y="551.8928571428571" type="curve" smooth="yes"/>
      <point x="406.0357142857143" y="501.10714285714283"/>
      <point x="377.25" y="444.39285714285717"/>
      <point x="279.2857142857143" y="392.92857142857144" type="curve"/>
      <point x="294.1071428571429" y="373.2142857142857" type="line"/>
      <point x="437.3571428571429" y="434.89285714285717"/>
      <point x="493.7142857142857" y="476.2857142857143"/>
      <point x="493.7142857142857" y="548.3928571428571" type="curve" smooth="yes"/>
      <point x="493.7142857142857" y="618.7142857142857"/>
      <point x="426.10714285714283" y="670.0"/>
      <point x="336.85714285714283" y="670.0" type="curve" smooth="yes"/>
      <point x="228.53571428571428" y="670.0"/>
      <point x="148.89285714285714" y="605.2142857142857"/>
      <point x="148.89285714285714" y="496.07142857142856" type="curve" smooth="yes"/>
      <point x="148.89285714285714" y="427.82142857142856"/>
      <point x="181.21428571428572" y="381.35714285714283"/>
      <point x="230.89285714285714" y="315.7857142857143" type="curve" smooth="yes"/>
      <point x="388.82142857142856" y="107.17857142857143" type="line"/>
      <point x="441.89285714285717" y="37.5"/>
      <point x="490.5" y="-10.0"/>
    </contour>
    <contour>
      <point x="197.35714285714286" y="-10.0" type="curve" smooth="yes"/>
      <point x="367.07142857142856" y="-10.0"/>
      <point x="487.25" y="129.64285714285714"/>
      <point x="618.6785714285714" y="350.0" type="curve"/>
      <point x="584.8571428571429" y="325.0" type="line"/>
      <point x="696.8571428571429" y="372.0" type="line"/>
      <point x="699.8571428571429" y="388.0" type="line"/>
      <point x="471.5357142857143" y="388.0" type="line"/>
      <point x="468.5357142857143" y="372.0" type="line"/>
      <point x="555.3571428571429" y="333.0" type="line"/>
      <point x="465.82142857142856" y="149.25"/>
      <point x="361.2142857142857" y="48.64285714285714"/>
      <point x="245.75" y="48.64285714285714" type="curve" smooth="yes"/>
      <point x="172.64285714285714" y="48.64285714285714"/>
      <point x="125.89285714285714" y="100.44421272158499"/>
      <point x="125.89285714285714" y="172.64285714285714" type="curve" smooth="yes"/>
      <point x="125.89285714285714" y="242.7972972972973"/>
      <point x="158.06323517003003" y="295.6391328694942"/>
      <point x="235.42857142857142" y="342.67857142857144" type="curve"/>
      <point x="217.32142857142858" y="361.5" type="line"/>
      <point x="92.17332249896444" y="298.355877490184"/>
      <point x="29.82142857142857" y="243.0283613445378"/>
      <point x="29.82142857142857" y="139.57142857142856" type="curve" smooth="yes"/>
      <point x="29.82142857142857" y="52.010989010989015"/>
      <point x="94.64285714285714" y="-10.0"/>
    </contour>
  </outline>
</glyph>
<glyph name="parenleft" format="2">
  <advance width="256.25"/>
  <unicode hex="0028"/>
  <outline>
    <contour>
      <point x="157.14285714285714" y="-150.0" type="curve"/>
      <point x="177.14285714285714" y="-150.0" type="line"/>
      <point x="177.14285714285714" y="-147.0" type="line"/>
      <point x="135.96428571428572" y="-48.464285714285715"/>
      <point x="120.32142857142857" y="51.07142857142857"/>
      <point x="120.32142857142857" y="171.78571428571428" type="curve" smooth="yes"/>
      <point x="120.32142857142857" y="382.07142857142856"/>
      <point x="200.32142857142856" y="574.3571428571429"/>
      <point x="325.14285714285717" y="737.0" type="curve"/>
      <point x="325.14285714285717" y="740.0" type="line"/>
      <point x="305.14285714285717" y="740.0" type="line"/>
      <point x="161.35714285714286" y="600.7857142857143"/>
      <point x="60.35714285714286" y="408.14285714285717"/>
      <point x="60.35714285714286" y="198.57142857142858" type="curve" smooth="yes"/>
      <point x="60.35714285714286" y="71.32142857142857"/>
      <point x="93.64285714285714" y="-45.75"/>
    </contour>
  </outline>
</glyph>
<glyph name="parenright" format="2">
  <advance width="256.25"/>
  <unicode hex="0029"/>
  <outline>
    <contour>
      <point x="-66.78571428571429" y="-149.17857142857142" type="line"/>
      <point x="-46.785714285714285" y="-149.17857142857142" type="line"/>
      <point x="97.0" y="-9.964285714285715"/>
      <point x="198.0" y="182.67857142857142"/>
      <point x="198.0" y="392.25" type="curve" smooth="yes"/>
      <point x="198.0" y="519.5"/>
      <point x="164.71428571428572" y="636.5714285714286"/>
      <point x="101.21428571428571" y="740.8214285714286" type="curve"/>
      <point x="81.21428571428571" y="740.8214285714286" type="line"/>
      <point x="81.21428571428571" y="737.8214285714286" type="line"/>
      <point x="122.39285714285714" y="639.2857142857143"/>
      <point x="138.03571428571428" y="539.75"/>
      <point x="138.03571428571428" y="419.0357142857143" type="curve" smooth="yes"/>
      <point x="138.03571428571428" y="208.75"/>
      <point x="58.035714285714285" y="16.464285714285715"/>
      <point x="-66.78571428571429" y="-146.17857142857142" type="curve"/>
    </contour>
  </outline>
</glyph>
<glyph name="asterisk" format="2">
  <advance width="371.35714285714283"/>
  <unicode hex="002A"/>
  <outline>
    <contour>
      <point x="95.92857142857143" y="469.7857142857143" type="line"/>
      <point x="143.32142857142856" y="430.75" type="line"/>
      <point x="227.78571428571428" y="555.4642857142857" type="line"/>
      <point x="270.35714285714283" y="431.10714285714283" type="line"/>
      <point x="330.0" y="469.07142857142856" type="line"/>
      <point x="249.5" y="573.8214285714286" type="line"/>
      <point x="389.75" y="597.6785714285714" type="line"/>
      <point x="379.5" y="660.7857142857143" type="line"/>
      <point x="245.5" y="598.5357142857143" type="line"/>
      <point x="290.17857142857144" y="740.0" type="line"/>
      <point x="227.28571428571428" y="740.0" type="line"/>
      <point x="224.42857142857142" y="598.5357142857143" type="line"/>
      <point x="110.78571428571428" y="660.7857142857143" type="line"/>
      <point x="80.17857142857143" y="597.6785714285714" type="line"/>
      <point x="212.07142857142856" y="573.8214285714286" type="line"/>
    </contour>
  </outline>
</glyph>
<glyph name="plus" format="2">
  <advance width="517.8571428571429"/>
  <unicode hex="002B"/>
  <outline>
    <contour>
      <point x="454.82142857142856" y="248.10714285714286" type="line"/>
      <point x="463.17857142857144" y="295.89285714285717" type="line"/>
      <point x="44.82142857142857" y="295.89285714285717" type="line"/>
      <point x="36.464285714285715" y="248.10714285714286" type="line"/>
    </contour>
    <contour>
      <point x="261.57142857142856" y="482.0" type="line"/>
      <point x="187.57142857142858" y="62.0" type="line"/>
      <point x="238.89285714285714" y="62.0" type="line"/>
      <point x="312.89285714285717" y="482.0" type="line"/>
    </contour>
  </outline>
</glyph>
<glyph name="comma" format="2">
  <advance width="242.39285714285714"/>
  <unicode hex="002C"/>
  <outline>
    <contour>
      <point x="-2.8928571428571432" y="-192.35714285714286" type="line"/>
      <point x="114.14285714285714" y="-135.78571428571428"/>
      <point x="161.42857142857142" y="-68.0"/>
      <point x="161.42857142857142" y="-5.178571428571427" type="curve" smooth="yes"/>
      <point x="161.42857142857142" y="34.714285714285715"/>
      <point x="147.17857142857142" y="67.67857142857143"/>
      <point x="112.92857142857143" y="90.67857142857143" type="curve" smooth="yes"/>
      <point x="103.75" y="96.67857142857143"/>
      <point x="97.75" y="99.67857142857143"/>
      <point x="90.92857142857143" y="99.67857142857143" type="curve" smooth="yes"/>
      <point x="82.57142857142857" y="99.67857142857143"/>
      <point x="76.92857142857143" y="95.32142857142857"/>
      <point x="63.464285714285715" y="78.03571428571428" type="curve" smooth="yes"/>
      <point x="34.107142857142854" y="40.714285714285715" type="line"/>
      <point x="34.464285714285715" y="30.178571428571427" type="line"/>
      <point x="63.285714285714285" y="11.535714285714285" type="line" smooth="yes"/>
      <point x="86.46428571428572" y="-3.4642857142857144"/>
      <point x="97.17857142857143" y="-22.0"/>
      <point x="97.17857142857143" y="-51.357142857142854" type="curve" smooth="yes"/>
      <point x="97.17857142857143" y="-93.42857142857143"/>
      <point x="71.28571428571428" y="-131.64285714285714"/>
      <point x="-2.8928571428571432" y="-171.85714285714286" type="curve"/>
    </contour>
  </outline>
</glyph>
<glyph name="hyphen" format="2">
  <advance width="351.25"/>
  <unicode hex="002D"/>
  <outline>
    <contour>
      <point x="39.107142857142854" y="227.75" type="line"/>
      <point x="301.7857142857143" y="227.75" type="line"/>
      <point x="312.14285714285717" y="286.25" type="line"/>
      <point x="49.464285714285715" y="286.25" type="line"/>
    </contour>
  </outline>
</glyph>
<glyph name="period" format="2">
  <advance width="242.39285714285714"/>
  <unicode hex="002E"/>
  <outline>
    <contour>
      <point x="84.60714285714286" y="-5.0" type="curve" smooth="yes"/>
      <point x="123.39285714285714" y="-5.0"/>
      <point x="148.64285714285714" y="27.785714285714285"/>
      <point x="148.64285714285714" y="63.39285714285714" type="curve" smooth="yes"/>
      <point x="148.64285714285714" y="93.82142857142857"/>
      <point x="132.92857142857142" y="115.89285714285714"/>
      <point x="98.14285714285714" y="115.89285714285714" type="curve" smooth="yes"/>
      <point x="60.357142857142854" y="115.89285714285714"/>
      <point x="34.107142857142854" y="83.10714285714286"/>
      <point x="34.107142857142854" y="47.5" type="curve" smooth="yes"/>
      <point x="34.107142857142854" y="17.07142857142857"/>
      <point x="49.82142857142857" y="-5.0"/>
    </contour>
  </outline>
</glyph>
<glyph name="one" format="2">
  <advance width="517.8571428571429"/>
  <unicode hex="0031"/>
  <outline>
    <contour>
      <point x="84.5" y="0.0" type="line"/>
      <point x="345.8928571428571" y="0.0" type="line"/>
      <point x="348.8928571428571" y="16.0" type="line"/>
      <point x="276.3928571428571" y="56.35714285714286" type="line"/>
      <point x="382.85714285714283" y="660.0" type="line"/>
      <point x="348.75" y="660.0" type="line"/>
      <point x="109.39285714285714" y="510.0" type="line"/>
      <point x="102.21428571428571" y="473.0357142857143" type="line"/>
      <point x="269.14285714285717" y="555.7142857142857" type="line"/>
      <point x="181.03571428571428" y="56.35714285714286" type="line"/>
      <point x="88.32142857142857" y="16.0" type="line"/>
    </contour>
  </outline>
</glyph>
<glyph name="two" format="2">
  <advance width="517.8571428571429"/>
  <unicode hex="0032"/>
  <outline>
    <contour>
      <point x="3.285714285714286" y="0.0" type="line"/>
      <point x="395.7857142857143" y="0.0" type="line"/>
      <point x="437.67857142857144" y="188.64285714285714" type="line"/>
      <point x="421.67857142857144" y="188.64285714285714" type="line"/>
      <point x="355.4642857142857" y="83.53571428571428" type="line"/>
      <point x="93.67857142857143" y="83.53571428571428" type="line"/>
      <point x="90.92857142857142" y="55.17857142857143" type="line"/>
      <point x="414.57142857142856" y="345.14285714285717"/>
      <point x="479.10714285714283" y="415.92857142857144"/>
      <point x="479.10714285714283" y="523.1785714285714" type="curve" smooth="yes"/>
      <point x="479.10714285714283" y="607.7857142857143"/>
      <point x="413.42857142857144" y="670.0"/>
      <point x="324.75" y="670.0" type="curve" smooth="yes"/>
      <point x="246.0" y="670.0"/>
      <point x="209.64285714285714" y="644.4642857142857"/>
      <point x="155.96428571428572" y="608.5357142857143" type="curve" smooth="yes"/>
      <point x="106.92857142857143" y="575.8571428571429"/>
      <point x="90.42857142857143" y="535.6785714285714"/>
      <point x="84.07142857142857" y="499.42857142857144" type="curve" smooth="yes"/>
      <point x="77.42857142857143" y="462.42857142857144"/>
      <point x="90.89285714285714" y="464.0"/>
      <point x="115.71428571428571" y="464.0" type="curve" smooth="yes"/>
      <point x="158.14285714285714" y="464.0" type="line"/>
      <point x="167.67857142857142" y="474.5357142857143" type="line"/>
      <point x="173.85714285714286" y="510.67857142857144" type="line" smooth="yes"/>
      <point x="186.5" y="583.5"/>
      <point x="218.78571428571428" y="621.5714285714286"/>
      <point x="281.92857142857144" y="621.5714285714286" type="curve" smooth="yes"/>
      <point x="333.75" y="621.5714285714286"/>
      <point x="379.0357142857143" y="582.4642857142857"/>
      <point x="379.0357142857143" y="519.75" type="curve" smooth="yes"/>
      <point x="379.0357142857143" y="417.9642857142857"/>
      <point x="345.0" y="358.35714285714283"/>
      <point x="9.0" y="28.571428571428573" type="curve"/>
    </contour>
  </outline>
</glyph>
<glyph name="three" format="2">
  <advance width="517.8571428571429"/>
  <unicode hex="0033"/>
  <outline>
    <contour>
      <point x="194.92857142857142" y="-10.0" type="curve" smooth="yes"/>
      <point x="329.10714285714283" y="-10.0"/>
      <point x="442.82142857142856" y="97.89285714285714"/>
      <point x="442.82142857142856" y="199.32142857142858" type="curve" smooth="yes"/>
      <point x="442.82142857142856" y="298.42857142857144"/>
      <point x="361.2857142857143" y="363.0"/>
      <point x="229.75" y="363.0" type="curve"/>
      <point x="220.89285714285714" y="349.42857142857144" type="line"/>
      <point x="223.07142857142856" y="349.42857142857144"/>
      <point x="225.07142857142856" y="349.42857142857144"/>
      <point x="227.25" y="349.42857142857144" type="curve" smooth="yes"/>
      <point x="361.82142857142856" y="349.42857142857144"/>
      <point x="467.1071428571429" y="439.0"/>
      <point x="467.1071428571429" y="527.7857142857143" type="curve" smooth="yes"/>
      <point x="467.1071428571429" y="602.5"/>
      <point x="403.60714285714283" y="670.0"/>
      <point x="303.5" y="670.0" type="curve" smooth="yes"/>
      <point x="244.64285714285714" y="670.0"/>
      <point x="203.39285714285714" y="653.9285714285714"/>
      <point x="162.25" y="627.5357142857143" type="curve" smooth="yes"/>
      <point x="109.75" y="595.1785714285714"/>
      <point x="85.57142857142857" y="551.6785714285714"/>
      <point x="85.57142857142857" y="519.3571428571429" type="curve" smooth="yes"/>
      <point x="85.57142857142857" y="499.64285714285717"/>
      <point x="96.57142857142857" y="496.4642857142857"/>
      <point x="117.39285714285714" y="496.4642857142857" type="curve" smooth="yes"/>
      <point x="163.10714285714286" y="496.4642857142857" type="line"/>
      <point x="172.64285714285714" y="505.35714285714283" type="line"/>
      <point x="178.82142857142856" y="545.6071428571429" type="line" smooth="yes"/>
      <point x="187.82142857142856" y="603.9642857142857"/>
      <point x="228.78571428571428" y="630.8571428571429"/>
      <point x="282.0" y="630.8571428571429" type="curve" smooth="yes"/>
      <point x="335.42857142857144" y="630.8571428571429"/>
      <point x="367.5" y="588.7857142857143"/>
      <point x="367.5" y="531.0357142857143" type="curve" smooth="yes"/>
      <point x="367.5" y="442.2857142857143"/>
      <point x="295.85714285714283" y="364.35714285714283"/>
      <point x="185.14285714285714" y="364.35714285714283" type="curve" smooth="yes"/>
      <point x="155.32142857142858" y="364.35714285714283" type="line"/>
      <point x="146.5" y="319.2857142857143" type="line"/>
      <point x="206.96428571428572" y="319.2857142857143" type="line" smooth="yes"/>
      <point x="290.32142857142856" y="319.2857142857143"/>
      <point x="342.0357142857143" y="269.7857142857143"/>
      <point x="342.0357142857143" y="193.64285714285714" type="curve" smooth="yes"/>
      <point x="342.0357142857143" y="100.0"/>
      <point x="279.7857142857143" y="29.142857142857142"/>
      <point x="193.35714285714286" y="29.142857142857142" type="curve" smooth="yes"/>
      <point x="117.78571428571428" y="29.142857142857142"/>
      <point x="91.35714285714286" y="59.17857142857143"/>
      <point x="99.07142857142857" y="105.75" type="curve" smooth="yes"/>
      <point x="104.25" y="139.28571428571428" type="line"/>
      <point x="98.71428571428572" y="147.35714285714286" type="line"/>
      <point x="43.142857142857146" y="147.35714285714286" type="line" smooth="yes"/>
      <point x="22.535714285714285" y="147.35714285714286"/>
      <point x="9.0" y="135.35714285714286"/>
      <point x="9.0" y="98.75" type="curve" smooth="yes"/>
      <point x="9.0" y="76.07142857142857"/>
      <point x="18.785714285714285" y="57.92857142857143"/>
      <point x="41.5" y="37.75" type="curve" smooth="yes"/>
      <point x="70.03571428571429" y="11.75"/>
      <point x="119.67857142857143" y="-10.0"/>
    </contour>
  </outline>
</glyph>
<glyph name="four" format="2">
  <advance width="517.8571428571429"/>
  <unicode hex="0034"/>
  <outline>
    <contour>
      <point x="221.14285714285714" y="0.0" type="line"/>
      <point x="316.85714285714283" y="0.0" type="line"/>
      <point x="433.32142857142856" y="660.0" type="line"/>
      <point x="401.0" y="660.0" type="line"/>
      <point x="-0.17857142857142838" y="211.03571428571428" type="line"/>
      <point x="-4.071428571428571" y="187.64285714285714" type="line"/>
      <point x="462.7142857142857" y="187.64285714285714" type="line"/>
      <point x="473.42857142857144" y="252.46428571428572" type="line"/>
      <point x="43.285714285714285" y="252.46428571428572" type="line"/>
      <point x="61.82142857142857" y="215.03571428571428" type="line"/>
      <point x="373.42857142857144" y="571.8928571428571" type="line"/>
      <point x="320.89285714285717" y="564.75" type="line"/>
    </contour>
  </outline>
</glyph>
<glyph name="five" format="2">
  <advance width="517.8571428571429"/>
  <unicode hex="0035"/>
  <outline>
    <contour>
      <point x="165.85714285714286" y="-10.0" type="curve" smooth="yes"/>
      <point x="326.67857142857144" y="-10.0"/>
      <point x="437.10714285714283" y="117.42857142857143"/>
      <point x="437.10714285714283" y="246.39285714285714" type="curve" smooth="yes"/>
      <point x="437.10714285714283" y="353.60714285714283"/>
      <point x="368.35714285714283" y="430.89285714285717"/>
      <point x="219.64285714285714" y="430.89285714285717" type="curve" smooth="yes"/>
      <point x="194.92857142857142" y="430.89285714285717"/>
      <point x="173.14285714285714" y="429.5357142857143"/>
      <point x="149.14285714285714" y="427.5357142857143" type="curve"/>
      <point x="148.28571428571428" y="402.0" type="line"/>
      <point x="187.82142857142858" y="626.0" type="line"/>
      <point x="165.85714285714286" y="575.8571428571429" type="line"/>
      <point x="447.35714285714283" y="575.8571428571429" type="line"/>
      <point x="462.9642857142857" y="660.0" type="line"/>
      <point x="150.14285714285714" y="660.0" type="line"/>
      <point x="91.75" y="332.67857142857144" type="line"/>
      <point x="127.39285714285714" y="338.5"/>
      <point x="156.78571428571428" y="341.67857142857144"/>
      <point x="184.03571428571428" y="341.67857142857144" type="curve" smooth="yes"/>
      <point x="299.35714285714283" y="341.67857142857144"/>
      <point x="351.35714285714283" y="286.0932539682143"/>
      <point x="351.35714285714283" y="204.0" type="curve" smooth="yes"/>
      <point x="351.35714285714283" y="96.83841158841072"/>
      <point x="282.05941255" y="38.92857142857143"/>
      <point x="199.14285714285714" y="38.92857142857143" type="curve" smooth="yes"/>
      <point x="145.54692691035714" y="38.92857142857143"/>
      <point x="118.25144675714286" y="61.138516871214286"/>
      <point x="106.60714285714286" y="93.60714285714286" type="curve" smooth="yes"/>
      <point x="97.60714285714286" y="117.32142857142857" type="line"/>
      <point x="87.35714285714286" y="117.32142857142857" type="line"/>
      <point x="43.464285714285715" y="86.57142857142857" type="line" smooth="yes"/>
      <point x="28.642857142857142" y="76.75"/>
      <point x="22.107142857142858" y="66.10714285714286"/>
      <point x="21.92857142857143" y="55.464285714285715" type="curve" smooth="yes"/>
      <point x="21.214478580785716" y="22.108830438982142"/>
      <point x="67.03571428571429" y="-10.0"/>
    </contour>
  </outline>
</glyph>
<glyph name="six" format="2">
  <advance width="517.8571428571429"/>
  <unicode hex="0036"/>
  <outline>
    <contour>
      <point x="216.92857142857142" y="-10.0" type="curve" smooth="yes"/>
      <point x="336.32142857142856" y="-10.0"/>
      <point x="454.85714285714283" y="84.28571428571429"/>
      <point x="454.85714285714283" y="230.82142857142858" type="curve" smooth="yes"/>
      <point x="454.85714285714283" y="323.7142857142857"/>
      <point x="407.0357142857143" y="389.7857142857143"/>
      <point x="309.7857142857143" y="389.7857142857143" type="curve" smooth="yes"/>
      <point x="221.10714285714286" y="389.7857142857143"/>
      <point x="148.60714285714286" y="325.2857142857143"/>
      <point x="109.96428571428572" y="234.21428571428572" type="curve"/>
      <point x="113.60714285714286" y="200.39285714285714" type="line"/>
      <point x="139.14285714285714" y="275.5"/>
      <point x="208.28571428571428" y="324.75"/>
      <point x="274.57142857142856" y="324.75" type="curve" smooth="yes"/>
      <point x="331.75" y="324.75"/>
      <point x="360.42857142857144" y="287.35714285714283"/>
      <point x="360.42857142857144" y="211.28571428571428" type="curve" smooth="yes"/>
      <point x="360.42857142857144" y="103.5"/>
      <point x="299.85714285714283" y="32.607142857142854"/>
      <point x="225.5" y="32.607142857142854" type="curve" smooth="yes"/>
      <point x="169.14285714285714" y="32.607142857142854"/>
      <point x="131.42857142857144" y="75.64285714285714"/>
      <point x="131.42857142857144" y="173.85714285714286" type="curve" smooth="yes"/>
      <point x="131.42857142857144" y="361.7142857142857"/>
      <point x="229.78571428571428" y="560.2142857142857"/>
      <point x="478.4642857142857" y="641.6785714285714" type="curve"/>
      <point x="484.64285714285717" y="670.0" type="line"/>
      <point x="187.92857142857142" y="593.4285714285714"/>
      <point x="32.07142857142857" y="391.82142857142856"/>
      <point x="32.07142857142857" y="190.03571428571428" type="curve" smooth="yes"/>
      <point x="32.07142857142857" y="72.75"/>
      <point x="93.42857142857143" y="-10.0"/>
    </contour>
  </outline>
</glyph>
<glyph name="seven" format="2">
  <advance width="517.8571428571429"/>
  <unicode hex="0037"/>
  <outline>
    <contour>
      <point x="61.07142857142857" y="0.0" type="curve"/>
      <point x="169.57142857142856" y="0.0" type="line"/>
      <point x="274.7857142857143" y="298.4642857142857"/>
      <point x="392.64285714285717" y="456.67857142857144"/>
      <point x="514.4642857142857" y="634.6428571428571" type="curve"/>
      <point x="518.5357142857143" y="660.0" type="line"/>
      <point x="107.03571428571429" y="660.0" type="line"/>
      <point x="89.89285714285714" y="568.1785714285714" type="line"/>
      <point x="454.14285714285717" y="568.1785714285714" type="line"/>
      <point x="465.92857142857144" y="626.0" type="line"/>
      <point x="203.85714285714286" y="262.9642857142857"/>
      <point x="156.85714285714286" y="165.17857142857142"/>
    </contour>
  </outline>
</glyph>
<glyph name="eight" format="2">
  <advance width="517.8571428571429"/>
  <unicode hex="0038"/>
  <outline>
    <contour>
      <point x="209.32142857142858" y="-10.0" type="curve" smooth="yes"/>
      <point x="338.45114942535713" y="-10.0"/>
      <point x="438.64285714285717" y="76.57142857142857"/>
      <point x="438.64285714285717" y="177.07142857142858" type="curve" smooth="yes"/>
      <point x="438.64285714285717" y="246.25"/>
      <point x="411.1709587548214" y="301.02288573053573"/>
      <point x="296.25" y="374.10714285714283" type="curve" smooth="yes"/>
      <point x="210.85498990374998" y="429.00833655214285"/>
      <point x="193.89285714285714" y="471.759920635"/>
      <point x="193.89285714285714" y="519.4285714285714" type="curve" smooth="yes"/>
      <point x="193.89285714285714" y="579.5238095237501"/>
      <point x="228.28571428571428" y="627.2857142857143"/>
      <point x="298.60714285714283" y="627.2857142857143" type="curve" smooth="yes"/>
      <point x="359.5" y="627.2857142857143"/>
      <point x="394.60714285714283" y="590.8928571428571"/>
      <point x="394.60714285714283" y="522.1071428571429" type="curve" smooth="yes"/>
      <point x="394.60714285714283" y="453.5357142857143"/>
      <point x="365.43352579642857" y="420.46043094285716"/>
      <point x="274.60714285714283" y="369.25" type="curve"/>
      <point x="291.0357142857143" y="339.25" type="line"/>
      <point x="425.4642857142857" y="400.92857142857144"/>
      <point x="479.85714285714283" y="456.14285714285717"/>
      <point x="479.85714285714283" y="524.2857142857143" type="curve" smooth="yes"/>
      <point x="479.85714285714283" y="605.7142857142857"/>
      <point x="411.7857142857143" y="670.0"/>
      <point x="313.14285714285717" y="670.0" type="curve" smooth="yes"/>
      <point x="196.5" y="670.0"/>
      <point x="98.96428571428572" y="584.5480976310714"/>
      <point x="98.96428571428572" y="482.89285714285717" type="curve" smooth="yes"/>
      <point x="98.96428571428572" y="417.66041500392856"/>
      <point x="129.29546876642857" y="374.668058025"/>
      <point x="219.64285714285714" y="314.17857142857144" type="curve" smooth="yes"/>
      <point x="307.2037130558929" y="256.8860721971429"/>
      <point x="347.64285714285717" y="221.94272648089287"/>
      <point x="347.64285714285717" y="152.71428571428572" type="curve" smooth="yes"/>
      <point x="347.64285714285717" y="81.19681677017857"/>
      <point x="300.8434650455357" y="31.892857142857142"/>
      <point x="222.71428571428572" y="31.892857142857142" type="curve" smooth="yes"/>
      <point x="150.28571428571428" y="31.892857142857142"/>
      <point x="108.0" y="73.35231660232142"/>
      <point x="108.0" y="147.21428571428572" type="curve" smooth="yes"/>
      <point x="108.0" y="217.15109890107144"/>
      <point x="129.6202740619643" y="249.8576136342857"/>
      <point x="227.42857142857142" y="316.14285714285717" type="curve"/>
      <point x="210.28571428571428" y="341.64285714285717" type="line"/>
      <point x="88.36835084571429" y="281.0447007216071"/>
      <point x="19.5" y="219.6932576769643"/>
      <point x="19.5" y="134.07142857142858" type="curve" smooth="yes"/>
      <point x="19.5" y="46.173319327732145"/>
      <point x="102.47530040053572" y="-10.0"/>
    </contour>
  </outline>
</glyph>
<glyph name="nine" format="2">
  <advance width="517.8571428571429"/>
  <unicode hex="0039"/>
  <outline>
    <contour>
      <point x="33.32142857142857" y="-10.0" type="line"/>
      <point x="329.32142857142856" y="66.92857142857143"/>
      <point x="485.89285714285717" y="268.17857142857144"/>
      <point x="485.89285714285717" y="469.9642857142857" type="curve" smooth="yes"/>
      <point x="485.89285714285717" y="587.25"/>
      <point x="424.5357142857143" y="670.0"/>
      <point x="301.0357142857143" y="670.0" type="curve" smooth="yes"/>
      <point x="181.64285714285714" y="670.0"/>
      <point x="63.10714285714286" y="575.7142857142857"/>
      <point x="63.10714285714286" y="429.17857142857144" type="curve" smooth="yes"/>
      <point x="63.10714285714286" y="336.2857142857143"/>
      <point x="110.92857142857143" y="270.2142857142857"/>
      <point x="208.17857142857144" y="270.2142857142857" type="curve" smooth="yes"/>
      <point x="296.85714285714283" y="270.2142857142857"/>
      <point x="369.35714285714283" y="334.7142857142857"/>
      <point x="408.0" y="425.7857142857143" type="curve"/>
      <point x="404.35714285714283" y="459.60714285714283" type="line"/>
      <point x="378.82142857142856" y="384.5"/>
      <point x="309.67857142857144" y="335.25"/>
      <point x="243.39285714285714" y="335.25" type="curve" smooth="yes"/>
      <point x="186.21428571428572" y="335.25"/>
      <point x="157.53571428571428" y="372.64285714285717"/>
      <point x="157.53571428571428" y="448.7142857142857" type="curve" smooth="yes"/>
      <point x="157.53571428571428" y="556.5"/>
      <point x="218.10714285714286" y="627.3928571428571"/>
      <point x="292.4642857142857" y="627.3928571428571" type="curve" smooth="yes"/>
      <point x="348.82142857142856" y="627.3928571428571"/>
      <point x="386.5357142857143" y="584.3571428571429"/>
      <point x="386.5357142857143" y="486.14285714285717" type="curve" smooth="yes"/>
      <point x="386.5357142857143" y="298.2857142857143"/>
      <point x="288.17857142857144" y="99.78571428571429"/>
      <point x="39.5" y="18.32142857142857" type="curve"/>
    </contour>
  </outline>
</glyph>
<glyph name="less" format="2">
  <advance width="517.8571428571429"/>
  <unicode hex="003C"/>
  <outline>
    <contour>
      <point x="423.07142857142856" y="62.0" type="line"/>
      <point x="431.60714285714283" y="111.32142857142857" type="line"/>
      <point x="71.96428571428572" y="283.32142857142856" type="line"/>
      <point x="66.89285714285714" y="255.5" type="line"/>
      <point x="486.89285714285717" y="427.5" type="line"/>
      <point x="496.25" y="482.0" type="line"/>
      <point x="44.25" y="297.0" type="line"/>
      <point x="36.25" y="247.0" type="line"/>
    </contour>
  </outline>
</glyph>
<glyph name="equal" format="2">
  <advance width="517.8571428571429"/>
  <unicode hex="003D"/>
  <outline>
    <contour>
      <point x="440.92857142857144" y="146.10714285714286" type="line"/>
      <point x="449.2857142857143" y="193.89285714285714" type="line"/>
      <point x="30.92857142857143" y="193.89285714285714" type="line"/>
      <point x="22.571428571428573" y="146.10714285714286" type="line"/>
    </contour>
    <contour>
      <point x="476.92857142857144" y="350.10714285714283" type="line"/>
      <point x="485.2857142857143" y="397.89285714285717" type="line"/>
      <point x="66.92857142857143" y="397.89285714285717" type="line"/>
      <point x="58.57142857142857" y="350.10714285714283" type="line"/>
    </contour>
  </outline>
</glyph>
<glyph name="greater" format="2">
  <advance width="517.8571428571429"/>
  <unicode hex="003E"/>
  <outline>
    <contour>
      <point x="76.57142857142857" y="482.0" type="line"/>
      <point x="68.03571428571429" y="432.67857142857144" type="line"/>
      <point x="427.67857142857144" y="260.67857142857144" type="line"/>
      <point x="432.75" y="288.5" type="line"/>
      <point x="12.75" y="116.5" type="line"/>
      <point x="3.392857142857144" y="62.0" type="line"/>
      <point x="455.39285714285717" y="247.0" type="line"/>
      <point x="463.39285714285717" y="297.0" type="line"/>
    </contour>
  </outline>
</glyph>
<glyph name="question" format="2">
  <advance width="402.0357142857143"/>
  <unicode hex="003F"/>
  <outline>
    <contour>
      <point x="168.39285714285714" y="197.96428571428572" type="curve"/>
      <point x="185.32142857142858" y="207.82142857142858" type="line"/>
      <point x="169.64285714285714" y="226.03571428571428"/>
      <point x="160.71428571428572" y="244.25"/>
      <point x="160.71428571428572" y="269.10714285714283" type="curve" smooth="yes"/>
      <point x="160.71428571428572" y="390.89285714285717"/>
      <point x="374.7142857142857" y="331.7857142857143"/>
      <point x="374.7142857142857" y="489.2857142857143" type="curve" smooth="yes"/>
      <point x="374.7142857142857" y="586.7142857142857"/>
      <point x="243.96428571428572" y="670.0"/>
      <point x="155.25" y="670.0" type="curve" smooth="yes"/>
      <point x="107.25" y="670.0"/>
      <point x="94.25" y="659.0"/>
      <point x="94.25" y="644.0" type="curve" smooth="yes"/>
      <point x="94.25" y="639.0"/>
      <point x="95.42857142857143" y="632.8214285714286"/>
      <point x="99.25" y="625.0" type="curve" smooth="yes"/>
      <point x="118.28571428571428" y="583.25" type="line"/>
      <point x="131.64285714285714" y="578.0714285714286" type="line"/>
      <point x="174.57142857142856" y="586.8928571428571" type="line" smooth="yes"/>
      <point x="191.03571428571428" y="590.7142857142857"/>
      <point x="210.42857142857142" y="591.8928571428571"/>
      <point x="224.07142857142856" y="591.8928571428571" type="curve" smooth="yes"/>
      <point x="281.39285714285717" y="591.8928571428571"/>
      <point x="332.75" y="566.5357142857143"/>
      <point x="332.75" y="516.8214285714286" type="curve" smooth="yes"/>
      <point x="332.75" y="420.10714285714283"/>
      <point x="107.67857142857143" y="464.2142857142857"/>
      <point x="107.67857142857143" y="315.9642857142857" type="curve" smooth="yes"/>
      <point x="107.67857142857143" y="275.14285714285717"/>
      <point x="127.21428571428571" y="236.75"/>
    </contour>
    <contour>
      <point x="128.71428571428572" y="-5.0" type="curve" smooth="yes"/>
      <point x="167.5" y="-5.0"/>
      <point x="192.75" y="27.785714285714285"/>
      <point x="192.75" y="63.39285714285714" type="curve" smooth="yes"/>
      <point x="192.75" y="93.82142857142857"/>
      <point x="177.03571428571428" y="115.89285714285714"/>
      <point x="142.25" y="115.89285714285714" type="curve" smooth="yes"/>
      <point x="104.46428571428571" y="115.89285714285714"/>
      <point x="78.21428571428571" y="83.10714285714286"/>
      <point x="78.21428571428571" y="47.5" type="curve" smooth="yes"/>
      <point x="78.21428571428571" y="17.07142857142857"/>
      <point x="93.92857142857143" y="-5.0"/>
    </contour>
  </outline>
</glyph>
<glyph name="at" format="2">
  <advance width="794.9642857142857"/>
  <unicode hex="0040"/>
  <outline>
    <contour>
      <point x="365.17857142857144" y="-118.0" type="curve" smooth="yes"/>
      <point x="465.60714285714283" y="-118.0"/>
      <point x="539.7142857142857" y="-92.35714285714286"/>
      <point x="609.7142857142857" y="-48.357142857142854" type="curve"/>
      <point x="600.1785714285714" y="-27.0" type="line"/>
      <point x="541.7142857142857" y="-67.92857142857143"/>
      <point x="479.17857142857144" y="-89.39285714285714"/>
      <point x="392.17857142857144" y="-89.39285714285714" type="curve" smooth="yes"/>
      <point x="232.60714285714286" y="-89.39285714285714"/>
      <point x="121.67857142857143" y="12.071428571428571"/>
      <point x="121.67857142857143" y="186.0" type="curve" smooth="yes"/>
      <point x="121.67857142857143" y="379.2857142857143"/>
      <point x="243.60714285714286" y="534.75"/>
      <point x="431.17857142857144" y="534.75" type="curve" smooth="yes"/>
      <point x="589.8928571428571" y="534.75"/>
      <point x="693.25" y="423.2857142857143"/>
      <point x="693.25" y="281.0" type="curve" smooth="yes"/>
      <point x="693.25" y="166.21428571428572"/>
      <point x="625.8214285714286" y="62.57142857142857"/>
      <point x="555.7857142857143" y="62.57142857142857" type="curve" smooth="yes"/>
      <point x="524.5714285714286" y="62.57142857142857"/>
      <point x="521.6785714285714" y="79.85714285714286"/>
      <point x="531.1428571428571" y="133.0" type="curve" smooth="yes"/>
      <point x="583.7857142857143" y="427.39285714285717" type="line"/>
      <point x="560.75" y="427.39285714285717" type="line"/>
      <point x="509.85714285714283" y="399.64285714285717" type="line"/>
      <point x="546.4285714285714" y="392.60714285714283" type="line"/>
      <point x="528.6071428571429" y="413.25"/>
      <point x="490.92857142857144" y="429.0"/>
      <point x="449.17857142857144" y="429.0" type="curve" smooth="yes"/>
      <point x="331.2857142857143" y="429.0"/>
      <point x="220.25" y="287.75"/>
      <point x="220.25" y="138.5" type="curve" smooth="yes"/>
      <point x="220.25" y="60.82142857142857"/>
      <point x="255.07142857142858" y="21.0"/>
      <point x="301.25" y="21.0" type="curve" smooth="yes"/>
      <point x="360.7142857142857" y="21.0"/>
      <point x="411.9642857142857" y="69.0"/>
      <point x="461.10714285714283" y="151.10714285714286" type="curve"/>
      <point x="472.67857142857144" y="196.21428571428572" type="line"/>
      <point x="444.57142857142856" y="147.96428571428572"/>
      <point x="397.0" y="85.07142857142857"/>
      <point x="351.0" y="85.07142857142857" type="curve" smooth="yes"/>
      <point x="313.92857142857144" y="85.07142857142857"/>
      <point x="303.4642857142857" y="114.10714285714286"/>
      <point x="303.4642857142857" y="176.07142857142856" type="curve" smooth="yes"/>
      <point x="303.4642857142857" y="286.7142857142857"/>
      <point x="351.5" y="393.39285714285717"/>
      <point x="422.57142857142856" y="393.39285714285717" type="curve" smooth="yes"/>
      <point x="454.17857142857144" y="393.39285714285717"/>
      <point x="472.92857142857144" y="376.89285714285717"/>
      <point x="494.25" y="348.0" type="curve"/>
      <point x="491.35714285714283" y="369.5" type="line"/>
      <point x="446.7857142857143" y="115.92857142857143" type="line" smooth="yes"/>
      <point x="436.5357142857143" y="56.142857142857146"/>
      <point x="455.75" y="21.0"/>
      <point x="516.1785714285714" y="21.0" type="curve" smooth="yes"/>
      <point x="653.3214285714286" y="21.0"/>
      <point x="736.75" y="156.0"/>
      <point x="736.75" y="284.0" type="curve" smooth="yes"/>
      <point x="736.75" y="445.0"/>
      <point x="627.3214285714286" y="562.0"/>
      <point x="453.17857142857144" y="562.0" type="curve" smooth="yes"/>
      <point x="234.10714285714286" y="562.0"/>
      <point x="58.214285714285715" y="381.17857142857144"/>
      <point x="58.214285714285715" y="167.35714285714286" type="curve" smooth="yes"/>
      <point x="58.214285714285715" y="-4.821428571428571"/>
      <point x="182.92857142857142" y="-118.0"/>
    </contour>
  </outline>
</glyph>
<glyph name="A" format="2">
  <advance width="715.7142857142857"/>
  <unicode hex="0041"/>
  <anchor x="428.39285714285717" y="710.0" name="top"/>
  <anchor x="532.4285714285714" y="0.0" name="right"/>
  <anchor x="278.2857142857143" y="0.0" name="bottom"/>
  <outline>
    <contour>
      <point x="-20.357142857142858" y="0.0" type="line"/>
      <point x="178.57142857142858" y="0.0" type="line"/>
      <point x="181.75" y="16.0" type="line"/>
      <point x="96.28571428571428" y="51.07142857142857" type="line"/>
      <point x="91.35714285714286" y="28.0" type="line"/>
      <point x="405.10714285714283" y="588.2857142857143" type="line"/>
      <point x="367.57142857142856" y="588.2857142857143" type="line"/>
      <point x="479.25" y="28.0" type="line"/>
      <point x="494.60714285714283" y="58.714285714285715" type="line"/>
      <point x="384.5" y="16.0" type="line"/>
      <point x="381.5" y="0.0" type="line"/>
      <point x="634.0357142857142" y="0.0" type="line"/>
      <point x="637.8571428571429" y="16.0" type="line"/>
      <point x="545.25" y="71.85714285714286" type="line"/>
      <point x="583.3928571428571" y="28.0" type="line"/>
      <point x="448.10714285714283" y="665.0" type="line"/>
      <point x="394.39285714285717" y="665.0" type="line"/>
      <point x="31.107142857142854" y="28.0" type="line"/>
      <point x="76.42857142857143" y="65.57142857142857" type="line"/>
      <point x="-16.535714285714285" y="16.0" type="line"/>
    </contour>
    <contour>
      <point x="175.14285714285714" y="232.46428571428572" type="line"/>
      <point x="487.5357142857143" y="232.46428571428572" type="line"/>
      <point x="497.7142857142857" y="283.35714285714283" type="line"/>
      <point x="185.32142857142858" y="283.35714285714283" type="line"/>
    </contour>
  </outline>
</glyph>
<glyph name="B" format="2">
  <advance width="635.2857142857143"/>
  <unicode hex="0042"/>
  <outline>
    <contour>
      <point x="2.8571428571428568" y="0.0" type="line"/>
      <point x="179.92857142857144" y="0.0" type="line"/>
      <point x="295.92857142857144" y="660.0" type="line"/>
      <point x="118.85714285714286" y="660.0" type="line"/>
      <point x="115.85714285714286" y="644.0" type="line"/>
      <point x="185.57142857142858" y="603.6428571428571" type="line"/>
      <point x="89.57142857142857" y="56.35714285714286" type="line"/>
      <point x="5.857142857142857" y="16.0" type="line"/>
    </contour>
    <contour>
      <point x="287.92857142857144" y="0.0" type="line" smooth="yes"/>
      <point x="478.6428571428571" y="0.0"/>
      <point x="576.1785714285714" y="102.82142857142857"/>
      <point x="576.1785714285714" y="201.25" type="curve" smooth="yes"/>
      <point x="576.1785714285714" y="299.07142857142856"/>
      <point x="498.1071428571429" y="358.89285714285717"/>
      <point x="341.8571428571429" y="358.89285714285717" type="curve"/>
      <point x="336.6071428571429" y="343.89285714285717" type="line"/>
      <point x="484.0357142857143" y="343.89285714285717"/>
      <point x="572.0714285714286" y="432.35714285714283"/>
      <point x="572.0714285714286" y="520.5357142857143" type="curve" smooth="yes"/>
      <point x="572.0714285714286" y="614.1785714285714"/>
      <point x="485.6428571428571" y="660.0"/>
      <point x="352.5357142857143" y="660.0" type="curve" smooth="yes"/>
      <point x="241.64285714285714" y="660.0" type="line"/>
      <point x="232.28571428571428" y="609.1071428571429" type="line"/>
      <point x="339.5357142857143" y="609.1071428571429" type="line" smooth="yes"/>
      <point x="429.2142857142857" y="609.1071428571429"/>
      <point x="464.25" y="571.9285714285714"/>
      <point x="464.25" y="502.10714285714283" type="curve" smooth="yes"/>
      <point x="464.25" y="423.82142857142856"/>
      <point x="409.7857142857143" y="364.64285714285717"/>
      <point x="300.42857142857144" y="364.64285714285717" type="curve" smooth="yes"/>
      <point x="196.39285714285714" y="364.64285714285717" type="line"/>
      <point x="187.21428571428572" y="315.5357142857143" type="line"/>
      <point x="315.42857142857144" y="315.5357142857143" type="line" smooth="yes"/>
      <point x="420.7857142857143" y="315.5357142857143"/>
      <point x="466.2857142857143" y="280.0"/>
      <point x="466.2857142857143" y="200.89285714285714" type="curve" smooth="yes"/>
      <point x="466.2857142857143" y="112.75"/>
      <point x="409.1428571428571" y="50.89285714285714"/>
      <point x="288.89285714285717" y="50.89285714285714" type="curve" smooth="yes"/>
      <point x="157.0" y="50.89285714285714" type="line"/>
      <point x="147.82142857142856" y="0.0" type="line"/>
    </contour>
  </outline>
</glyph>
<glyph name="C" format="2">
  <advance width="667.75"/>
  <unicode hex="0043"/>
  <anchor x="452.07142857142856" y="710.0" name="top"/>
  <anchor x="326.7142857142857" y="0.0" name="bottom"/>
  <outline>
    <contour>
      <point x="321.60714285714283" y="-10.0" type="curve" smooth="yes"/>
      <point x="426.07142857142856" y="-10.0"/>
      <point x="489.25" y="9.178571428571429"/>
      <point x="550.1071428571429" y="39.892857142857146" type="curve"/>
      <point x="588.8214285714286" y="201.75" type="line"/>
      <point x="572.4642857142857" y="201.75" type="line"/>
      <point x="483.8928571428571" y="84.53571428571428" type="line"/>
      <point x="446.32142857142856" y="61.14285714285714"/>
      <point x="400.7142857142857" y="37.25"/>
      <point x="347.89285714285717" y="37.25" type="curve" smooth="yes"/>
      <point x="238.89285714285714" y="37.25"/>
      <point x="164.42857142857144" y="126.39285714285714"/>
      <point x="164.42857142857144" y="276.7142857142857" type="curve" smooth="yes"/>
      <point x="164.42857142857144" y="463.32142857142856"/>
      <point x="263.07142857142856" y="623.6428571428571"/>
      <point x="433.7142857142857" y="623.6428571428571" type="curve" smooth="yes"/>
      <point x="481.14285714285717" y="623.6428571428571"/>
      <point x="509.0" y="608.1428571428571"/>
      <point x="539.1428571428571" y="577.4285714285714" type="curve"/>
      <point x="586.2857142857143" y="443.60714285714283" type="line"/>
      <point x="602.6428571428571" y="443.60714285714283" type="line"/>
      <point x="627.0357142857143" y="622.0" type="line"/>
      <point x="566.6071428571429" y="655.5714285714286"/>
      <point x="523.1428571428571" y="670.0"/>
      <point x="446.25" y="670.0" type="curve" smooth="yes"/>
      <point x="236.42857142857144" y="670.0"/>
      <point x="56.42857142857143" y="484.5"/>
      <point x="56.42857142857143" y="259.17857142857144" type="curve" smooth="yes"/>
      <point x="56.42857142857143" y="101.53571428571429"/>
      <point x="153.64285714285714" y="-10.0"/>
    </contour>
  </outline>
</glyph>
<glyph name="D" format="2">
  <advance width="736.4642857142857"/>
  <unicode hex="0044"/>
  <anchor x="402.17857142857144" y="710.0" name="top"/>
  <anchor x="313.0" y="0.0" name="bottom"/>
  <outline>
    <contour>
      <point x="2.8571428571428568" y="0.0" type="line"/>
      <point x="179.21428571428572" y="0.0" type="line"/>
      <point x="296.2142857142857" y="660.0" type="line"/>
      <point x="118.85714285714286" y="660.0" type="line"/>
      <point x="115.85714285714286" y="644.0" type="line"/>
      <point x="184.85714285714286" y="604.0" type="line"/>
      <point x="88.85714285714286" y="56.0" type="line"/>
      <point x="5.857142857142858" y="16.0" type="line"/>
    </contour>
    <contour>
      <point x="282.5357142857143" y="0.0" type="line" smooth="yes"/>
      <point x="556.6785714285714" y="0.0"/>
      <point x="688.25" y="217.5"/>
      <point x="688.25" y="388.9642857142857" type="curve" smooth="yes"/>
      <point x="688.25" y="547.8214285714286"/>
      <point x="586.73376623375" y="660.0"/>
      <point x="352.0" y="660.0" type="curve" smooth="yes"/>
      <point x="246.82142857142856" y="660.0" type="line"/>
      <point x="237.82142857142858" y="609.4642857142857" type="line"/>
      <point x="335.67857142857144" y="609.4642857142857" type="line" smooth="yes"/>
      <point x="503.14285714285717" y="609.4642857142857"/>
      <point x="580.4285714285714" y="521.3571428571429"/>
      <point x="580.4285714285714" y="381.25" type="curve" smooth="yes"/>
      <point x="580.4285714285714" y="181.07142857142858"/>
      <point x="477.82142857142856" y="49.64285714285714"/>
      <point x="291.42857142857144" y="49.64285714285714" type="curve" smooth="yes"/>
      <point x="159.67857142857144" y="49.64285714285714" type="line"/>
      <point x="149.96428571428572" y="0.0" type="line"/>
    </contour>
  </outline>
</glyph>
<glyph name="E" format="2">
  <advance width="621.5357142857143"/>
  <unicode hex="0045"/>
  <anchor x="396.5" y="710.0" name="top"/>
  <anchor x="442.57142857142856" y="0.0" name="right"/>
  <anchor x="289.0" y="0.0" name="bottom"/>
  <outline>
    <contour>
      <point x="2.8571428571428568" y="0.0" type="line"/>
      <point x="179.92857142857144" y="0.0" type="line"/>
      <point x="296.75" y="660.0" type="line"/>
      <point x="118.85714285714286" y="660.0" type="line"/>
      <point x="115.85714285714286" y="644.0" type="line"/>
      <point x="185.57142857142858" y="603.6428571428571" type="line"/>
      <point x="89.57142857142857" y="56.35714285714286" type="line"/>
      <point x="5.857142857142858" y="16.0" type="line"/>
    </contour>
    <contour>
      <point x="543.4642857142857" y="487.64285714285717" type="line"/>
      <point x="559.2857142857143" y="487.64285714285717" type="line"/>
      <point x="590.1071428571429" y="660.0" type="line"/>
      <point x="238.42857142857144" y="660.0" type="line"/>
      <point x="229.25" y="609.1071428571429" type="line"/>
      <point x="503.60714285714283" y="609.1071428571429" type="line"/>
    </contour>
    <contour>
      <point x="424.2857142857143" y="232.0" type="line"/>
      <point x="440.2857142857143" y="232.0" type="line"/>
      <point x="479.2857142857143" y="451.0" type="line"/>
      <point x="463.2857142857143" y="451.0" type="line"/>
      <point x="398.42857142857144" y="365.4642857142857" type="line"/>
      <point x="196.03571428571428" y="365.4642857142857" type="line"/>
      <point x="187.21428571428572" y="316.35714285714283" type="line"/>
      <point x="390.42857142857144" y="316.35714285714283" type="line"/>
    </contour>
    <contour>
      <point x="512.4285714285714" y="0.0" type="line"/>
      <point x="545.6785714285714" y="188.60714285714286" type="line"/>
      <point x="529.6785714285714" y="188.60714285714286" type="line"/>
      <point x="444.1428571428571" y="50.89285714285714" type="line"/>
      <point x="157.71428571428572" y="50.89285714285714" type="line"/>
      <point x="149.07142857142856" y="0.0" type="line"/>
    </contour>
  </outline>
</glyph>
<glyph name="F" format="2">
  <advance width="602.4642857142857"/>
  <unicode hex="0046"/>
  <outline>
    <contour>
      <point x="2.8571428571428568" y="0.0" type="line"/>
      <point x="278.25" y="0.0" type="line"/>
      <point x="281.25" y="16.0" type="line"/>
      <point x="189.92857142857144" y="56.35714285714286" type="line"/>
      <point x="296.75" y="660.0" type="line"/>
      <point x="118.85714285714286" y="660.0" type="line"/>
      <point x="115.85714285714286" y="644.0" type="line"/>
      <point x="185.57142857142858" y="603.6428571428571" type="line"/>
      <point x="89.57142857142857" y="56.35714285714286" type="line"/>
      <point x="5.857142857142858" y="16.0" type="line"/>
    </contour>
    <contour>
      <point x="539.2857142857143" y="487.64285714285717" type="line"/>
      <point x="555.2857142857143" y="487.64285714285717" type="line"/>
      <point x="585.2857142857143" y="660.0" type="line"/>
      <point x="231.03571428571428" y="660.0" type="line"/>
      <point x="221.03571428571428" y="609.1071428571429" type="line"/>
      <point x="498.7857142857143" y="609.1071428571429" type="line"/>
    </contour>
    <contour>
      <point x="415.35714285714283" y="232.0" type="line"/>
      <point x="431.35714285714283" y="232.0" type="line"/>
      <point x="470.3571428571429" y="451.0" type="line"/>
      <point x="454.35714285714283" y="451.0" type="line"/>
      <point x="389.5" y="365.4642857142857" type="line"/>
      <point x="187.10714285714286" y="365.4642857142857" type="line"/>
      <point x="178.28571428571428" y="316.35714285714283" type="line"/>
      <point x="381.5" y="316.35714285714283" type="line"/>
    </contour>
  </outline>
</glyph>
<glyph name="G" format="2">
  <advance width="730.25"/>
  <unicode hex="0047"/>
  <anchor x="460.1428571428571" y="710.0" name="top"/>
  <anchor x="328.9642857142857" y="0.0" name="bottom"/>
  <outline>
    <contour>
      <point x="317.32142857142856" y="-10.0" type="curve" smooth="yes"/>
      <point x="398.42857142857144" y="-10.0"/>
      <point x="500.3928571428571" y="23.0"/>
      <point x="566.8571428571429" y="74.0" type="curve"/>
      <point x="594.2142857142857" y="232.42857142857144" type="line"/>
      <point x="668.4642857142857" y="277.0357142857143" type="line"/>
      <point x="671.4642857142857" y="293.0357142857143" type="line"/>
      <point x="420.92857142857144" y="293.0357142857143" type="line"/>
      <point x="417.10714285714283" y="277.0357142857143" type="line"/>
      <point x="493.85714285714283" y="234.89285714285714" type="line"/>
      <point x="462.42857142857144" y="54.035714285714285" type="line"/>
      <point x="507.89285714285717" y="82.17857142857143" type="line"/>
      <point x="452.2142857142857" y="54.07142857142857"/>
      <point x="402.17857142857144" y="45.71428571428571"/>
      <point x="354.32142857142856" y="45.71428571428571" type="curve" smooth="yes"/>
      <point x="242.35714285714286" y="45.71428571428571"/>
      <point x="163.42857142857144" y="129.5"/>
      <point x="163.42857142857144" y="275.35714285714283" type="curve" smooth="yes"/>
      <point x="163.42857142857144" y="459.2142857142857"/>
      <point x="267.85714285714283" y="623.6428571428571"/>
      <point x="445.5" y="623.6428571428571" type="curve" smooth="yes"/>
      <point x="500.0357142857143" y="623.6428571428571"/>
      <point x="533.6428571428571" y="610.6071428571429"/>
      <point x="567.5" y="577.25" type="curve"/>
      <point x="614.4642857142857" y="453.7857142857143" type="line"/>
      <point x="630.4642857142857" y="453.7857142857143" type="line"/>
      <point x="655.2142857142857" y="622.0" type="line"/>
      <point x="590.1428571428571" y="658.2142857142857"/>
      <point x="541.2142857142857" y="670.8214285714286"/>
      <point x="455.5357142857143" y="670.8214285714286" type="curve" smooth="yes"/>
      <point x="246.07142857142856" y="670.8214285714286"/>
      <point x="56.42857142857143" y="486.10714285714283"/>
      <point x="56.42857142857143" y="258.82142857142856" type="curve" smooth="yes"/>
      <point x="56.42857142857143" y="101.35714285714286"/>
      <point x="153.46428571428572" y="-10.0"/>
    </contour>
  </outline>
</glyph>
<glyph name="I" format="2">
  <advance width="368.92857142857144"/>
  <unicode hex="0049"/>
  <anchor x="248.5" y="710.0" name="top"/>
  <anchor x="146.25" y="0.0" name="right"/>
  <anchor x="123.5" y="0.0" name="bottom"/>
  <outline>
    <contour>
      <point x="2.8571428571428568" y="0.0" type="line"/>
      <point x="257.4642857142857" y="0.0" type="line"/>
      <point x="260.4642857142857" y="16.0" type="line"/>
      <point x="184.17857142857144" y="56.35714285714286" type="line"/>
      <point x="281.0" y="603.6428571428571" type="line"/>
      <point x="363.07142857142856" y="644.0" type="line"/>
      <point x="366.07142857142856" y="660.0" type="line"/>
      <point x="111.46428571428572" y="660.0" type="line"/>
      <point x="108.46428571428572" y="644.0" type="line"/>
      <point x="180.64285714285714" y="603.6428571428571" type="line"/>
      <point x="83.82142857142857" y="56.35714285714286" type="line"/>
      <point x="5.857142857142857" y="16.0" type="line"/>
    </contour>
  </outline>
</glyph>
<glyph name="J" format="2">
  <advance width="378.92857142857144"/>
  <unicode hex="004A"/>
  <anchor x="264.2142857142857" y="710.0" name="top"/>
  <outline>
    <contour>
      <point x="-35.60714285714286" y="-173.0" type="curve" smooth="yes"/>
      <point x="4.25" y="-173.0"/>
      <point x="21.964285714285715" y="-160.03571428571428"/>
      <point x="89.28571428571428" y="-94.35714285714286" type="curve" smooth="yes"/>
      <point x="156.46428571428572" y="-29.642857142857146"/>
      <point x="204.71428571428572" y="89.64285714285714"/>
      <point x="230.71428571428572" y="238.03571428571428" type="curve" smooth="yes"/>
      <point x="296.42857142857144" y="603.6428571428571" type="line"/>
      <point x="377.7142857142857" y="644.0" type="line"/>
      <point x="380.5357142857143" y="660.0" type="line"/>
      <point x="126.57142857142857" y="660.0" type="line"/>
      <point x="123.75" y="644.0" type="line"/>
      <point x="195.25" y="603.6428571428571" type="line"/>
      <point x="98.5" y="57.42857142857143" type="line" smooth="yes"/>
      <point x="75.32142857142857" y="-76.57142857142857"/>
      <point x="47.392857142857146" y="-93.57142857142857"/>
      <point x="5.678571428571429" y="-93.57142857142857" type="curve" smooth="yes"/>
      <point x="-11.321428571428571" y="-93.57142857142857"/>
      <point x="-21.214285714285715" y="-90.57142857142857"/>
      <point x="-40.67857142857143" y="-84.57142857142857" type="curve"/>
      <point x="-46.67857142857143" y="-84.57142857142857" type="line"/>
      <point x="-61.285714285714285" y="-128.57142857142858" type="line" smooth="yes"/>
      <point x="-72.20650154751786" y="-160.5980469207143"/>
      <point x="-56.73809523809524" y="-173.0"/>
    </contour>
  </outline>
</glyph>
<glyph name="K" format="2">
  <advance width="706.0714285714286"/>
  <unicode hex="004B"/>
  <anchor x="434.2857142857143" y="710.0" name="top"/>
  <anchor x="323.57142857142856" y="0.0" name="bottom"/>
  <outline>
    <contour>
      <point x="2.8571428571428568" y="0.0" type="line"/>
      <point x="256.64285714285717" y="0.0" type="line"/>
      <point x="260.6428571428571" y="16.0" type="line"/>
      <point x="189.92857142857144" y="56.35714285714286" type="line"/>
      <point x="286.75" y="603.6428571428571" type="line"/>
      <point x="369.6428571428571" y="644.0" type="line"/>
      <point x="373.6428571428571" y="660.0" type="line"/>
      <point x="118.85714285714286" y="660.0" type="line"/>
      <point x="115.85714285714286" y="644.0" type="line"/>
      <point x="185.57142857142858" y="603.6428571428571" type="line"/>
      <point x="89.57142857142857" y="56.35714285714286" type="line"/>
      <point x="5.857142857142857" y="16.0" type="line"/>
    </contour>
    <contour>
      <point x="476.42857142857144" y="0.0" type="line"/>
      <point x="623.0357142857143" y="0.0" type="line"/>
      <point x="626.0357142857143" y="16.0" type="line"/>
      <point x="565.9285714285714" y="52.0" type="line"/>
      <point x="321.5357142857143" y="387.25" type="line"/>
      <point x="308.0357142857143" y="338.0" type="line"/>
      <point x="640.9285714285714" y="632.0" type="line"/>
      <point x="595.2142857142858" y="607.6785714285714" type="line"/>
      <point x="688.9285714285714" y="644.0" type="line"/>
      <point x="692.9285714285714" y="660.0" type="line"/>
      <point x="488.2857142857143" y="660.0" type="line"/>
      <point x="485.2857142857143" y="644.0" type="line"/>
      <point x="571.2857142857143" y="597.0" type="line"/>
      <point x="572.6428571428571" y="632.0" type="line"/>
      <point x="240.92857142857144" y="336.75" type="line"/>
    </contour>
  </outline>
</glyph>
<glyph name="L" format="2">
  <advance width="593.0"/>
  <unicode hex="004C"/>
  <anchor x="255.07142857142856" y="710.0" name="top"/>
  <anchor x="504.5357142857143" y="660.0" name="right"/>
  <anchor x="488.92857142857144" y="348.42857142857144" name="mid"/>
  <anchor x="263.0" y="0.0" name="bottom"/>
  <outline>
    <contour>
      <point x="2.8571428571428568" y="0.0" type="line"/>
      <point x="483.25" y="0.0" type="line"/>
      <point x="523.5" y="226.10714285714286" type="line"/>
      <point x="507.5" y="226.10714285714286" type="line"/>
      <point x="408.9642857142857" y="50.89285714285714" type="line"/>
      <point x="189.75" y="50.89285714285714" type="line"/>
      <point x="286.75" y="603.6428571428571" type="line"/>
      <point x="379.6428571428571" y="644.0" type="line"/>
      <point x="382.6428571428571" y="660.0" type="line"/>
      <point x="118.85714285714286" y="660.0" type="line"/>
      <point x="115.85714285714286" y="644.0" type="line"/>
      <point x="185.57142857142858" y="603.6428571428571" type="line"/>
      <point x="89.57142857142857" y="56.35714285714286" type="line"/>
      <point x="5.857142857142858" y="16.0" type="line"/>
    </contour>
  </outline>
</glyph>
<glyph name="M" format="2">
  <advance width="925.3928571428571"/>
  <unicode hex="004D"/>
  <anchor x="401.67857142857144" y="0.0" name="bottom"/>
  <outline>
    <contour>
      <point x="2.8571428571428568" y="0.0" type="line"/>
      <point x="217.07142857142856" y="0.0" type="line"/>
      <point x="220.25" y="16.0" type="line"/>
      <point x="149.0" y="55.35714285714286" type="line"/>
      <point x="268.0" y="632.1428571428571" type="line"/>
      <point x="212.57142857142858" y="632.1428571428571" type="line"/>
      <point x="88.75" y="56.35714285714286" type="line"/>
      <point x="5.857142857142858" y="16.0" type="line"/>
    </contour>
    <contour>
      <point x="378.60714285714283" y="-5.0" type="line"/>
      <point x="423.2857142857143" y="-5.0" type="line"/>
      <point x="757.0357142857143" y="594.6428571428571" type="line"/>
      <point x="807.8928571428571" y="594.6428571428571" type="line"/>
      <point x="913.3571428571429" y="644.0" type="line"/>
      <point x="917.1785714285714" y="660.0" type="line"/>
      <point x="734.3571428571429" y="660.0" type="line"/>
      <point x="419.57142857142856" y="92.07142857142857" type="line"/>
      <point x="459.0357142857143" y="92.07142857142857" type="line"/>
      <point x="321.4642857142857" y="660.0" type="line"/>
      <point x="127.75" y="660.0" type="line"/>
      <point x="123.92857142857143" y="644.0" type="line"/>
      <point x="223.57142857142858" y="594.6428571428571" type="line"/>
      <point x="236.03571428571428" y="594.6428571428571" type="line"/>
    </contour>
    <contour>
      <point x="585.6428571428571" y="0.0" type="line"/>
      <point x="823.7857142857142" y="0.0" type="line"/>
      <point x="826.7857142857142" y="16.0" type="line"/>
      <point x="765.7142857142858" y="56.35714285714286" type="line"/>
      <point x="832.5357142857143" y="632.1428571428571" type="line"/>
      <point x="735.8214285714286" y="632.1428571428571" type="line"/>
      <point x="666.3571428571429" y="55.35714285714286" type="line"/>
      <point x="588.6428571428571" y="16.0" type="line"/>
    </contour>
  </outline>
</glyph>
<glyph name="N" format="2">
  <advance width="771.5357142857143"/>
  <unicode hex="004E"/>
  <anchor x="470.0" y="710.0" name="top"/>
  <anchor x="349.07142857142856" y="0.0" name="bottom"/>
  <outline>
    <contour>
      <point x="3.75" y="0.0" type="line"/>
      <point x="245.39285714285714" y="0.0" type="line"/>
      <point x="249.21428571428572" y="16.0" type="line"/>
      <point x="155.07142857142856" y="55.535714285714285" type="line"/>
      <point x="241.92857142857144" y="549.2142857142857" type="line"/>
      <point x="214.75" y="549.2142857142857" type="line"/>
      <point x="534.2857142857143" y="-5.0" type="line"/>
      <point x="578.6071428571429" y="-5.0" type="line"/>
      <point x="685.6071428571429" y="604.4642857142857" type="line"/>
      <point x="769.7857142857143" y="644.0" type="line"/>
      <point x="772.7857142857143" y="660.0" type="line"/>
      <point x="532.3214285714286" y="660.0" type="line"/>
      <point x="528.5" y="644.0" type="line"/>
      <point x="622.6428571428571" y="605.2857142857143" type="line"/>
      <point x="535.3214285714286" y="109.46428571428571" type="line"/>
      <point x="583.7857142857143" y="109.46428571428571" type="line"/>
      <point x="270.39285714285717" y="660.0" type="line"/>
      <point x="120.57142857142857" y="660.0" type="line"/>
      <point x="117.57142857142857" y="644.0" type="line"/>
      <point x="188.10714285714286" y="602.0" type="line"/>
      <point x="92.10714285714286" y="56.35714285714286" type="line"/>
      <point x="6.75" y="16.0" type="line"/>
    </contour>
  </outline>
</glyph>
<glyph name="O" format="2">
  <advance width="768.3214285714286"/>
  <unicode hex="004F"/>
  <anchor x="450.8928571428571" y="710.0" name="top"/>
  <anchor x="358.75" y="0.0" name="right"/>
  <anchor x="327.6071428571429" y="0.0" name="bottom"/>
  <outline>
    <contour>
      <point x="333.25" y="-10.0" type="curve" smooth="yes"/>
      <point x="555.2857142857142" y="-10.0"/>
      <point x="711.8928571428571" y="179.14285714285714"/>
      <point x="711.8928571428571" y="380.14285714285717" type="curve" smooth="yes"/>
      <point x="711.8928571428571" y="551.7142857142857"/>
      <point x="604.0714285714286" y="670.8214285714286"/>
      <point x="434.07142857142856" y="670.8214285714286" type="curve" smooth="yes"/>
      <point x="218.28571428571428" y="670.8214285714286"/>
      <point x="56.42857142857143" y="484.9642857142857"/>
      <point x="56.42857142857143" y="280.0357142857143" type="curve" smooth="yes"/>
      <point x="56.42857142857143" y="108.28571428571429"/>
      <point x="163.89285714285714" y="-10.0"/>
    </contour>
    <contour>
      <point x="361.32142857142856" y="38.714285714285715" type="curve" smooth="yes"/>
      <point x="241.69893742624998" y="38.714285714285715"/>
      <point x="163.5" y="138.96428571428572"/>
      <point x="163.5" y="283.60714285714283" type="curve" smooth="yes"/>
      <point x="163.5" y="472.10714285714283"/>
      <point x="266.98847926267854" y="623.5714285714286"/>
      <point x="410.4642857142857" y="623.5714285714286" type="curve" smooth="yes"/>
      <point x="530.1440377803572" y="623.5714285714286"/>
      <point x="605.6428571428571" y="523.5"/>
      <point x="605.6428571428571" y="378.2142857142857" type="curve" smooth="yes"/>
      <point x="605.6428571428571" y="194.28571428571428"/>
      <point x="505.35829493089284" y="38.714285714285715"/>
    </contour>
  </outline>
</glyph>
<glyph name="P" format="2">
  <advance width="625.4642857142858"/>
  <unicode hex="0050"/>
  <outline>
    <contour>
      <point x="2.8571428571428568" y="0.0" type="line"/>
      <point x="268.6071428571429" y="0.0" type="line"/>
      <point x="271.6071428571429" y="16.0" type="line"/>
      <point x="189.92857142857144" y="56.35714285714286" type="line"/>
      <point x="287.39285714285717" y="609.1071428571429" type="line"/>
      <point x="340.35714285714283" y="609.1071428571429" type="line" smooth="yes"/>
      <point x="436.25" y="609.1071428571429"/>
      <point x="490.57142857142856" y="572.5714285714286"/>
      <point x="490.57142857142856" y="491.60714285714283" type="curve" smooth="yes"/>
      <point x="490.57142857142856" y="405.42857142857144"/>
      <point x="437.5357142857143" y="342.64285714285717"/>
      <point x="324.2142857142857" y="342.64285714285717" type="curve" smooth="yes"/>
      <point x="202.57142857142856" y="342.64285714285717" type="line"/>
      <point x="192.57142857142856" y="293.5357142857143" type="line"/>
      <point x="303.0" y="293.5357142857143" type="line" smooth="yes"/>
      <point x="491.6428571428571" y="293.5357142857143"/>
      <point x="599.9285714285714" y="391.4642857142857"/>
      <point x="599.9285714285714" y="498.25" type="curve" smooth="yes"/>
      <point x="599.9285714285714" y="609.2857142857143"/>
      <point x="505.32142857142856" y="660.0"/>
      <point x="351.7857142857143" y="660.0" type="curve" smooth="yes"/>
      <point x="118.85714285714286" y="660.0" type="line"/>
      <point x="115.85714285714286" y="644.0" type="line"/>
      <point x="185.57142857142858" y="603.6428571428571" type="line"/>
      <point x="89.57142857142857" y="56.35714285714286" type="line"/>
      <point x="5.857142857142857" y="16.0" type="line"/>
    </contour>
  </outline>
</glyph>
<glyph name="Q" format="2">
  <advance width="768.3214285714286"/>
  <unicode hex="0051"/>
  <outline>
    <contour>
      <point x="333.25" y="-10.0" type="curve" smooth="yes"/>
      <point x="555.2857142857142" y="-10.0"/>
      <point x="711.8928571428571" y="179.14285714285714"/>
      <point x="711.8928571428571" y="380.14285714285717" type="curve" smooth="yes"/>
      <point x="711.8928571428571" y="551.7142857142857"/>
      <point x="604.0714285714286" y="670.8214285714286"/>
      <point x="434.07142857142856" y="670.8214285714286" type="curve" smooth="yes"/>
      <point x="218.28571428571428" y="670.8214285714286"/>
      <point x="56.42857142857143" y="484.9642857142857"/>
      <point x="56.42857142857143" y="280.0357142857143" type="curve" smooth="yes"/>
      <point x="56.42857142857143" y="108.28571428571429"/>
      <point x="163.89285714285714" y="-10.0"/>
    </contour>
    <contour>
      <point x="361.32142857142856" y="38.714285714285715" type="curve" smooth="yes"/>
      <point x="241.64285714285714" y="38.714285714285715"/>
      <point x="163.5" y="138.96428571428572"/>
      <point x="163.5" y="283.60714285714283" type="curve" smooth="yes"/>
      <point x="163.5" y="472.10714285714283"/>
      <point x="267.0" y="623.5714285714286"/>
      <point x="410.4642857142857" y="623.5714285714286" type="curve" smooth="yes"/>
      <point x="530.1071428571429" y="623.5714285714286"/>
      <point x="605.6428571428571" y="523.5"/>
      <point x="605.6428571428571" y="378.2142857142857" type="curve" smooth="yes"/>
      <point x="605.6428571428571" y="194.28571428571428"/>
      <point x="505.3928571428571" y="38.714285714285715"/>
    </contour>
    <contour>
      <point x="603.7857142857143" y="-149.0" type="curve" smooth="yes"/>
      <point x="651.5" y="-149.0"/>
      <point x="696.7857142857143" y="-137.17857142857142"/>
      <point x="726.7857142857143" y="-122.0" type="curve"/>
      <point x="730.8571428571429" y="-103.67857142857143" type="line"/>
      <point x="718.5" y="-108.67857142857143"/>
      <point x="700.25" y="-112.03571428571429"/>
      <point x="681.1785714285714" y="-112.03571428571429" type="curve" smooth="yes"/>
      <point x="611.4285714285714" y="-112.03571428571429"/>
      <point x="563.8928571428571" y="-89.10714285714286"/>
      <point x="442.0" y="16.0" type="curve"/>
      <point x="299.85714285714283" y="16.0" type="line"/>
      <point x="434.32142857142856" y="-124.03571428571429"/>
      <point x="524.7857142857143" y="-149.0"/>
    </contour>
  </outline>
</glyph>
<glyph name="R" format="2">
  <advance width="642.0357142857142"/>
  <unicode hex="0052"/>
  <anchor x="350.10714285714283" y="710.0" name="top"/>
  <anchor x="296.7142857142857" y="0.0" name="bottom"/>
  <outline>
    <contour>
      <point x="2.8571428571428568" y="0.0" type="line"/>
      <point x="253.17857142857144" y="0.0" type="line"/>
      <point x="256.17857142857144" y="16.0" type="line"/>
      <point x="189.75" y="57.17857142857143" type="line"/>
      <point x="296.3928571428571" y="660.0" type="line"/>
      <point x="118.67857142857143" y="660.0" type="line"/>
      <point x="115.67857142857143" y="644.0" type="line"/>
      <point x="185.39285714285714" y="603.6428571428571" type="line"/>
      <point x="89.39285714285714" y="56.35714285714286" type="line"/>
      <point x="5.678571428571428" y="16.0" type="line"/>
    </contour>
    <contour>
      <point x="567.6071428571429" y="508.5357142857143" type="curve" smooth="yes"/>
      <point x="567.6071428571429" y="603.0714285714286"/>
      <point x="481.6071428571429" y="660.0"/>
      <point x="339.6428571428571" y="660.0" type="curve" smooth="yes"/>
      <point x="246.10714285714286" y="660.0" type="line"/>
      <point x="236.92857142857142" y="609.1071428571429" type="line"/>
      <point x="328.92857142857144" y="609.1071428571429" type="line" smooth="yes"/>
      <point x="411.25" y="609.1071428571429"/>
      <point x="460.67857142857144" y="566.8928571428571"/>
      <point x="460.67857142857144" y="494.89285714285717" type="curve" smooth="yes"/>
      <point x="460.67857142857144" y="420.64285714285717"/>
      <point x="407.39285714285717" y="355.4642857142857"/>
      <point x="317.2857142857143" y="355.4642857142857" type="curve"/>
      <point x="201.64285714285714" y="355.4642857142857" type="line"/>
      <point x="192.0" y="306.35714285714283" type="line"/>
      <point x="390.8928571428571" y="306.35714285714283" type="line"/>
      <point x="390.8928571428571" y="322.2857142857143" type="line"/>
      <point x="493.42857142857144" y="349.2857142857143"/>
      <point x="567.6071428571429" y="416.57142857142856"/>
    </contour>
    <contour>
      <point x="448.5" y="0.0" type="line"/>
      <point x="594.3928571428571" y="0.0" type="line"/>
      <point x="597.2142857142857" y="16.0" type="line"/>
      <point x="539.3214285714286" y="53.25" type="line"/>
      <point x="403.75" y="342.7857142857143" type="line"/>
      <point x="303.10714285714283" y="342.7857142857143" type="line"/>
    </contour>
  </outline>
</glyph>
<glyph name="S" format="2">
  <advance width="504.0"/>
  <unicode hex="0053"/>
  <anchor x="329.07142857142856" y="710.0" name="top"/>
  <anchor x="190.28571428571428" y="0.0" name="bottom"/>
  <outline>
    <contour>
      <point x="185.57142857142858" y="-10.0" type="curve" smooth="yes"/>
      <point x="315.25" y="-10.0"/>
      <point x="427.60714285714283" y="78.57142857142857"/>
      <point x="427.60714285714283" y="201.85714285714286" type="curve" smooth="yes"/>
      <point x="427.60714285714283" y="278.17857142857144"/>
      <point x="389.64285714285717" y="319.10714285714283"/>
      <point x="288.60714285714283" y="376.92857142857144" type="curve" smooth="yes"/>
      <point x="215.10714285714286" y="419.25"/>
      <point x="189.53571428571428" y="449.5357142857143"/>
      <point x="189.53571428571428" y="497.17857142857144" type="curve" smooth="yes"/>
      <point x="189.53571428571428" y="573.0"/>
      <point x="242.75" y="624.2142857142857"/>
      <point x="304.39285714285717" y="624.2142857142857" type="curve" smooth="yes"/>
      <point x="348.9642857142857" y="624.2142857142857"/>
      <point x="375.7142857142857" y="605.4642857142857"/>
      <point x="398.0" y="584.1785714285714" type="curve"/>
      <point x="439.1071428571429" y="466.92857142857144" type="line"/>
      <point x="455.4642857142857" y="466.92857142857144" type="line"/>
      <point x="473.1071428571429" y="626.9285714285714" type="line"/>
      <point x="427.82142857142856" y="654.4642857142857"/>
      <point x="380.7857142857143" y="670.0"/>
      <point x="320.89285714285717" y="670.0" type="curve" smooth="yes"/>
      <point x="206.5" y="670.0"/>
      <point x="99.07142857142857" y="582.0357142857143"/>
      <point x="99.07142857142857" y="467.7857142857143" type="curve" smooth="yes"/>
      <point x="99.07142857142857" y="399.82142857142856"/>
      <point x="131.71428571428572" y="356.42857142857144"/>
      <point x="206.71428571428572" y="313.35714285714283" type="curve" smooth="yes"/>
      <point x="301.57142857142856" y="259.32142857142856"/>
      <point x="331.92857142857144" y="229.28571428571428"/>
      <point x="331.92857142857144" y="174.39285714285714" type="curve" smooth="yes"/>
      <point x="331.92857142857144" y="91.03571428571429"/>
      <point x="281.14285714285717" y="33.964285714285715"/>
      <point x="191.42857142857142" y="33.964285714285715" type="curve" smooth="yes"/>
      <point x="151.35714285714286" y="33.964285714285715"/>
      <point x="116.42857142857143" y="49.5"/>
      <point x="83.46428571428571" y="81.75" type="curve"/>
      <point x="40.535714285714285" y="203.03571428571428" type="line"/>
      <point x="24.17857142857143" y="203.03571428571428" type="line"/>
      <point x="5.357142857142858" y="37.42857142857143" type="line"/>
      <point x="59.0" y="6.071428571428571"/>
      <point x="106.67857142857143" y="-10.0"/>
    </contour>
  </outline>
</glyph>
<glyph name="T" format="2">
  <advance width="643.3928571428571"/>
  <unicode hex="0054"/>
  <anchor x="394.39285714285717" y="710.0" name="top"/>
  <anchor x="268.57142857142856" y="0.0" name="bottom"/>
  <outline>
    <contour>
      <point x="123.35714285714286" y="0.0" type="line"/>
      <point x="415.9642857142857" y="0.0" type="line"/>
      <point x="418.9642857142857" y="16.0" type="line"/>
      <point x="330.07142857142856" y="56.35714285714286" type="line"/>
      <point x="428.89285714285717" y="609.1071428571429" type="line"/>
      <point x="574.6428571428571" y="609.1071428571429" type="line"/>
      <point x="614.4285714285714" y="452.82142857142856" type="line"/>
      <point x="630.4285714285714" y="452.82142857142856" type="line"/>
      <point x="666.9642857142857" y="660.0" type="line"/>
      <point x="105.35714285714286" y="660.0" type="line"/>
      <point x="69.64285714285714" y="452.82142857142856" type="line"/>
      <point x="85.64285714285714" y="452.82142857142856" type="line"/>
      <point x="179.5" y="609.1071428571429" type="line"/>
      <point x="327.7142857142857" y="609.1071428571429" type="line"/>
      <point x="228.89285714285714" y="56.35714285714286" type="line"/>
      <point x="127.17857142857143" y="16.0" type="line"/>
    </contour>
  </outline>
</glyph>
<glyph name="U" format="2">
  <advance width="776.5714285714286"/>
  <unicode hex="0055"/>
  <anchor x="470.42857142857144" y="710.0" name="top"/>
  <anchor x="366.0357142857143" y="0.0" name="right"/>
  <anchor x="344.0357142857143" y="0.0" name="bottom"/>
  <outline>
    <contour>
      <point x="343.25" y="-10.0" type="curve" smooth="yes"/>
      <point x="489.57142857142856" y="-10.0"/>
      <point x="597.5714285714286" y="65.35714285714286"/>
      <point x="632.0" y="264.2142857142857" type="curve" smooth="yes"/>
      <point x="691.3928571428571" y="604.6428571428571" type="line"/>
      <point x="774.4642857142857" y="644.0" type="line"/>
      <point x="777.4642857142857" y="660.0" type="line"/>
      <point x="543.6071428571429" y="660.0" type="line"/>
      <point x="539.7857142857143" y="644.0" type="line"/>
      <point x="626.1071428571429" y="605.6428571428571" type="line"/>
      <point x="562.0" y="239.39285714285714" type="line" smooth="yes"/>
      <point x="539.1785714285714" y="109.39285714285714"/>
      <point x="457.5357142857143" y="49.07142857142857"/>
      <point x="374.42857142857144" y="49.07142857142857" type="curve" smooth="yes"/>
      <point x="278.82142857142856" y="49.07142857142857"/>
      <point x="221.10714285714286" y="92.64285714285714"/>
      <point x="221.10714285714286" y="200.82142857142858" type="curve" smooth="yes"/>
      <point x="221.10714285714286" y="221.64285714285714"/>
      <point x="224.75" y="248.57142857142858"/>
      <point x="229.57142857142856" y="274.39285714285717" type="curve" smooth="yes"/>
      <point x="287.67857142857144" y="603.6428571428571" type="line"/>
      <point x="370.75" y="644.0" type="line"/>
      <point x="374.57142857142856" y="660.0" type="line"/>
      <point x="119.60714285714286" y="660.0" type="line"/>
      <point x="116.60714285714286" y="644.0" type="line"/>
      <point x="186.5" y="603.6428571428571" type="line"/>
      <point x="127.10714285714286" y="264.2142857142857" type="line" smooth="yes"/>
      <point x="122.75" y="237.60714285714286"/>
      <point x="119.75" y="213.35714285714286"/>
      <point x="119.75" y="190.46428571428572" type="curve" smooth="yes"/>
      <point x="119.75" y="49.464285714285715"/>
      <point x="210.25" y="-10.0"/>
    </contour>
  </outline>
</glyph>
<glyph name="V" format="2">
  <advance width="697.1428571428571"/>
  <unicode hex="0056"/>
  <outline>
    <contour>
      <point x="276.5357142857143" y="-5.0" type="line"/>
      <point x="327.75" y="-5.0" type="line"/>
      <point x="681.3928571428571" y="632.0" type="line"/>
      <point x="641.1428571428571" y="596.25" type="line"/>
      <point x="728.8571428571429" y="644.0" type="line"/>
      <point x="732.8571428571429" y="660.0" type="line"/>
      <point x="533.75" y="660.0" type="line"/>
      <point x="530.75" y="644.0" type="line"/>
      <point x="617.8928571428571" y="606.0" type="line"/>
      <point x="621.1428571428571" y="632.0" type="line"/>
      <point x="317.2142857142857" y="71.71428571428572" type="line"/>
      <point x="377.4642857142857" y="139.78571428571428" type="line"/>
      <point x="325.0357142857143" y="139.78571428571428" type="line"/>
      <point x="361.92857142857144" y="71.71428571428572" type="line"/>
      <point x="243.46428571428572" y="632.0" type="line"/>
      <point x="226.46428571428572" y="601.4642857142857" type="line"/>
      <point x="335.1428571428571" y="644.0" type="line"/>
      <point x="338.32142857142856" y="660.0" type="line"/>
      <point x="88.28571428571429" y="660.0" type="line"/>
      <point x="84.28571428571429" y="644.0" type="line"/>
      <point x="179.39285714285714" y="587.8214285714286" type="line"/>
      <point x="138.75" y="632.0" type="line"/>
    </contour>
  </outline>
</glyph>
<glyph name="W" format="2">
  <advance width="948.25"/>
  <unicode hex="0057"/>
  <anchor x="574.7857142857143" y="710.0" name="top"/>
  <outline>
    <contour>
      <point x="219.92857142857142" y="-5.0" type="line"/>
      <point x="265.39285714285717" y="-5.0" type="line"/>
      <point x="540.6428571428571" y="536.2142857142857" type="line"/>
      <point x="491.32142857142856" y="483.82142857142856" type="line"/>
      <point x="543.5714285714286" y="483.82142857142856" type="line"/>
      <point x="511.14285714285717" y="536.2142857142857" type="line"/>
      <point x="606.6071428571429" y="-5.0" type="line"/>
      <point x="651.25" y="-5.0" type="line"/>
      <point x="938.9285714285714" y="632.0" type="line"/>
      <point x="906.75" y="600.1428571428571" type="line"/>
      <point x="997.3928571428571" y="644.0" type="line"/>
      <point x="1000.3928571428571" y="660.0" type="line"/>
      <point x="791.4642857142857" y="660.0" type="line"/>
      <point x="788.4642857142857" y="644.0" type="line"/>
      <point x="885.3928571428571" y="602.4642857142857" type="line"/>
      <point x="877.8571428571429" y="632.0" type="line"/>
      <point x="660.1785714285714" y="131.14285714285714" type="line"/>
      <point x="701.8214285714286" y="173.10714285714286" type="line"/>
      <point x="651.3571428571429" y="173.10714285714286" type="line"/>
      <point x="680.1428571428571" y="131.14285714285714" type="line"/>
      <point x="589.7857142857143" y="665.0" type="line"/>
      <point x="545.3214285714286" y="665.0" type="line"/>
      <point x="278.67857142857144" y="125.39285714285714" type="line"/>
      <point x="323.3928571428571" y="171.75" type="line"/>
      <point x="272.39285714285717" y="171.75" type="line"/>
      <point x="300.10714285714283" y="125.39285714285714" type="line"/>
      <point x="247.10714285714286" y="632.0" type="line"/>
      <point x="219.57142857142856" y="595.4642857142857" type="line"/>
      <point x="339.5" y="644.0" type="line"/>
      <point x="342.5" y="660.0" type="line"/>
      <point x="88.10714285714286" y="660.0" type="line"/>
      <point x="84.28571428571429" y="644.0" type="line"/>
      <point x="169.53571428571428" y="595.4642857142857" type="line"/>
      <point x="146.75" y="632.0" type="line"/>
    </contour>
  </outline>
</glyph>
<glyph name="X" format="2">
  <advance width="705.3928571428571"/>
  <unicode hex="0058"/>
  <outline>
    <contour>
      <point x="369.5" y="0.0" type="line"/>
      <point x="627.0357142857143" y="0.0" type="line"/>
      <point x="630.0357142857143" y="16.0" type="line"/>
      <point x="534.3928571428571" y="75.35714285714286" type="line"/>
      <point x="587.0357142857142" y="22.821428571428573" type="line"/>
      <point x="264.60714285714283" y="605.4642857142857" type="line"/>
      <point x="265.42857142857144" y="610.4642857142857" type="line"/>
      <point x="356.1071428571429" y="644.0" type="line"/>
      <point x="359.1071428571429" y="660.0" type="line"/>
      <point x="106.39285714285714" y="660.0" type="line"/>
      <point x="103.39285714285714" y="644.0" type="line"/>
      <point x="198.39285714285714" y="585.0" type="line"/>
      <point x="145.57142857142858" y="632.0" type="line"/>
      <point x="457.82142857142856" y="54.35714285714286" type="line"/>
      <point x="457.0" y="50.35714285714286" type="line"/>
      <point x="372.5" y="16.0" type="line"/>
    </contour>
    <contour>
      <point x="-28.75" y="0.0" type="line"/>
      <point x="192.78571428571428" y="0.0" type="line"/>
      <point x="195.78571428571428" y="16.0" type="line"/>
      <point x="122.03571428571428" y="50.89285714285714" type="line"/>
      <point x="122.75" y="54.89285714285714" type="line"/>
      <point x="350.7142857142857" y="306.42857142857144" type="line"/>
      <point x="323.5" y="348.82142857142856" type="line"/>
      <point x="34.964285714285715" y="36.357142857142854" type="line"/>
      <point x="82.53571428571428" y="67.82142857142857" type="line"/>
      <point x="-24.92857142857143" y="16.0" type="line"/>
    </contour>
    <contour>
      <point x="719.8928571428571" y="644.0" type="line"/>
      <point x="722.8928571428571" y="660.0" type="line"/>
      <point x="515.3928571428571" y="660.0" type="line"/>
      <point x="512.3928571428571" y="644.0" type="line"/>
      <point x="581.3928571428571" y="609.4642857142857" type="line"/>
      <point x="581.2142857142857" y="605.4642857142857" type="line"/>
      <point x="369.0357142857143" y="369.7142857142857" type="line"/>
      <point x="393.0" y="324.7857142857143" type="line"/>
      <point x="676.0" y="631.6428571428571" type="line"/>
      <point x="598.8928571428571" y="581.0" type="line"/>
    </contour>
  </outline>
</glyph>
<glyph name="Z" format="2">
  <advance width="615.8571428571429"/>
  <unicode hex="005A"/>
  <anchor x="380.39285714285717" y="710.0" name="top"/>
  <anchor x="267.92857142857144" y="0.0" name="bottom"/>
  <outline>
    <contour>
      <point x="26.964285714285715" y="0.0" type="line"/>
      <point x="482.7142857142857" y="0.0" type="line"/>
      <point x="518.3214285714286" y="198.60714285714286" type="line"/>
      <point x="502.32142857142856" y="198.60714285714286" type="line"/>
      <point x="412.5" y="52.67857142857143" type="line"/>
      <point x="126.75" y="52.67857142857143" type="line"/>
      <point x="130.03571428571428" y="16.0" type="line"/>
      <point x="581.8214285714286" y="624.6428571428571" type="line"/>
      <point x="587.8214285714286" y="660.0" type="line"/>
      <point x="153.07142857142858" y="660.0" type="line"/>
      <point x="119.46428571428572" y="471.39285714285717" type="line"/>
      <point x="135.46428571428572" y="471.39285714285717" type="line"/>
      <point x="223.75" y="609.1071428571429" type="line"/>
      <point x="482.75" y="609.1071428571429" type="line"/>
      <point x="480.2857142857143" y="639.7142857142857" type="line"/>
      <point x="32.964285714285715" y="35.35714285714286" type="line"/>
    </contour>
  </outline>
</glyph>
<glyph name="bracketleft" format="2">
  <advance width="256.25"/>
  <unicode hex="005B"/>
  <outline>
    <contour>
      <point x="8.571428571428571" y="-150.0" type="line"/>
      <point x="70.46428571428572" y="-150.0" type="line"/>
      <point x="219.89285714285714" y="740.0" type="line"/>
      <point x="158.82142857142858" y="740.0" type="line"/>
    </contour>
    <contour>
      <point x="160.82142857142858" y="740.0" type="line"/>
      <point x="156.82142857142858" y="717.0" type="line"/>
      <point x="325.64285714285717" y="717.0" type="line"/>
      <point x="329.64285714285717" y="740.0" type="line"/>
    </contour>
    <contour>
      <point x="10.571428571428571" y="-150.0" type="line"/>
      <point x="179.39285714285714" y="-150.0" type="line"/>
      <point x="183.39285714285714" y="-127.0" type="line"/>
      <point x="14.571428571428571" y="-127.0" type="line"/>
    </contour>
  </outline>
</glyph>
<glyph name="backslash" format="2">
  <advance width="328.0"/>
  <unicode hex="005C"/>
  <outline>
    <contour>
      <point x="220.0" y="-120.0" type="line"/>
      <point x="268.0" y="-120.0" type="line"/>
      <point x="108.0" y="750.0" type="line"/>
      <point x="60.0" y="750.0" type="line"/>
    </contour>
  </outline>
</glyph>
<glyph name="bracketright" format="2">
  <advance width="256.25"/>
  <unicode hex="005D"/>
  <outline>
    <contour>
      <point x="46.714285714285715" y="-150.0" type="line"/>
      <point x="107.78571428571428" y="-150.0" type="line"/>
      <point x="258.0357142857143" y="740.0" type="line"/>
      <point x="196.14285714285714" y="740.0" type="line"/>
    </contour>
    <contour>
      <point x="-63.035714285714285" y="-150.0" type="line"/>
      <point x="105.78571428571428" y="-150.0" type="line"/>
      <point x="109.78571428571428" y="-127.0" type="line"/>
      <point x="-59.035714285714285" y="-127.0" type="line"/>
    </contour>
    <contour>
      <point x="83.21428571428571" y="717.0" type="line"/>
      <point x="252.03571428571428" y="717.0" type="line"/>
      <point x="256.0357142857143" y="740.0" type="line"/>
      <point x="87.21428571428571" y="740.0" type="line"/>
    </contour>
  </outline>
</glyph>
<glyph name="asciicircum" format="2">
  <advance width="517.8571428571429"/>
  <unicode hex="005E"/>
  <outline>
    <contour>
      <point x="35.64285714285714" y="250.0" type="line"/>
      <point x="92.96428571428572" y="250.0" type="line"/>
      <point x="338.07142857142856" y="640.0" type="line"/>
      <point x="301.14285714285717" y="640.0" type="line"/>
      <point x="409.07142857142856" y="250.0" type="line"/>
      <point x="462.2142857142857" y="250.0" type="line"/>
      <point x="346.2857142857143" y="670.0" type="line"/>
      <point x="298.75" y="670.0" type="line"/>
    </contour>
  </outline>
</glyph>
<glyph name="a" format="2">
  <advance width="516.8214285714286"/>
  <unicode hex="0061"/>
  <anchor x="314.39285714285717" y="510.0" name="top"/>
  <anchor x="416.82142857142856" y="0.0" name="right"/>
  <anchor x="242.28571428571428" y="0.0" name="bottom"/>
  <outline>
    <contour>
      <point x="134.21428571428572" y="-10.0" type="curve" smooth="yes"/>
      <point x="195.57142857142858" y="-10.0"/>
      <point x="249.17857142857142" y="34.07142857142857"/>
      <point x="301.32142857142856" y="111.25" type="curve"/>
      <point x="332.64285714285717" y="111.25" type="line"/>
      <point x="332.64285714285717" y="192.85714285714286" type="line"/>
      <point x="299.7142857142857" y="136.14285714285714"/>
      <point x="244.85714285714286" y="63.67857142857143"/>
      <point x="191.57142857142856" y="63.67857142857143" type="curve" smooth="yes"/>
      <point x="149.03571428571428" y="63.67857142857143"/>
      <point x="136.75" y="97.35714285714286"/>
      <point x="136.75" y="168.96428571428572" type="curve" smooth="yes"/>
      <point x="136.75" y="297.14285714285717"/>
      <point x="192.42857142857142" y="420.82142857142856"/>
      <point x="274.32142857142856" y="420.82142857142856" type="curve" smooth="yes"/>
      <point x="311.39285714285717" y="420.82142857142856"/>
      <point x="333.7857142857143" y="402.32142857142856"/>
      <point x="357.75" y="368.32142857142856" type="curve"/>
      <point x="353.85714285714283" y="393.4642857142857" type="line"/>
      <point x="302.2857142857143" y="99.89285714285714" type="line" smooth="yes"/>
      <point x="290.0357142857143" y="31.5"/>
      <point x="311.14285714285717" y="-10.0"/>
      <point x="363.67857142857144" y="-10.0" type="curve" smooth="yes"/>
      <point x="415.67857142857144" y="-10.0"/>
      <point x="461.2142857142857" y="36.10714285714286"/>
      <point x="499.67857142857144" y="135.75" type="curve"/>
      <point x="485.07142857142856" y="141.92857142857142" type="line"/>
      <point x="461.07142857142856" y="90.39285714285714"/>
      <point x="434.67857142857144" y="67.64285714285714"/>
      <point x="412.57142857142856" y="67.64285714285714" type="curve" smooth="yes"/>
      <point x="394.92857142857144" y="67.64285714285714"/>
      <point x="390.57142857142856" y="84.0"/>
      <point x="397.0357142857143" y="121.14285714285714" type="curve" smooth="yes"/>
      <point x="457.32142857142856" y="460.0" type="line"/>
      <point x="433.92857142857144" y="460.0" type="line"/>
      <point x="375.60714285714283" y="428.07142857142856" type="line"/>
      <point x="418.17857142857144" y="419.57142857142856" type="line"/>
      <point x="397.35714285714283" y="443.2142857142857"/>
      <point x="353.0357142857143" y="461.7857142857143"/>
      <point x="305.2857142857143" y="461.7857142857143" type="curve" smooth="yes"/>
      <point x="168.67857142857142" y="461.7857142857143"/>
      <point x="43.964285714285715" y="298.5357142857143"/>
      <point x="43.964285714285715" y="125.67857142857143" type="curve" smooth="yes"/>
      <point x="43.964285714285715" y="36.0"/>
      <point x="80.67857142857143" y="-10.0"/>
    </contour>
  </outline>
</glyph>
<glyph name="b" format="2">
  <advance width="499.25"/>
  <unicode hex="0062"/>
  <outline>
    <contour>
      <point x="200.42857142857142" y="-10.0" type="curve" smooth="yes"/>
      <point x="337.0357142857143" y="-10.0"/>
      <point x="452.82142857142856" y="153.07142857142858"/>
      <point x="452.82142857142856" y="321.82142857142856" type="curve" smooth="yes"/>
      <point x="452.82142857142856" y="414.0"/>
      <point x="415.2142857142857" y="461.7857142857143"/>
      <point x="360.25" y="461.7857142857143" type="curve" smooth="yes"/>
      <point x="289.2142857142857" y="461.7857142857143"/>
      <point x="242.39285714285714" y="406.2857142857143"/>
      <point x="197.0" y="342.14285714285717" type="curve"/>
      <point x="163.96428571428572" y="342.14285714285717" type="line"/>
      <point x="163.96428571428572" y="260.17857142857144" type="line"/>
      <point x="208.14285714285714" y="337.6428571428571"/>
      <point x="263.7142857142857" y="388.1071428571429"/>
      <point x="305.0357142857143" y="388.1071428571429" type="curve" smooth="yes"/>
      <point x="346.0" y="388.1071428571429"/>
      <point x="360.92857142857144" y="357.92857142857144"/>
      <point x="360.92857142857144" y="284.42857142857144" type="curve" smooth="yes"/>
      <point x="360.92857142857144" y="140.25"/>
      <point x="297.42857142857144" y="29.892857142857142"/>
      <point x="223.17857142857142" y="29.892857142857142" type="curve" smooth="yes"/>
      <point x="189.96428571428572" y="29.892857142857142"/>
      <point x="167.92857142857142" y="46.42857142857143"/>
      <point x="140.92857142857144" y="87.92857142857143" type="curve"/>
      <point x="142.57142857142856" y="60.464285714285715" type="line"/>
      <point x="262.92857142857144" y="750.0" type="line"/>
      <point x="259.92857142857144" y="750.0" type="line"/>
      <point x="82.46428571428572" y="718.2142857142857" type="line"/>
      <point x="82.46428571428572" y="710.4285714285714" type="line"/>
      <point x="158.03571428571428" y="676.6071428571429" type="line"/>
      <point x="38.75" y="-8.214285714285714" type="line"/>
      <point x="46.535714285714285" y="-8.214285714285714" type="line"/>
      <point x="124.03571428571428" y="26.392857142857146" type="line"/>
      <point x="79.32142857142857" y="35.42857142857143" type="line"/>
      <point x="102.10714285714286" y="9.821428571428571"/>
      <point x="148.75" y="-10.0"/>
    </contour>
  </outline>
</glyph>
<glyph name="c" format="2">
  <advance width="430.92857142857144"/>
  <unicode hex="0063"/>
  <anchor x="306.0" y="510.0" name="top"/>
  <anchor x="195.0" y="0.0" name="bottom"/>
  <outline>
    <contour>
      <point x="197.64285714285714" y="-10.0" type="curve" smooth="yes"/>
      <point x="271.89285714285717" y="-10.0"/>
      <point x="332.2857142857143" y="45.07142857142857"/>
      <point x="386.9642857142857" y="142.14285714285714" type="curve"/>
      <point x="375.5357142857143" y="151.92857142857142" type="line"/>
      <point x="373.35714285714283" y="151.92857142857142" type="line"/>
      <point x="316.0357142857143" y="77.03571428571429"/>
      <point x="273.7142857142857" y="64.32142857142857"/>
      <point x="238.64285714285714" y="64.32142857142857" type="curve" smooth="yes"/>
      <point x="169.92857142857144" y="64.32142857142857"/>
      <point x="136.25" y="115.35714285714286"/>
      <point x="136.25" y="204.0" type="curve" smooth="yes"/>
      <point x="136.25" y="312.5357142857143"/>
      <point x="197.28571428571428" y="417.60714285714283"/>
      <point x="260.25" y="417.60714285714283" type="curve" smooth="yes"/>
      <point x="298.75" y="417.60714285714283"/>
      <point x="313.9642857142857" y="402.9642857142857"/>
      <point x="335.9642857142857" y="368.64285714285717" type="curve" smooth="yes"/>
      <point x="356.32142857142856" y="336.7857142857143" type="line"/>
      <point x="363.14285714285717" y="336.7857142857143" type="line"/>
      <point x="396.9642857142857" y="358.7857142857143" type="line" smooth="yes"/>
      <point x="407.9642857142857" y="365.32142857142856"/>
      <point x="411.9642857142857" y="376.14285714285717"/>
      <point x="411.9642857142857" y="385.32142857142856" type="curve" smooth="yes"/>
      <point x="411.9642857142857" y="393.9642857142857"/>
      <point x="410.32142857142856" y="400.7857142857143"/>
      <point x="402.32142857142856" y="412.7857142857143" type="curve" smooth="yes"/>
      <point x="383.14285714285717" y="442.14285714285717"/>
      <point x="351.64285714285717" y="461.7857142857143"/>
      <point x="300.67857142857144" y="461.7857142857143" type="curve" smooth="yes"/>
      <point x="170.03571428571428" y="461.7857142857143"/>
      <point x="45.535714285714285" y="303.5357142857143"/>
      <point x="45.535714285714285" y="161.78571428571428" type="curve" smooth="yes"/>
      <point x="45.535714285714285" y="50.42857142857143"/>
      <point x="97.35714285714286" y="-10.0"/>
    </contour>
  </outline>
</glyph>
<glyph name="d" format="2">
  <advance width="523.9285714285714"/>
  <unicode hex="0064"/>
  <anchor x="629.6071428571429" y="740.0" name="right"/>
  <anchor x="236.10714285714286" y="0.0" name="bottom"/>
  <outline>
    <contour>
      <point x="136.67857142857142" y="-10.0" type="curve" smooth="yes"/>
      <point x="194.75" y="-10.0"/>
      <point x="245.89285714285714" y="27.5"/>
      <point x="303.7857142857143" y="111.25" type="curve"/>
      <point x="335.10714285714283" y="111.25" type="line"/>
      <point x="335.10714285714283" y="192.85714285714286" type="line"/>
      <point x="290.67857142857144" y="115.60714285714286"/>
      <point x="236.64285714285714" y="63.67857142857143"/>
      <point x="194.03571428571428" y="63.67857142857143" type="curve" smooth="yes"/>
      <point x="155.60714285714286" y="63.67857142857143"/>
      <point x="139.21428571428572" y="89.96428571428571"/>
      <point x="139.21428571428572" y="168.96428571428572" type="curve" smooth="yes"/>
      <point x="139.21428571428572" y="305.35714285714283"/>
      <point x="199.82142857142856" y="421.0"/>
      <point x="276.7857142857143" y="421.0" type="curve" smooth="yes"/>
      <point x="310.4642857142857" y="421.0"/>
      <point x="332.57142857142856" y="405.89285714285717"/>
      <point x="360.64285714285717" y="366.89285714285717" type="curve"/>
      <point x="356.32142857142856" y="393.4642857142857" type="line"/>
      <point x="304.75" y="99.89285714285714" type="line" smooth="yes"/>
      <point x="292.5" y="31.5"/>
      <point x="313.60714285714283" y="-10.0"/>
      <point x="366.14285714285717" y="-10.0" type="curve" smooth="yes"/>
      <point x="418.14285714285717" y="-10.0"/>
      <point x="463.67857142857144" y="36.10714285714286"/>
      <point x="502.1428571428571" y="135.75" type="curve"/>
      <point x="487.5357142857143" y="141.92857142857142" type="line"/>
      <point x="463.5357142857143" y="90.39285714285714"/>
      <point x="437.1428571428571" y="67.64285714285714"/>
      <point x="415.0357142857143" y="67.64285714285714" type="curve" smooth="yes"/>
      <point x="397.3928571428571" y="67.64285714285714"/>
      <point x="393.0357142857143" y="84.0"/>
      <point x="399.5" y="121.14285714285714" type="curve" smooth="yes"/>
      <point x="509.9642857142857" y="750.0" type="line"/>
      <point x="506.9642857142857" y="750.0" type="line"/>
      <point x="319.67857142857144" y="718.2142857142857" type="line"/>
      <point x="319.67857142857144" y="710.4285714285714" type="line"/>
      <point x="405.07142857142856" y="676.7857142857143" type="line"/>
      <point x="361.9642857142857" y="431.07142857142856" type="line"/>
      <point x="420.64285714285717" y="419.57142857142856" type="line"/>
      <point x="399.82142857142856" y="443.2142857142857"/>
      <point x="355.5" y="461.7857142857143"/>
      <point x="307.75" y="461.7857142857143" type="curve" smooth="yes"/>
      <point x="171.14285714285714" y="461.7857142857143"/>
      <point x="46.42857142857143" y="298.5357142857143"/>
      <point x="46.42857142857143" y="125.67857142857143" type="curve" smooth="yes"/>
      <point x="46.42857142857143" y="36.0"/>
      <point x="83.14285714285714" y="-10.0"/>
    </contour>
  </outline>
</glyph>
<glyph name="e" format="2">
  <advance width="441.92857142857144"/>
  <unicode hex="0065"/>
  <anchor x="282.14285714285717" y="0.0" name="right"/>
  <anchor x="205.5" y="0.0" name="bottom"/>
  <anchor x="310.9642857142857" y="510.0" name="top"/>
  <outline>
    <contour>
      <point x="197.39285714285714" y="-10.0" type="curve" smooth="yes"/>
      <point x="269.7142857142857" y="-10.0"/>
      <point x="339.67857142857144" y="47.357142857142854"/>
      <point x="384.5" y="126.53571428571429" type="curve"/>
      <point x="373.07142857142856" y="136.32142857142858" type="line"/>
      <point x="370.89285714285717" y="136.32142857142858" type="line"/>
      <point x="325.89285714285717" y="86.07142857142857"/>
      <point x="286.0357142857143" y="64.32142857142857"/>
      <point x="242.75" y="64.32142857142857" type="curve" smooth="yes"/>
      <point x="172.39285714285714" y="64.32142857142857"/>
      <point x="137.07142857142856" y="113.71428571428572"/>
      <point x="137.07142857142856" y="192.5" type="curve" smooth="yes"/>
      <point x="137.07142857142856" y="326.39285714285717"/>
      <point x="194.82142857142856" y="425.0"/>
      <point x="276.25" y="425.0" type="curve" smooth="yes"/>
      <point x="307.82142857142856" y="425.0"/>
      <point x="323.5" y="405.7142857142857"/>
      <point x="323.5" y="380.85714285714283" type="curve" smooth="yes"/>
      <point x="323.5" y="321.42857142857144"/>
      <point x="278.39285714285717" y="290.67857142857144"/>
      <point x="124.28571428571428" y="262.25" type="curve"/>
      <point x="121.5" y="226.96428571428572" type="line"/>
      <point x="346.7142857142857" y="265.35714285714283"/>
      <point x="407.2857142857143" y="317.2142857142857"/>
      <point x="407.2857142857143" y="383.89285714285717" type="curve" smooth="yes"/>
      <point x="407.2857142857143" y="425.7857142857143"/>
      <point x="372.57142857142856" y="461.7857142857143"/>
      <point x="305.0357142857143" y="461.7857142857143" type="curve" smooth="yes"/>
      <point x="158.14285714285714" y="461.7857142857143"/>
      <point x="45.535714285714285" y="306.7857142857143"/>
      <point x="45.535714285714285" y="152.10714285714286" type="curve" smooth="yes"/>
      <point x="45.535714285714285" y="52.60714285714286"/>
      <point x="93.25" y="-10.0"/>
    </contour>
  </outline>
</glyph>
<glyph name="g" format="2">
  <advance width="450.39285714285717"/>
  <unicode hex="0067"/>
  <anchor x="276.35714285714283" y="510.0" name="top"/>
  <outline>
    <contour>
      <point x="214.42857142857144" y="153.89285714285714" type="curve" smooth="yes"/>
      <point x="332.4642857142857" y="153.89285714285714"/>
      <point x="407.6071428571429" y="252.03571428571428"/>
      <point x="407.6071428571429" y="329.0" type="curve" smooth="yes"/>
      <point x="407.6071428571429" y="365.5357142857143"/>
      <point x="394.35714285714283" y="399.82142857142856"/>
      <point x="371.2142857142857" y="416.9642857142857" type="curve"/>
      <point x="348.5" y="440.9642857142857" type="line"/>
      <point x="327.89285714285717" y="453.14285714285717"/>
      <point x="292.89285714285717" y="461.7857142857143"/>
      <point x="264.2142857142857" y="461.7857142857143" type="curve" smooth="yes"/>
      <point x="153.78571428571428" y="461.7857142857143"/>
      <point x="72.17857142857143" y="367.2857142857143"/>
      <point x="72.17857142857143" y="282.2142857142857" type="curve" smooth="yes"/>
      <point x="72.17857142857143" y="208.39285714285714"/>
      <point x="126.0" y="153.89285714285714"/>
    </contour>
    <contour>
      <point x="231.0" y="193.42857142857144" type="curve" smooth="yes"/>
      <point x="185.32142857142856" y="193.42857142857144"/>
      <point x="158.25" y="231.64285714285714"/>
      <point x="158.25" y="288.2142857142857" type="curve" smooth="yes"/>
      <point x="158.25" y="354.42857142857144"/>
      <point x="194.46428571428572" y="422.7857142857143"/>
      <point x="251.35714285714286" y="422.7857142857143" type="curve" smooth="yes"/>
      <point x="295.57142857142856" y="422.7857142857143"/>
      <point x="321.64285714285717" y="386.75"/>
      <point x="321.64285714285717" y="329.4642857142857" type="curve" smooth="yes"/>
      <point x="321.64285714285717" y="266.07142857142856"/>
      <point x="283.7857142857143" y="193.42857142857144"/>
    </contour>
    <contour>
      <point x="478.5357142857143" y="407.7857142857143" type="line"/>
      <point x="478.5357142857143" y="451.7857142857143" type="line"/>
      <point x="315.17857142857144" y="451.7857142857143" type="line"/>
      <point x="315.17857142857144" y="391.9642857142857" type="line"/>
      <point x="369.4642857142857" y="391.9642857142857" type="line"/>
      <point x="388.82142857142856" y="407.7857142857143" type="line"/>
    </contour>
    <contour>
      <point x="162.03571428571428" y="-240.0" type="curve" smooth="yes"/>
      <point x="317.8571428571429" y="-240.0"/>
      <point x="396.1428571428571" y="-152.14285714285714"/>
      <point x="396.1428571428571" y="-70.35714285714286" type="curve" smooth="yes"/>
      <point x="396.1428571428571" y="80.5"/>
      <point x="113.85714285714286" y="26.535714285714292"/>
      <point x="113.85714285714286" y="108.39285714285714" type="curve" smooth="yes"/>
      <point x="113.85714285714286" y="133.5"/>
      <point x="129.28571428571428" y="159.07142857142858"/>
      <point x="167.92857142857142" y="171.53571428571428" type="curve"/>
      <point x="167.92857142857142" y="185.46428571428572" type="line"/>
      <point x="127.5" y="185.46428571428572" type="line"/>
      <point x="127.5" y="173.92857142857142" type="line"/>
      <point x="61.214285714285715" y="140.10714285714286" type="line"/>
      <point x="40.60714285714286" y="117.57142857142857"/>
      <point x="33.464285714285715" y="99.53571428571429"/>
      <point x="33.464285714285715" y="69.75" type="curve" smooth="yes"/>
      <point x="33.464285714285715" y="-60.10714285714286"/>
      <point x="309.57142857142856" y="17.428571428571427"/>
      <point x="309.57142857142856" y="-106.85714285714286" type="curve" smooth="yes"/>
      <point x="309.57142857142856" y="-161.35714285714286"/>
      <point x="266.92857142857144" y="-208.28571428571428"/>
      <point x="178.85714285714286" y="-208.28571428571428" type="curve" smooth="yes"/>
      <point x="109.92857142857143" y="-208.28571428571428"/>
      <point x="66.78571428571428" y="-174.39285714285714"/>
      <point x="66.78571428571428" y="-126.64285714285714" type="curve" smooth="yes"/>
      <point x="66.78571428571428" y="-86.28571428571428"/>
      <point x="77.14285714285714" y="-47.25"/>
      <point x="142.39285714285714" y="-7.357142857142858" type="curve"/>
      <point x="142.39285714285714" y="3.3571428571428577" type="line"/>
      <point x="104.21428571428572" y="3.3571428571428577" type="line"/>
      <point x="104.21428571428572" y="-8.178571428571429" type="line"/>
      <point x="28.32142857142857" y="-50.67857142857143" type="line"/>
      <point x="-0.5480460218575001" y="-80.26233173616785"/>
      <point x="-11.964285714285715" y="-99.593406593375"/>
      <point x="-11.964285714285715" y="-138.89285714285714" type="curve" smooth="yes"/>
      <point x="-11.964285714285715" y="-196.713578501"/>
      <point x="44.10714285714286" y="-240.0"/>
    </contour>
  </outline>
</glyph>
<glyph name="k" format="2">
  <advance width="481.64285714285717"/>
  <unicode hex="006B"/>
  <anchor x="196.71428571428572" y="0.0" name="bottom"/>
  <outline>
    <contour>
      <point x="28.214285714285715" y="0.0" type="line"/>
      <point x="119.75" y="0.0" type="line"/>
      <point x="251.39285714285714" y="749.1785714285714" type="line"/>
      <point x="248.39285714285714" y="749.1785714285714" type="line"/>
      <point x="70.10714285714286" y="717.3928571428571" type="line"/>
      <point x="70.10714285714286" y="709.6071428571429" type="line"/>
      <point x="146.5" y="674.9642857142857" type="line"/>
    </contour>
    <contour>
      <point x="349.25" y="-10.0" type="curve" smooth="yes"/>
      <point x="399.0" y="-10.0"/>
      <point x="428.39285714285717" y="31.071428571428573"/>
      <point x="467.0" y="135.57142857142856" type="curve"/>
      <point x="452.39285714285717" y="141.39285714285714" type="line"/>
      <point x="430.5357142857143" y="90.21428571428572"/>
      <point x="413.8928571428571" y="67.64285714285714"/>
      <point x="390.9642857142857" y="67.64285714285714" type="curve" smooth="yes"/>
      <point x="372.8774131275" y="67.64285714285714"/>
      <point x="361.5218216155357" y="81.05796741892857"/>
      <point x="343.10714285714283" y="113.64285714285714" type="curve" smooth="yes"/>
      <point x="239.96428571428572" y="303.2857142857143" type="line"/>
      <point x="216.07142857142856" y="270.9642857142857" type="line"/>
      <point x="324.42857142857144" y="363.89285714285717" type="line" smooth="yes"/>
      <point x="343.1795517769643" y="379.38455838839286"/>
      <point x="360.67808219178573" y="383.42857142857144"/>
      <point x="375.4642857142857" y="383.42857142857144" type="curve" smooth="yes"/>
      <point x="394.6521739130357" y="383.42857142857144"/>
      <point x="403.78863448553574" y="381.6160954246429"/>
      <point x="411.39285714285717" y="378.3571428571429" type="curve" smooth="yes"/>
      <point x="428.67857142857144" y="371.5357142857143" type="line"/>
      <point x="433.5" y="374.82142857142856" type="line"/>
      <point x="453.17857142857144" y="423.7857142857143" type="line" smooth="yes"/>
      <point x="458.17857142857144" y="435.7857142857143"/>
      <point x="452.17857142857144" y="445.7857142857143"/>
      <point x="443.17857142857144" y="452.7857142857143" type="curve" smooth="yes"/>
      <point x="436.17857142857144" y="457.7857142857143"/>
      <point x="425.17857142857144" y="461.7857142857143"/>
      <point x="409.17857142857144" y="461.7857142857143" type="curve" smooth="yes"/>
      <point x="365.5357142857143" y="461.7857142857143"/>
      <point x="313.60714285714283" y="411.25"/>
      <point x="168.14285714285714" y="258.7857142857143" type="curve"/>
      <point x="168.14285714285714" y="253.78571428571428" type="line"/>
      <point x="257.7857142857143" y="79.71428571428571" type="line" smooth="yes"/>
      <point x="284.17857142857144" y="29.357142857142854"/>
      <point x="298.85714285714283" y="-10.0"/>
    </contour>
  </outline>
</glyph>
<glyph name="l" format="2">
  <advance width="266.92857142857144"/>
  <unicode hex="006C"/>
  <anchor x="211.35714285714286" y="765.0" name="top"/>
  <anchor x="372.67857142857144" y="740.0" name="right"/>
  <anchor x="277.5" y="300.0" name="mid"/>
  <anchor x="100.85714285714286" y="0.0" name="bottom"/>
  <outline>
    <contour>
      <point x="108.85714285714286" y="-10.0" type="curve" smooth="yes"/>
      <point x="160.85714285714286" y="-10.0"/>
      <point x="206.39285714285714" y="36.10714285714286"/>
      <point x="244.85714285714286" y="135.75" type="curve"/>
      <point x="230.25" y="141.92857142857142" type="line"/>
      <point x="206.25" y="90.39285714285714"/>
      <point x="179.85714285714286" y="67.64285714285714"/>
      <point x="157.75" y="67.64285714285714" type="curve" smooth="yes"/>
      <point x="140.10714285714286" y="67.64285714285714"/>
      <point x="135.75" y="84.0"/>
      <point x="142.21428571428572" y="121.14285714285714" type="curve" smooth="yes"/>
      <point x="253.03571428571428" y="750.0" type="line"/>
      <point x="250.03571428571428" y="750.0" type="line"/>
      <point x="64.35714285714286" y="718.2142857142857" type="line"/>
      <point x="64.35714285714286" y="710.4285714285714" type="line"/>
      <point x="148.14285714285714" y="676.6071428571429" type="line"/>
      <point x="47.464285714285715" y="99.89285714285714" type="line" smooth="yes"/>
      <point x="35.85714285714286" y="31.5"/>
      <point x="56.32142857142857" y="-10.0"/>
    </contour>
  </outline>
</glyph>
<glyph name="m" format="2">
  <advance width="785.3214285714286"/>
  <unicode hex="006D"/>
  <anchor x="343.25" y="0.0" name="bottom"/>
  <outline>
    <contour>
      <point x="40.67857142857143" y="0.0" type="line"/>
      <point x="132.21428571428572" y="0.0" type="line"/>
      <point x="192.21428571428572" y="349.7857142857143" type="line"/>
      <point x="192.21428571428572" y="461.7857142857143" type="line"/>
      <point x="189.21428571428572" y="461.7857142857143" type="line"/>
      <point x="34.714285714285715" y="430.0" type="line"/>
      <point x="34.714285714285715" y="422.2142857142857" type="line"/>
      <point x="109.14285714285714" y="387.57142857142856" type="line"/>
    </contour>
    <contour>
      <point x="297.39285714285717" y="0.0" type="line"/>
      <point x="389.1071428571429" y="0.0" type="line"/>
      <point x="444.92857142857144" y="313.7857142857143" type="line" smooth="yes"/>
      <point x="460.92857142857144" y="403.9642857142857"/>
      <point x="421.3928571428571" y="461.7857142857143"/>
      <point x="359.07142857142856" y="461.7857142857143" type="curve" smooth="yes"/>
      <point x="294.60714285714283" y="461.7857142857143"/>
      <point x="265.32142857142856" y="435.14285714285717"/>
      <point x="196.75" y="358.75" type="curve"/>
      <point x="177.21428571428572" y="358.75" type="line"/>
      <point x="177.21428571428572" y="303.0357142857143" type="line"/>
      <point x="207.78571428571428" y="337.7857142857143"/>
      <point x="253.96428571428572" y="394.0"/>
      <point x="298.57142857142856" y="394.0" type="curve" smooth="yes"/>
      <point x="347.82142857142856" y="394.0"/>
      <point x="360.39285714285717" y="354.2142857142857"/>
      <point x="352.92857142857144" y="310.42857142857144" type="curve" smooth="yes"/>
    </contour>
    <contour>
      <point x="634.6428571428571" y="-10.0" type="curve" smooth="yes"/>
      <point x="686.6428571428571" y="-10.0"/>
      <point x="732.1785714285714" y="36.10714285714286"/>
      <point x="770.6428571428571" y="135.75" type="curve"/>
      <point x="756.0357142857143" y="141.92857142857142" type="line"/>
      <point x="732.0357142857143" y="90.39285714285714"/>
      <point x="705.6428571428571" y="67.64285714285714"/>
      <point x="683.5357142857143" y="67.64285714285714" type="curve" smooth="yes"/>
      <point x="665.8928571428571" y="67.64285714285714"/>
      <point x="661.5357142857143" y="84.0"/>
      <point x="668.0" y="121.14285714285714" type="curve" smooth="yes"/>
      <point x="702.6428571428571" y="313.7857142857143" type="line" smooth="yes"/>
      <point x="718.6428571428571" y="403.9642857142857"/>
      <point x="678.9285714285714" y="461.7857142857143"/>
      <point x="616.7857142857143" y="461.7857142857143" type="curve" smooth="yes"/>
      <point x="552.3214285714286" y="461.7857142857143"/>
      <point x="522.5" y="435.14285714285717"/>
      <point x="453.92857142857144" y="358.75" type="curve"/>
      <point x="434.3928571428571" y="358.75" type="line"/>
      <point x="434.3928571428571" y="303.0357142857143" type="line"/>
      <point x="464.9642857142857" y="337.7857142857143"/>
      <point x="511.67857142857144" y="394.0"/>
      <point x="556.2857142857143" y="394.0" type="curve" smooth="yes"/>
      <point x="605.1785714285714" y="394.0"/>
      <point x="617.9285714285714" y="354.2142857142857"/>
      <point x="610.4642857142857" y="310.42857142857144" type="curve" smooth="yes"/>
      <point x="573.25" y="99.89285714285714" type="line" smooth="yes"/>
      <point x="560.8214285714286" y="31.5"/>
      <point x="582.1071428571429" y="-10.0"/>
    </contour>
  </outline>
</glyph>
<glyph name="n" format="2">
  <advance width="539.6428571428571"/>
  <unicode hex="006E"/>
  <anchor x="302.07142857142856" y="510.0" name="top"/>
  <anchor x="241.82142857142856" y="0.0" name="bottom"/>
  <outline>
    <contour>
      <point x="40.67857142857143" y="0.0" type="line"/>
      <point x="132.21428571428572" y="0.0" type="line"/>
      <point x="192.21428571428572" y="349.7857142857143" type="line"/>
      <point x="192.21428571428572" y="461.7857142857143" type="line"/>
      <point x="189.21428571428572" y="461.7857142857143" type="line"/>
      <point x="34.714285714285715" y="430.0" type="line"/>
      <point x="34.714285714285715" y="422.2142857142857" type="line"/>
      <point x="109.14285714285714" y="387.57142857142856" type="line"/>
    </contour>
    <contour>
      <point x="388.9642857142857" y="-10.0" type="curve" smooth="yes"/>
      <point x="440.9642857142857" y="-10.0"/>
      <point x="486.5" y="36.10714285714286"/>
      <point x="524.9642857142857" y="135.75" type="curve"/>
      <point x="510.3571428571429" y="141.92857142857142" type="line"/>
      <point x="486.35714285714283" y="90.39285714285714"/>
      <point x="459.9642857142857" y="67.64285714285714"/>
      <point x="437.8571428571429" y="67.64285714285714" type="curve" smooth="yes"/>
      <point x="420.2142857142857" y="67.64285714285714"/>
      <point x="415.85714285714283" y="84.0"/>
      <point x="422.32142857142856" y="121.14285714285714" type="curve" smooth="yes"/>
      <point x="456.9642857142857" y="313.7857142857143" type="line" smooth="yes"/>
      <point x="472.9642857142857" y="403.9642857142857"/>
      <point x="431.6071428571429" y="461.7857142857143"/>
      <point x="365.3571428571429" y="461.7857142857143" type="curve" smooth="yes"/>
      <point x="300.89285714285717" y="461.7857142857143"/>
      <point x="266.1428571428571" y="435.14285714285717"/>
      <point x="196.75" y="358.75" type="curve"/>
      <point x="177.21428571428572" y="358.75" type="line"/>
      <point x="177.21428571428572" y="303.0357142857143" type="line"/>
      <point x="207.78571428571428" y="337.7857142857143"/>
      <point x="260.25" y="394.0"/>
      <point x="304.85714285714283" y="394.0" type="curve" smooth="yes"/>
      <point x="358.67857142857144" y="394.0"/>
      <point x="371.42857142857144" y="354.2142857142857"/>
      <point x="364.7857142857143" y="310.42857142857144" type="curve" smooth="yes"/>
      <point x="327.57142857142856" y="99.89285714285714" type="line" smooth="yes"/>
      <point x="315.14285714285717" y="31.5"/>
      <point x="336.42857142857144" y="-10.0"/>
    </contour>
  </outline>
</glyph>
<glyph name="o" format="2">
  <advance width="508.4642857142857"/>
  <unicode hex="006F"/>
  <anchor x="298.89285714285717" y="510.0" name="top"/>
  <anchor x="248.64285714285714" y="0.0" name="right"/>
  <anchor x="219.75" y="0.0" name="bottom"/>
  <outline>
    <contour>
      <point x="219.64285714285714" y="-10.0" type="curve" smooth="yes"/>
      <point x="367.9642857142857" y="-10.0"/>
      <point x="462.92857142857144" y="141.96428571428572"/>
      <point x="462.92857142857144" y="265.4642857142857" type="curve" smooth="yes"/>
      <point x="462.92857142857144" y="379.82142857142856"/>
      <point x="406.7857142857143" y="461.7857142857143"/>
      <point x="286.5" y="461.7857142857143" type="curve" smooth="yes"/>
      <point x="145.03571428571428" y="461.7857142857143"/>
      <point x="45.535714285714285" y="314.35714285714283"/>
      <point x="45.535714285714285" y="186.32142857142856" type="curve" smooth="yes"/>
      <point x="45.535714285714285" y="72.32142857142857"/>
      <point x="101.32142857142857" y="-10.0"/>
    </contour>
    <contour>
      <point x="231.35714285714286" y="30.67857142857143" type="curve" smooth="yes"/>
      <point x="165.96428571428572" y="30.67857142857143"/>
      <point x="145.57142857142856" y="84.14285714285714"/>
      <point x="145.57142857142856" y="178.32142857142858" type="curve" smooth="yes"/>
      <point x="145.57142857142856" y="321.17857142857144"/>
      <point x="200.53571428571428" y="422.10714285714283"/>
      <point x="278.92857142857144" y="422.10714285714283" type="curve" smooth="yes"/>
      <point x="342.7857142857143" y="422.10714285714283"/>
      <point x="362.89285714285717" y="371.9642857142857"/>
      <point x="362.89285714285717" y="276.82142857142856" type="curve" smooth="yes"/>
      <point x="362.89285714285717" y="144.82142857142856"/>
      <point x="311.39285714285717" y="30.67857142857143"/>
    </contour>
  </outline>
</glyph>
<glyph name="p" format="2">
  <advance width="515.1428571428571"/>
  <unicode hex="0070"/>
  <outline>
    <contour>
      <point x="-33.60714285714286" y="-230.0" type="line"/>
      <point x="198.53571428571428" y="-230.0" type="line"/>
      <point x="198.53571428571428" y="-214.0" type="line"/>
      <point x="117.46428571428572" y="-184.28571428571428" type="line"/>
      <point x="152.0" y="23.714285714285715" type="line"/>
      <point x="95.21428571428572" y="35.25" type="line"/>
      <point x="118.0" y="9.642857142857142"/>
      <point x="164.64285714285714" y="-10.0"/>
      <point x="216.32142857142858" y="-10.0" type="curve" smooth="yes"/>
      <point x="352.92857142857144" y="-10.0"/>
      <point x="468.7142857142857" y="153.07142857142858"/>
      <point x="468.7142857142857" y="321.82142857142856" type="curve" smooth="yes"/>
      <point x="468.7142857142857" y="413.45238095210715"/>
      <point x="431.10714285714283" y="461.7857142857143"/>
      <point x="376.14285714285717" y="461.7857142857143" type="curve" smooth="yes"/>
      <point x="314.7857142857143" y="461.7857142857143"/>
      <point x="263.85714285714283" y="418.42857142857144"/>
      <point x="211.71428571428572" y="341.60714285714283" type="curve"/>
      <point x="179.85714285714286" y="341.60714285714283" type="line"/>
      <point x="179.85714285714286" y="260.17857142857144" type="line"/>
      <point x="211.71428571428572" y="315.4642857142857"/>
      <point x="267.2857142857143" y="388.1071428571429"/>
      <point x="320.92857142857144" y="388.1071428571429" type="curve" smooth="yes"/>
      <point x="364.35714285714283" y="388.1071428571429"/>
      <point x="376.82142857142856" y="353.0"/>
      <point x="376.82142857142856" y="284.42857142857144" type="curve" smooth="yes"/>
      <point x="376.82142857142856" y="152.32142857142856"/>
      <point x="320.0831108144643" y="29.892857142857142"/>
      <point x="239.07142857142856" y="29.892857142857142" type="curve" smooth="yes"/>
      <point x="200.92857142857142" y="29.892857142857142"/>
      <point x="180.35714285714286" y="51.35714285714286"/>
      <point x="156.64285714285714" y="87.92857142857143" type="curve"/>
      <point x="158.28571428571428" y="58.32142857142857" type="line"/>
      <point x="207.0" y="339.10714285714283" type="line"/>
      <point x="207.0" y="461.7857142857143" type="line"/>
      <point x="204.0" y="461.7857142857143" type="line"/>
      <point x="49.5" y="430.0" type="line"/>
      <point x="49.5" y="422.2142857142857" type="line"/>
      <point x="123.92857142857143" y="387.57142857142856" type="line"/>
      <point x="22.464285714285715" y="-185.28571428571428" type="line"/>
      <point x="-33.60714285714286" y="-214.0" type="line"/>
    </contour>
  </outline>
</glyph>
<glyph name="q" format="2">
  <advance width="485.85714285714283"/>
  <unicode hex="0071"/>
  <outline>
    <contour>
      <point x="178.35714285714286" y="-230.0" type="line"/>
      <point x="410.5" y="-230.0" type="line"/>
      <point x="410.5" y="-214.0" type="line"/>
      <point x="341.3928571428571" y="-183.82142857142858" type="line"/>
      <point x="457.32142857142856" y="460.0" type="line"/>
      <point x="449.5357142857143" y="460.0" type="line"/>
      <point x="375.60714285714283" y="428.07142857142856" type="line"/>
      <point x="418.17857142857144" y="419.57142857142856" type="line"/>
      <point x="397.35714285714283" y="443.2142857142857"/>
      <point x="353.0357142857143" y="461.7857142857143"/>
      <point x="305.2857142857143" y="461.7857142857143" type="curve" smooth="yes"/>
      <point x="168.67857142857142" y="461.7857142857143"/>
      <point x="43.964285714285715" y="298.5357142857143"/>
      <point x="43.964285714285715" y="125.67857142857143" type="curve" smooth="yes"/>
      <point x="43.964285714285715" y="36.0"/>
      <point x="80.67857142857143" y="-10.0"/>
      <point x="134.21428571428572" y="-10.0" type="curve" smooth="yes"/>
      <point x="194.85714285714286" y="-10.0"/>
      <point x="248.28571428571428" y="33.535714285714285"/>
      <point x="299.17857142857144" y="108.75" type="curve"/>
      <point x="332.64285714285717" y="108.75" type="line"/>
      <point x="332.64285714285717" y="192.85714285714286" type="line"/>
      <point x="299.7142857142857" y="136.14285714285714"/>
      <point x="244.85714285714286" y="63.67857142857143"/>
      <point x="191.57142857142856" y="63.67857142857143" type="curve" smooth="yes"/>
      <point x="149.03571428571428" y="63.67857142857143"/>
      <point x="136.75" y="96.80212355210357"/>
      <point x="136.75" y="168.96428571428572" type="curve" smooth="yes"/>
      <point x="136.75" y="298.13151440839283"/>
      <point x="192.03571428571428" y="421.0"/>
      <point x="274.14285714285717" y="421.0" type="curve" smooth="yes"/>
      <point x="311.92857142857144" y="421.0"/>
      <point x="333.2142857142857" y="400.9642857142857"/>
      <point x="358.0" y="366.89285714285717" type="curve"/>
      <point x="354.92857142857144" y="399.35714285714283" type="line"/>
      <point x="249.67857142857142" y="-186.10714285714286" type="line"/>
      <point x="178.35714285714286" y="-214.0" type="line"/>
    </contour>
  </outline>
</glyph>
<glyph name="r" format="2">
  <advance width="355.89285714285717"/>
  <unicode hex="0072"/>
  <anchor x="238.25" y="510.0" name="top"/>
  <anchor x="87.53571428571428" y="0.0" name="bottom"/>
  <outline>
    <contour>
      <point x="40.67857142857143" y="0.0" type="line"/>
      <point x="132.21428571428572" y="0.0" type="line"/>
      <point x="191.39285714285714" y="339.67857142857144" type="line"/>
      <point x="191.39285714285714" y="461.7857142857143" type="line"/>
      <point x="188.39285714285714" y="461.7857142857143" type="line"/>
      <point x="34.71428571428571" y="430.0" type="line"/>
      <point x="34.71428571428571" y="422.2142857142857" type="line"/>
      <point x="109.14285714285714" y="387.57142857142856" type="line"/>
    </contour>
    <contour>
      <point x="282.14285714285717" y="375.25" type="curve" smooth="yes"/>
      <point x="297.0" y="375.25"/>
      <point x="309.82142857142856" y="371.17857142857144"/>
      <point x="321.89285714285717" y="362.2857142857143" type="curve" smooth="yes"/>
      <point x="333.07142857142856" y="354.1071428571429" type="line"/>
      <point x="339.07142857142856" y="354.1071428571429" type="line"/>
      <point x="367.10714285714283" y="411.17857142857144" type="line" smooth="yes"/>
      <point x="369.4642857142857" y="416.07142857142856"/>
      <point x="370.4642857142857" y="420.25"/>
      <point x="370.4642857142857" y="424.14285714285717" type="curve" smooth="yes"/>
      <point x="370.4642857142857" y="443.25"/>
      <point x="346.2857142857143" y="461.7857142857143"/>
      <point x="320.67857142857144" y="461.7857142857143" type="curve" smooth="yes"/>
      <point x="289.89285714285717" y="461.7857142857143"/>
      <point x="258.75" y="453.82142857142856"/>
      <point x="196.10714285714286" y="343.60714285714283" type="curve"/>
      <point x="172.64285714285714" y="343.60714285714283" type="line"/>
      <point x="172.64285714285714" y="266.25" type="line"/>
      <point x="226.21428571428572" y="359.9642857142857"/>
      <point x="246.75" y="375.25"/>
    </contour>
  </outline>
</glyph>
<glyph name="s" format="2">
  <advance width="361.2142857142857"/>
  <unicode hex="0073"/>
  <anchor x="234.64285714285714" y="510.0" name="top"/>
  <anchor x="144.32142857142858" y="0.0" name="bottom"/>
  <outline>
    <contour>
      <point x="141.53571428571428" y="-10.0" type="curve"/>
      <point x="240.14285714285714" y="-10.0"/>
      <point x="311.10714285714283" y="60.642857142857146"/>
      <point x="311.10714285714283" y="136.28571428571428" type="curve" smooth="yes"/>
      <point x="311.10714285714283" y="207.85714285714286"/>
      <point x="274.32142857142856" y="236.85714285714286"/>
      <point x="206.25" y="276.0" type="curve" smooth="yes"/>
      <point x="165.71428571428572" y="298.5"/>
      <point x="139.10714285714286" y="323.6691522762951"/>
      <point x="139.10714285714286" y="362.32142857142856" type="curve" smooth="yes"/>
      <point x="139.10714285714286" y="397.7868663594643"/>
      <point x="167.2687969925" y="421.39285714285717"/>
      <point x="203.92857142857142" y="421.39285714285717" type="curve" smooth="yes"/>
      <point x="236.7426108375" y="421.39285714285717"/>
      <point x="255.93008819857144" y="406.72495656964287"/>
      <point x="275.35714285714283" y="381.10714285714283" type="curve" smooth="yes"/>
      <point x="298.07142857142856" y="350.4642857142857" type="line"/>
      <point x="305.07142857142856" y="350.4642857142857" type="line"/>
      <point x="329.9642857142857" y="366.0" type="line" smooth="yes"/>
      <point x="338.89285714285717" y="370.64285714285717"/>
      <point x="342.17857142857144" y="380.39285714285717"/>
      <point x="342.17857142857144" y="388.85714285714283" type="curve" smooth="yes"/>
      <point x="342.17857142857144" y="397.2142857142857"/>
      <point x="339.2857142857143" y="405.4642857142857"/>
      <point x="331.39285714285717" y="417.0" type="curve" smooth="yes"/>
      <point x="313.4642857142857" y="442.67857142857144"/>
      <point x="284.42857142857144" y="461.7857142857143"/>
      <point x="228.92857142857142" y="461.7857142857143" type="curve" smooth="yes"/>
      <point x="143.10714285714286" y="461.7857142857143"/>
      <point x="62.39285714285714" y="388.39285714285717"/>
      <point x="62.39285714285714" y="327.5357142857143" type="curve" smooth="yes"/>
      <point x="62.39285714285714" y="269.26574803149606"/>
      <point x="80.29942988844094" y="242.36087888477994"/>
      <point x="152.21428571428572" y="198.53571428571428" type="curve" smooth="yes"/>
      <point x="202.42581203885823" y="168.96715945056164"/>
      <point x="237.35714285714286" y="148.89635854341736"/>
      <point x="237.35714285714286" y="100.5" type="curve" smooth="yes"/>
      <point x="237.35714285714286" y="54.67857142857143"/>
      <point x="204.10714285714286" y="28.75"/>
      <point x="155.89285714285714" y="28.75" type="curve" smooth="yes"/>
      <point x="122.53571428571428" y="28.75"/>
      <point x="87.67857142857143" y="45.285714285714285"/>
      <point x="66.96428571428572" y="78.57142857142857" type="curve" smooth="yes"/>
      <point x="49.964285714285715" y="106.14285714285714" type="line"/>
      <point x="43.14285714285714" y="106.14285714285714" type="line"/>
      <point x="16.67857142857143" y="89.67857142857143" type="line" smooth="yes"/>
      <point x="6.214285714285715" y="83.67857142857143"/>
      <point x="4.857142857142858" y="74.85714285714286"/>
      <point x="4.857142857142858" y="66.85714285714286" type="curve" smooth="yes"/>
      <point x="4.857142857142858" y="57.14285714285714"/>
      <point x="8.464285714285715" y="48.89285714285714"/>
      <point x="18.42857142857143" y="36.714285714285715" type="curve" smooth="yes"/>
      <point x="37.785714285714285" y="10.214285714285714"/>
      <point x="77.82142857142857" y="-10.0"/>
    </contour>
  </outline>
</glyph>
<glyph name="t" format="2">
  <advance width="322.92857142857144"/>
  <unicode hex="0074"/>
  <anchor x="211.32142857142856" y="610.0" name="top"/>
  <anchor x="389.75" y="740.0" name="right"/>
  <anchor x="139.42857142857142" y="0.0" name="bottom"/>
  <outline>
    <contour>
      <point x="136.35714285714286" y="-10.0" type="curve" smooth="yes"/>
      <point x="198.89285714285714" y="-10.0"/>
      <point x="256.32142857142856" y="41.07142857142857"/>
      <point x="299.07142857142856" y="165.82142857142856" type="curve"/>
      <point x="284.2857142857143" y="172.0" type="line"/>
      <point x="256.0" y="106.17857142857143"/>
      <point x="218.78571428571428" y="73.67857142857143"/>
      <point x="188.78571428571428" y="73.67857142857143" type="curve" smooth="yes"/>
      <point x="169.35714285714286" y="73.67857142857143"/>
      <point x="158.0" y="86.03571428571428"/>
      <point x="158.0" y="117.85714285714286" type="curve" smooth="yes"/>
      <point x="158.0" y="128.32142857142856"/>
      <point x="159.0" y="141.42857142857144"/>
      <point x="162.17857142857144" y="159.85714285714286" type="curve" smooth="yes"/>
      <point x="206.10714285714286" y="407.7857142857143" type="line"/>
      <point x="338.0357142857143" y="407.7857142857143" type="line"/>
      <point x="338.0357142857143" y="451.7857142857143" type="line"/>
      <point x="214.10714285714286" y="451.7857142857143" type="line"/>
      <point x="232.92857142857144" y="560.5357142857143" type="line"/>
      <point x="223.35714285714286" y="560.5357142857143" type="line"/>
      <point x="135.75" y="457.5" type="line"/>
      <point x="44.32142857142857" y="416.10714285714283" type="line"/>
      <point x="43.60714285714286" y="407.7857142857143" type="line"/>
      <point x="114.75" y="407.7857142857143" type="line"/>
      <point x="63.714285714285715" y="119.60714285714286" type="line" smooth="yes"/>
      <point x="61.535714285714285" y="104.71428571428572"/>
      <point x="59.535714285714285" y="90.82142857142857"/>
      <point x="59.535714285714285" y="78.92857142857143" type="curve" smooth="yes"/>
      <point x="59.535714285714285" y="22.5"/>
      <point x="86.46428571428571" y="-10.0"/>
    </contour>
  </outline>
</glyph>
<glyph name="u" format="2">
  <advance width="530.9285714285714"/>
  <unicode hex="0075"/>
  <anchor x="310.3928571428571" y="510.0" name="top"/>
  <anchor x="219.10714285714286" y="0.0" name="bottom"/>
  <anchor x="433.07142857142856" y="0.0" name="right"/>
  <outline>
    <contour>
      <point x="157.03571428571428" y="-10.0" type="curve" smooth="yes"/>
      <point x="218.03571428571428" y="-10.0"/>
      <point x="250.32142857142858" y="18.107142857142858"/>
      <point x="317.07142857142856" y="92.67857142857143" type="curve"/>
      <point x="336.9642857142857" y="92.67857142857143" type="line"/>
      <point x="336.9642857142857" y="148.75" type="line"/>
      <point x="307.2142857142857" y="114.82142857142857"/>
      <point x="259.67857142857144" y="57.785714285714285"/>
      <point x="217.53571428571428" y="57.785714285714285" type="curve" smooth="yes"/>
      <point x="179.57142857142856" y="57.785714285714285"/>
      <point x="164.0" y="85.28571428571428"/>
      <point x="164.0" y="119.60714285714286" type="curve" smooth="yes"/>
      <point x="164.0" y="127.32142857142857"/>
      <point x="165.0" y="136.78571428571428"/>
      <point x="168.0" y="155.25" type="curve" smooth="yes"/>
      <point x="220.53571428571428" y="461.7857142857143" type="line"/>
      <point x="216.71428571428572" y="461.7857142857143" type="line"/>
      <point x="43.67857142857143" y="430.0" type="line"/>
      <point x="43.67857142857143" y="422.2142857142857" type="line"/>
      <point x="118.10714285714286" y="387.57142857142856" type="line"/>
      <point x="73.64285714285714" y="138.0" type="line" smooth="yes"/>
      <point x="71.64285714285714" y="124.17857142857143"/>
      <point x="69.82142857142857" y="111.35714285714286"/>
      <point x="69.82142857142857" y="98.71428571428572" type="curve" smooth="yes"/>
      <point x="69.82142857142857" y="31.178571428571427"/>
      <point x="105.71428571428571" y="-10.0"/>
    </contour>
    <contour>
      <point x="381.8928571428571" y="-10.0" type="curve" smooth="yes"/>
      <point x="433.8928571428571" y="-10.0"/>
      <point x="479.42857142857144" y="36.10714285714286"/>
      <point x="517.8928571428571" y="135.75" type="curve"/>
      <point x="503.2857142857143" y="141.92857142857142" type="line"/>
      <point x="479.2857142857143" y="90.39285714285714"/>
      <point x="452.8928571428571" y="67.64285714285714"/>
      <point x="430.7857142857143" y="67.64285714285714" type="curve" smooth="yes"/>
      <point x="411.5" y="67.64285714285714"/>
      <point x="407.1428571428571" y="84.0"/>
      <point x="413.60714285714283" y="121.14285714285714" type="curve" smooth="yes"/>
      <point x="473.60714285714283" y="461.7857142857143" type="line"/>
      <point x="469.7857142857143" y="461.7857142857143" type="line"/>
      <point x="305.2857142857143" y="430.0" type="line"/>
      <point x="305.2857142857143" y="422.2142857142857" type="line"/>
      <point x="370.35714285714283" y="387.57142857142856" type="line"/>
      <point x="320.5" y="99.89285714285714" type="line" smooth="yes"/>
      <point x="308.89285714285717" y="31.5"/>
      <point x="329.35714285714283" y="-10.0"/>
    </contour>
  </outline>
</glyph>
<glyph name="v" format="2">
  <advance width="451.75"/>
  <unicode hex="0076"/>
  <outline>
    <contour>
      <point x="192.89285714285714" y="0.0" type="line"/>
      <point x="211.25" y="0.0" type="line"/>
      <point x="268.92857142857144" y="86.42857142857143" type="line"/>
      <point x="268.92857142857144" y="121.0" type="line"/>
      <point x="258.75" y="121.0" type="line"/>
      <point x="180.96428571428572" y="461.7857142857143" type="line"/>
      <point x="177.96428571428572" y="461.7857142857143" type="line"/>
      <point x="19.785714285714285" y="430.0" type="line"/>
      <point x="19.785714285714285" y="422.2142857142857" type="line"/>
      <point x="127.96428571428572" y="382.75" type="line"/>
      <point x="92.78571428571428" y="422.1071428571429" type="line"/>
    </contour>
    <contour>
      <point x="219.07142857142856" y="0.0" type="line"/>
      <point x="375.82142857142856" y="228.53571428571428" type="line" smooth="yes"/>
      <point x="428.82142857142856" y="306.10714285714283"/>
      <point x="447.2857142857143" y="346.67857142857144"/>
      <point x="447.2857142857143" y="380.82142857142856" type="curve" smooth="yes"/>
      <point x="447.2857142857143" y="416.32142857142856"/>
      <point x="418.32142857142856" y="461.7857142857143"/>
      <point x="385.6071428571429" y="461.7857142857143" type="curve" smooth="yes"/>
      <point x="369.8928571428571" y="461.7857142857143"/>
      <point x="364.7142857142857" y="457.7857142857143"/>
      <point x="354.0" y="437.35714285714283" type="curve" smooth="yes"/>
      <point x="335.32142857142856" y="401.64285714285717" type="line"/>
      <point x="335.32142857142856" y="397.4642857142857" type="line"/>
      <point x="349.0357142857143" y="389.2857142857143" type="line" smooth="yes"/>
      <point x="366.1071428571429" y="378.92857142857144"/>
      <point x="377.57142857142856" y="366.5"/>
      <point x="377.57142857142856" y="344.42857142857144" type="curve" smooth="yes"/>
      <point x="377.57142857142856" y="320.67857142857144"/>
      <point x="374.3928571428571" y="286.92857142857144"/>
      <point x="330.9642857142857" y="222.10714285714286" type="curve" smooth="yes"/>
      <point x="206.07142857142856" y="35.32142857142857" type="line"/>
      <point x="206.07142857142856" y="0.0" type="line"/>
    </contour>
  </outline>
</glyph>
<glyph name="w" format="2">
  <advance width="667.9285714285714"/>
  <unicode hex="0077"/>
  <anchor x="409.75" y="510.0" name="top"/>
  <outline>
    <contour>
      <point x="180.28571428571428" y="0.0" type="line"/>
      <point x="200.92857142857144" y="0.0" type="line"/>
      <point x="249.67857142857144" y="96.67857142857143" type="line"/>
      <point x="249.67857142857144" y="137.17857142857144" type="line"/>
      <point x="241.60714285714286" y="137.17857142857144" type="line"/>
      <point x="180.96428571428572" y="461.7857142857143" type="line"/>
      <point x="177.96428571428572" y="461.7857142857143" type="line"/>
      <point x="19.785714285714285" y="430.0" type="line"/>
      <point x="19.785714285714285" y="422.2142857142857" type="line"/>
      <point x="128.32142857142856" y="382.39285714285717" type="line"/>
      <point x="93.96428571428572" y="420.67857142857144" type="line"/>
    </contour>
    <contour>
      <point x="391.32142857142856" y="451.7857142857143" type="line"/>
      <point x="195.39285714285714" y="31.21428571428571" type="line"/>
      <point x="195.39285714285714" y="0.0" type="line"/>
      <point x="206.46428571428572" y="0.0" type="line"/>
      <point x="366.82142857142856" y="310.75" type="line"/>
      <point x="347.7857142857143" y="310.75" type="line"/>
      <point x="431.5" y="0.0" type="line"/>
      <point x="449.1428571428571" y="0.0" type="line"/>
      <point x="499.3571428571429" y="95.14285714285714" type="line"/>
      <point x="411.75" y="451.7857142857143" type="line"/>
    </contour>
    <contour>
      <point x="457.67857142857144" y="0.0" type="line"/>
      <point x="592.0" y="228.53571428571428" type="line" smooth="yes"/>
      <point x="638.8214285714286" y="309.10714285714283"/>
      <point x="663.4642857142857" y="346.67857142857144"/>
      <point x="663.4642857142857" y="380.82142857142856" type="curve" smooth="yes"/>
      <point x="663.4642857142857" y="416.32142857142856"/>
      <point x="634.5" y="461.7857142857143"/>
      <point x="601.7857142857143" y="461.7857142857143" type="curve" smooth="yes"/>
      <point x="586.0714285714286" y="461.7857142857143"/>
      <point x="580.8928571428571" y="457.7857142857143"/>
      <point x="570.1785714285714" y="437.35714285714283" type="curve" smooth="yes"/>
      <point x="551.5" y="401.64285714285717" type="line"/>
      <point x="551.5" y="397.4642857142857" type="line"/>
      <point x="565.2142857142857" y="389.2857142857143" type="line" smooth="yes"/>
      <point x="582.2857142857143" y="378.92857142857144"/>
      <point x="593.75" y="366.5"/>
      <point x="593.75" y="344.42857142857144" type="curve" smooth="yes"/>
      <point x="593.75" y="320.67857142857144"/>
      <point x="584.75" y="289.75"/>
      <point x="548.7857142857143" y="222.10714285714286" type="curve" smooth="yes"/>
      <point x="497.0" y="124.28571428571428" type="line"/>
      <point x="443.07142857142856" y="124.28571428571428" type="line"/>
      <point x="443.07142857142856" y="0.0" type="line"/>
    </contour>
  </outline>
</glyph>
<glyph name="x" format="2">
  <advance width="458.7142857142857"/>
  <unicode hex="0078"/>
  <outline>
    <contour>
      <point x="279.7857142857143" y="-1.7857142857142858" type="line"/>
      <point x="282.7857142857143" y="-1.7857142857142858" type="line"/>
      <point x="420.42857142857144" y="30.0" type="line"/>
      <point x="420.42857142857144" y="37.785714285714285" type="line"/>
      <point x="331.42857142857144" y="74.32142857142857" type="line"/>
      <point x="349.92857142857144" y="62.0" type="line"/>
      <point x="191.57142857142858" y="461.7857142857143" type="line"/>
      <point x="189.39285714285714" y="461.7857142857143" type="line"/>
      <point x="47.64285714285714" y="430.0" type="line"/>
      <point x="47.64285714285714" y="422.2142857142857" type="line"/>
      <point x="140.75" y="384.0357142857143" type="line"/>
      <point x="117.42857142857143" y="402.0" type="line"/>
    </contour>
    <contour>
      <point x="439.2857142857143" y="451.7857142857143" type="curve"/>
      <point x="375.92857142857144" y="451.7857142857143" type="line"/>
      <point x="362.63130033317856" y="421.91267989482145"/>
      <point x="360.24931469060715" y="407.42579397814285"/>
      <point x="236.35714285714286" y="248.78571428571428" type="curve"/>
      <point x="259.32142857142856" y="238.78571428571428" type="line"/>
      <point x="403.2857142857143" y="403.60714285714283"/>
      <point x="437.92857142857144" y="421.7857142857143"/>
    </contour>
    <contour>
      <point x="-1.928571428571427" y="0.0" type="curve"/>
      <point x="64.78571428571429" y="0.0" type="line"/>
      <point x="80.14285714285714" y="34.0"/>
      <point x="84.17857142857143" y="47.25"/>
      <point x="227.42857142857142" y="231.0" type="curve"/>
      <point x="204.28571428571428" y="241.0" type="line"/>
      <point x="41.785714285714285" y="54.17857142857143"/>
      <point x="-0.5714285714285712" y="34.0"/>
    </contour>
  </outline>
</glyph>
<glyph name="y" format="2">
  <advance width="452.3571428571429"/>
  <unicode hex="0079"/>
  <anchor x="297.57142857142856" y="510.0" name="top"/>
  <anchor x="255.5" y="-24.78571428571429" name="bottom"/>
  <outline>
    <contour>
      <point x="15.75" y="422.2142857142857" type="line"/>
      <point x="123.75" y="380.1071428571429" type="line"/>
      <point x="88.75" y="420.2857142857143" type="line"/>
      <point x="190.25" y="-9.464285714285715" type="line"/>
      <point x="263.42857142857144" y="78.42857142857143" type="line"/>
      <point x="263.42857142857144" y="113.92857142857143" type="line"/>
      <point x="254.71428571428572" y="113.92857142857143" type="line"/>
      <point x="175.85714285714286" y="461.7857142857143" type="line"/>
      <point x="172.85714285714286" y="461.7857142857143" type="line"/>
      <point x="15.75" y="430.0" type="line"/>
    </contour>
    <contour>
      <point x="-1.7857142857142918" y="-240.0" type="curve" smooth="yes"/>
      <point x="34.17857142857143" y="-240.0"/>
      <point x="73.75" y="-221.82142857142858"/>
      <point x="106.92857142857143" y="-183.0" type="curve" smooth="yes"/>
      <point x="143.10714285714286" y="-141.0"/>
      <point x="147.64285714285714" y="-124.35714285714286"/>
      <point x="177.0" y="-79.0" type="curve" smooth="yes"/>
      <point x="372.32142857142856" y="228.53571428571428" type="line" smooth="yes"/>
      <point x="421.9642857142857" y="307.10714285714283"/>
      <point x="443.7857142857143" y="346.67857142857144"/>
      <point x="443.7857142857143" y="380.82142857142856" type="curve" smooth="yes"/>
      <point x="443.7857142857143" y="417.9642857142857"/>
      <point x="416.4642857142857" y="461.7857142857143"/>
      <point x="382.10714285714283" y="461.7857142857143" type="curve" smooth="yes"/>
      <point x="366.39285714285717" y="461.7857142857143"/>
      <point x="361.2142857142857" y="457.7857142857143"/>
      <point x="350.5" y="437.35714285714283" type="curve" smooth="yes"/>
      <point x="331.82142857142856" y="401.64285714285717" type="line"/>
      <point x="331.82142857142856" y="397.4642857142857" type="line"/>
      <point x="345.5357142857143" y="389.2857142857143" type="line" smooth="yes"/>
      <point x="362.60714285714283" y="378.92857142857144"/>
      <point x="374.07142857142856" y="366.5"/>
      <point x="374.07142857142856" y="344.42857142857144" type="curve" smooth="yes"/>
      <point x="374.07142857142856" y="320.67857142857144"/>
      <point x="366.5" y="288.0357142857143"/>
      <point x="325.8928571428571" y="222.10714285714286" type="curve" smooth="yes"/>
      <point x="151.0" y="-60.714285714285715" type="line" smooth="yes"/>
      <point x="97.57142857142857" y="-146.78571428571428"/>
      <point x="95.5" y="-149.85714285714286"/>
      <point x="27.535714285714285" y="-149.85714285714286" type="curve" smooth="yes"/>
      <point x="-22.785714285714285" y="-149.85714285714286" type="line"/>
      <point x="-29.785714285714292" y="-155.85714285714286" type="line"/>
      <point x="-29.785714285714292" y="-211.0" type="line" smooth="yes"/>
      <point x="-29.785714285714292" y="-232.0"/>
      <point x="-21.785714285714292" y="-240.0"/>
    </contour>
  </outline>
</glyph>
<glyph name="z" format="2">
  <advance width="412.9642857142857"/>
  <unicode hex="007A"/>
  <anchor x="253.57142857142858" y="510.0" name="top"/>
  <anchor x="164.57142857142858" y="0.0" name="bottom"/>
  <outline>
    <contour>
      <point x="28.785714285714285" y="-2.607142857142857" type="line"/>
      <point x="43.964285714285715" y="14.392857142857142" type="line" smooth="yes"/>
      <point x="64.5" y="37.57142857142857"/>
      <point x="80.03571428571429" y="48.285714285714285"/>
      <point x="102.92857142857143" y="48.285714285714285" type="curve" smooth="yes"/>
      <point x="112.28571428571429" y="48.285714285714285"/>
      <point x="122.64285714285714" y="46.285714285714285"/>
      <point x="135.89285714285714" y="43.107142857142854" type="curve" smooth="yes"/>
      <point x="327.4642857142857" y="-5.0" type="line"/>
      <point x="360.42857142857144" y="166.53571428571428" type="line"/>
      <point x="344.42857142857144" y="166.53571428571428" type="line"/>
      <point x="274.89285714285717" y="46.214285714285715" type="line"/>
      <point x="329.42857142857144" y="78.17857142857143" type="line"/>
      <point x="130.46428571428572" y="129.10714285714286" type="line"/>
      <point x="130.46428571428572" y="103.0" type="line"/>
      <point x="384.35714285714283" y="432.07142857142856" type="line"/>
      <point x="374.25" y="451.7857142857143" type="line"/>
      <point x="93.39285714285714" y="451.7857142857143" type="line"/>
      <point x="70.25" y="303.82142857142856" type="line"/>
      <point x="86.25" y="303.82142857142856" type="line"/>
      <point x="142.89285714285714" y="402.14285714285717" type="line"/>
      <point x="102.89285714285714" y="374.17857142857144" type="line"/>
      <point x="319.0" y="374.17857142857144" type="line"/>
      <point x="319.0" y="411.32142857142856" type="line"/>
      <point x="11.892857142857142" y="13.75" type="line"/>
    </contour>
  </outline>
</glyph>
<glyph name="braceleft" format="2">
  <advance width="256.25"/>
  <unicode hex="007B"/>
  <outline>
    <contour>
      <point x="179.92857142857142" y="-150.0" type="line"/>
      <point x="183.92857142857142" y="-127.0" type="line"/>
      <point x="159.53571428571428" y="-127.0" type="line" smooth="yes"/>
      <point x="112.82142857142857" y="-127.0"/>
      <point x="88.46428571428572" y="-107.82142857142857"/>
      <point x="88.46428571428572" y="-61.285714285714285" type="curve" smooth="yes"/>
      <point x="88.46428571428572" y="9.357142857142858"/>
      <point x="170.46428571428572" y="137.32142857142858"/>
      <point x="170.46428571428572" y="200.28571428571428" type="curve" smooth="yes"/>
      <point x="170.46428571428572" y="244.46428571428572"/>
      <point x="155.0" y="273.5357142857143"/>
      <point x="105.39285714285714" y="295.0" type="curve"/>
      <point x="186.75" y="333.10714285714283"/>
      <point x="209.92857142857142" y="387.0"/>
      <point x="209.92857142857142" y="448.0" type="curve" smooth="yes"/>
      <point x="209.92857142857142" y="491.35714285714283"/>
      <point x="198.10714285714286" y="534.5357142857143"/>
      <point x="197.92857142857144" y="582.8928571428571" type="curve" smooth="yes"/>
      <point x="197.57142857142856" y="661.7142857142857"/>
      <point x="227.75" y="717.0"/>
      <point x="299.35714285714283" y="717.0" type="curve" smooth="yes"/>
      <point x="323.92857142857144" y="717.0" type="line"/>
      <point x="327.92857142857144" y="740.0" type="line"/>
      <point x="308.5" y="740.0" type="line" smooth="yes"/>
      <point x="187.67857142857142" y="740.0"/>
      <point x="133.85714285714286" y="670.3571428571429"/>
      <point x="133.85714285714286" y="566.8928571428571" type="curve" smooth="yes"/>
      <point x="133.85714285714286" y="514.0714285714286"/>
      <point x="148.5" y="467.0"/>
      <point x="148.5" y="421.64285714285717" type="curve" smooth="yes"/>
      <point x="148.5" y="362.82142857142856"/>
      <point x="125.5" y="307.0"/>
      <point x="49.5" y="307.0" type="curve" smooth="yes"/>
      <point x="26.5" y="307.0" type="line"/>
      <point x="22.5" y="284.0" type="line"/>
      <point x="46.5" y="284.0" type="line" smooth="yes"/>
      <point x="97.21428571428572" y="284.0"/>
      <point x="114.5" y="256.17857142857144"/>
      <point x="114.5" y="221.35714285714286" type="curve" smooth="yes"/>
      <point x="114.5" y="137.17857142857142"/>
      <point x="30.5" y="44.17857142857143"/>
      <point x="30.5" y="-47.0" type="curve" smooth="yes"/>
      <point x="30.5" y="-109.0"/>
      <point x="69.5" y="-150.0"/>
      <point x="160.5" y="-150.0" type="curve" smooth="yes"/>
    </contour>
  </outline>
</glyph>
<glyph name="bar" format="2">
  <advance width="250.0"/>
  <unicode hex="007C"/>
  <outline>
    <contour>
      <point x="12.821428571428571" y="-250.0" type="line"/>
      <point x="60.35714285714286" y="-250.0" type="line"/>
      <point x="237.17857142857142" y="750.0" type="line"/>
      <point x="188.82142857142858" y="750.0" type="line"/>
    </contour>
  </outline>
</glyph>
<glyph name="braceright" format="2">
  <advance width="256.25"/>
  <unicode hex="007D"/>
  <outline>
    <contour>
      <point x="-55.17857142857143" y="-150.0" type="line"/>
      <point x="-35.75" y="-150.0" type="line" smooth="yes"/>
      <point x="85.07142857142857" y="-150.0"/>
      <point x="138.89285714285714" y="-80.35714285714286"/>
      <point x="138.89285714285714" y="23.107142857142858" type="curve" smooth="yes"/>
      <point x="138.89285714285714" y="75.92857142857143"/>
      <point x="124.25" y="123.0"/>
      <point x="124.25" y="168.35714285714286" type="curve" smooth="yes"/>
      <point x="124.25" y="227.17857142857142"/>
      <point x="147.25" y="283.0"/>
      <point x="223.25" y="283.0" type="curve" smooth="yes"/>
      <point x="246.25" y="283.0" type="line"/>
      <point x="250.25" y="306.0" type="line"/>
      <point x="226.25" y="306.0" type="line" smooth="yes"/>
      <point x="175.53571428571428" y="306.0"/>
      <point x="158.25" y="333.82142857142856"/>
      <point x="158.25" y="368.64285714285717" type="curve" smooth="yes"/>
      <point x="158.25" y="452.82142857142856"/>
      <point x="242.25" y="545.8214285714286"/>
      <point x="242.25" y="637.0" type="curve" smooth="yes"/>
      <point x="242.25" y="699.0"/>
      <point x="203.25" y="740.0"/>
      <point x="112.25" y="740.0" type="curve" smooth="yes"/>
      <point x="92.82142857142857" y="740.0" type="line"/>
      <point x="88.82142857142857" y="717.0" type="line"/>
      <point x="113.21428571428572" y="717.0" type="line" smooth="yes"/>
      <point x="159.92857142857142" y="717.0"/>
      <point x="184.28571428571428" y="697.8214285714286"/>
      <point x="184.28571428571428" y="651.2857142857143" type="curve" smooth="yes"/>
      <point x="184.28571428571428" y="580.6428571428571"/>
      <point x="102.28571428571429" y="452.67857142857144"/>
      <point x="102.28571428571429" y="389.7142857142857" type="curve" smooth="yes"/>
      <point x="102.28571428571429" y="345.5357142857143"/>
      <point x="117.75" y="316.4642857142857"/>
      <point x="167.35714285714286" y="295.0" type="curve"/>
      <point x="86.0" y="256.89285714285717"/>
      <point x="62.82142857142857" y="203.0"/>
      <point x="62.82142857142857" y="142.0" type="curve" smooth="yes"/>
      <point x="62.82142857142857" y="98.64285714285714"/>
      <point x="74.64285714285714" y="55.464285714285715"/>
      <point x="74.82142857142857" y="7.107142857142858" type="curve" smooth="yes"/>
      <point x="75.17857142857143" y="-71.71428571428571"/>
      <point x="45.0" y="-127.0"/>
      <point x="-26.607142857142858" y="-127.0" type="curve" smooth="yes"/>
      <point x="-51.17857142857143" y="-127.0" type="line"/>
    </contour>
  </outline>
</glyph>
<glyph name="asciitilde" format="2">
  <advance width="517.8571428571429"/>
  <unicode hex="007E"/>
  <outline>
    <contour>
      <point x="344.32142857142856" y="201.0" type="curve" smooth="yes"/>
      <point x="411.4642857142857" y="201.0"/>
      <point x="460.2142857142857" y="253.0"/>
      <point x="474.2142857142857" y="343.0" type="curve"/>
      <point x="426.25" y="343.0" type="line"/>
      <point x="417.42857142857144" y="290.2857142857143"/>
      <point x="395.7857142857143" y="247.32142857142856"/>
      <point x="348.85714285714283" y="247.32142857142856" type="curve" smooth="yes"/>
      <point x="275.4642857142857" y="247.32142857142856"/>
      <point x="260.85714285714283" y="343.0"/>
      <point x="161.57142857142858" y="343.0" type="curve" smooth="yes"/>
      <point x="94.42857142857143" y="343.0"/>
      <point x="45.85714285714286" y="291.0"/>
      <point x="31.857142857142858" y="201.0" type="curve"/>
      <point x="79.82142857142857" y="201.0" type="line"/>
      <point x="88.64285714285714" y="253.71428571428572"/>
      <point x="110.28571428571428" y="296.67857142857144"/>
      <point x="157.21428571428572" y="296.67857142857144" type="curve" smooth="yes"/>
      <point x="230.42857142857142" y="296.67857142857144"/>
      <point x="245.03571428571428" y="201.0"/>
    </contour>
  </outline>
</glyph>
<glyph name="exclamdown" format="2">
  <advance width="239.57142857142856"/>
  <unicode hex="00A1"/>
  <outline>
    <contour>
      <point x="-27.0" y="-207.32142857142858" type="line"/>
      <point x="79.67857142857143" y="-207.32142857142858" type="line"/>
      <point x="116.78571428571428" y="247.32142857142858" type="line"/>
      <point x="95.75" y="247.32142857142858" type="line"/>
    </contour>
    <contour>
      <point x="127.46428571428571" y="336.7857142857143" type="curve" smooth="yes"/>
      <point x="165.25" y="336.7857142857143"/>
      <point x="191.5" y="369.57142857142856"/>
      <point x="191.5" y="405.17857142857144" type="curve" smooth="yes"/>
      <point x="191.5" y="435.60714285714283"/>
      <point x="175.78571428571428" y="457.67857142857144"/>
      <point x="141.0" y="457.67857142857144" type="curve" smooth="yes"/>
      <point x="102.21428571428571" y="457.67857142857144"/>
      <point x="76.96428571428571" y="425.7857142857143"/>
      <point x="76.96428571428571" y="389.2857142857143" type="curve" smooth="yes"/>
      <point x="76.96428571428571" y="358.85714285714283"/>
      <point x="92.67857142857143" y="336.7857142857143"/>
    </contour>
  </outline>
</glyph>
<glyph name="cent" format="2">
  <advance width="517.8571428571429"/>
  <unicode hex="00A2"/>
  <outline>
    <contour>
      <point x="239.71428571428572" y="94.10714285714286" type="curve" smooth="yes"/>
      <point x="313.9642857142857" y="94.10714285714286"/>
      <point x="374.35714285714283" y="148.35714285714286"/>
      <point x="428.2142857142857" y="243.78571428571428" type="curve"/>
      <point x="411.85714285714283" y="256.85714285714283" type="line"/>
      <point x="409.67857142857144" y="256.85714285714283" type="line"/>
      <point x="360.57142857142856" y="192.64285714285714"/>
      <point x="325.6428571428571" y="172.53571428571428"/>
      <point x="277.42857142857144" y="172.53571428571428" type="curve" smooth="yes"/>
      <point x="214.46428571428572" y="172.53571428571428"/>
      <point x="182.42857142857142" y="221.92857142857144"/>
      <point x="182.42857142857142" y="308.10714285714283" type="curve" smooth="yes"/>
      <point x="182.42857142857142" y="415.82142857142856"/>
      <point x="242.64285714285714" y="520.0714285714286"/>
      <point x="309.7142857142857" y="520.0714285714286" type="curve" smooth="yes"/>
      <point x="345.35714285714283" y="520.0714285714286"/>
      <point x="358.10714285714283" y="502.92857142857144"/>
      <point x="378.0357142857143" y="472.75" type="curve" smooth="yes"/>
      <point x="398.39285714285717" y="440.89285714285717" type="line"/>
      <point x="405.2142857142857" y="440.89285714285717" type="line"/>
      <point x="439.0357142857143" y="462.89285714285717" type="line" smooth="yes"/>
      <point x="450.0357142857143" y="469.42857142857144"/>
      <point x="454.0357142857143" y="480.25"/>
      <point x="454.0357142857143" y="489.42857142857144" type="curve" smooth="yes"/>
      <point x="454.0357142857143" y="498.07142857142856"/>
      <point x="452.3928571428571" y="504.7142857142857"/>
      <point x="444.3928571428571" y="516.8928571428571" type="curve" smooth="yes"/>
      <point x="425.3928571428571" y="546.25"/>
      <point x="393.7142857142857" y="565.8928571428571"/>
      <point x="342.75" y="565.8928571428571" type="curve" smooth="yes"/>
      <point x="212.10714285714286" y="565.8928571428571"/>
      <point x="87.60714285714286" y="407.64285714285717"/>
      <point x="87.60714285714286" y="265.89285714285717" type="curve" smooth="yes"/>
      <point x="87.60714285714286" y="154.53571428571428"/>
      <point x="139.42857142857142" y="94.10714285714286"/>
    </contour>
    <contour>
      <point x="136.89285714285714" y="26.0" type="line"/>
      <point x="174.67857142857144" y="26.0" type="line"/>
      <point x="421.0" y="635.0" type="line"/>
      <point x="383.2142857142857" y="635.0" type="line"/>
    </contour>
  </outline>
</glyph>
<glyph name="currency" format="2">
  <advance width="517.8571428571429"/>
  <unicode hex="00A4"/>
  <outline>
    <contour>
      <point x="378.89285714285717" y="62.0" type="line"/>
      <point x="419.42857142857144" y="94.53571428571429" type="line"/>
      <point x="364.89285714285717" y="164.35714285714286" type="line"/>
      <point x="397.7142857142857" y="198.17857142857142"/>
      <point x="412.7142857142857" y="242.17857142857142"/>
      <point x="412.7142857142857" y="289.0" type="curve" smooth="yes"/>
      <point x="412.7142857142857" y="317.0"/>
      <point x="405.7142857142857" y="343.82142857142856"/>
      <point x="392.89285714285717" y="366.82142857142856" type="curve"/>
      <point x="481.89285714285717" y="445.82142857142856" type="line"/>
      <point x="451.5357142857143" y="482.35714285714283" type="line"/>
      <point x="362.5357142857143" y="403.17857142857144" type="line"/>
      <point x="338.5357142857143" y="423.0"/>
      <point x="304.5357142857143" y="434.0"/>
      <point x="267.7142857142857" y="434.0" type="curve" smooth="yes"/>
      <point x="232.89285714285714" y="434.0"/>
      <point x="203.07142857142856" y="426.0"/>
      <point x="178.07142857142856" y="411.17857142857144" type="curve"/>
      <point x="122.71428571428571" y="482.17857142857144" type="line"/>
      <point x="82.17857142857143" y="449.64285714285717" type="line"/>
      <point x="137.53571428571428" y="379.82142857142856" type="line"/>
      <point x="104.71428571428572" y="346.0"/>
      <point x="89.71428571428572" y="302.0"/>
      <point x="89.71428571428572" y="256.0" type="curve" smooth="yes"/>
      <point x="89.71428571428572" y="227.17857142857142"/>
      <point x="96.71428571428571" y="200.35714285714286"/>
      <point x="109.53571428571429" y="178.17857142857142" type="curve"/>
      <point x="19.714285714285715" y="98.35714285714286" type="line"/>
      <point x="50.07142857142857" y="61.82142857142857" type="line"/>
      <point x="139.89285714285714" y="141.82142857142858" type="line"/>
      <point x="163.89285714285714" y="122.0"/>
      <point x="197.89285714285714" y="110.17857142857143"/>
      <point x="235.53571428571428" y="110.17857142857143" type="curve" smooth="yes"/>
      <point x="269.5357142857143" y="110.17857142857143"/>
      <point x="299.35714285714283" y="118.17857142857143"/>
      <point x="324.35714285714283" y="133.0" type="curve"/>
    </contour>
    <contour>
      <point x="241.53571428571428" y="154.07142857142858" type="curve" smooth="yes"/>
      <point x="179.71428571428572" y="154.07142857142858"/>
      <point x="139.42857142857144" y="192.71428571428572"/>
      <point x="139.42857142857144" y="260.0" type="curve" smooth="yes"/>
      <point x="139.42857142857144" y="334.0"/>
      <point x="189.71428571428572" y="390.10714285714283"/>
      <point x="261.7142857142857" y="390.10714285714283" type="curve" smooth="yes"/>
      <point x="322.7142857142857" y="390.10714285714283"/>
      <point x="363.0" y="351.4642857142857"/>
      <point x="363.0" y="285.0" type="curve" smooth="yes"/>
      <point x="363.0" y="210.17857142857142"/>
      <point x="312.7142857142857" y="154.07142857142858"/>
    </contour>
  </outline>
</glyph>
<glyph name="yen" format="2">
  <advance width="517.8571428571429"/>
  <unicode hex="00A5"/>
  <outline>
    <contour>
      <point x="92.21428571428571" y="0.0" type="line"/>
      <point x="342.6428571428571" y="0.0" type="line"/>
      <point x="345.6428571428571" y="16.0" type="line"/>
      <point x="271.82142857142856" y="56.357142857142854" type="line"/>
      <point x="334.8928571428571" y="429.2142857142857" type="line"/>
      <point x="305.7857142857143" y="364.67857142857144" type="line"/>
      <point x="531.5" y="637.75" type="line"/>
      <point x="471.10714285714283" y="604.0357142857143" type="line"/>
      <point x="570.4285714285714" y="644.0" type="line"/>
      <point x="573.25" y="660.0" type="line"/>
      <point x="401.10714285714283" y="660.0" type="line"/>
      <point x="398.2857142857143" y="644.0" type="line"/>
      <point x="454.4642857142857" y="617.1071428571429" type="line"/>
      <point x="453.64285714285717" y="613.9285714285714" type="line"/>
      <point x="305.6071428571429" y="420.4642857142857" type="line"/>
      <point x="320.42857142857144" y="425.0357142857143" type="line"/>
      <point x="224.03571428571428" y="618.2142857142857" type="line"/>
      <point x="224.21428571428572" y="620.5714285714286" type="line"/>
      <point x="287.1071428571429" y="644.1785714285714" type="line"/>
      <point x="289.92857142857144" y="660.0" type="line"/>
      <point x="86.71428571428572" y="660.0" type="line"/>
      <point x="83.89285714285714" y="644.0" type="line"/>
      <point x="152.71428571428572" y="604.0357142857143" type="line"/>
      <point x="110.35714285714286" y="637.75" type="line"/>
      <point x="259.5357142857143" y="355.17857142857144" type="line"/>
      <point x="245.28571428571428" y="429.2142857142857" type="line"/>
      <point x="182.21428571428572" y="56.357142857142854" type="line"/>
      <point x="95.21428571428571" y="16.0" type="line"/>
    </contour>
    <contour>
      <point x="81.67857142857143" y="238.64285714285714" type="line"/>
      <point x="433.07142857142856" y="238.64285714285714" type="line"/>
      <point x="440.25" y="277.7142857142857" type="line"/>
      <point x="88.85714285714286" y="277.7142857142857" type="line"/>
    </contour>
    <contour>
      <point x="106.85714285714286" y="388.4642857142857" type="line"/>
      <point x="457.42857142857144" y="388.4642857142857" type="line"/>
      <point x="465.42857142857144" y="427.5357142857143" type="line"/>
      <point x="114.03571428571429" y="427.5357142857143" type="line"/>
    </contour>
  </outline>
</glyph>
<glyph name="brokenbar" format="2">
  <advance width="250.0"/>
  <unicode hex="00A6"/>
  <outline>
    <contour>
      <point x="118.82142857142857" y="350.0" type="line"/>
      <point x="167.17857142857142" y="350.0" type="line"/>
      <point x="237.17857142857142" y="750.0" type="line"/>
      <point x="188.82142857142858" y="750.0" type="line"/>
    </contour>
    <contour>
      <point x="12.821428571428571" y="-250.0" type="line"/>
      <point x="60.35714285714286" y="-250.0" type="line"/>
      <point x="130.35714285714286" y="150.0" type="line"/>
      <point x="82.82142857142857" y="150.0" type="line"/>
    </contour>
  </outline>
</glyph>
<glyph name="section" format="2">
  <advance width="511.0694742592857"/>
  <unicode hex="00A7"/>
  <outline>
    <contour>
      <point x="459.32142857142856" y="304.75" type="curve" smooth="yes"/>
      <point x="459.32142857142856" y="462.75"/>
      <point x="214.28571428571428" y="408.57142857142856"/>
      <point x="214.28571428571428" y="534.0357142857143" type="curve" smooth="yes"/>
      <point x="214.28571428571428" y="587.6428571428571"/>
      <point x="255.42857142857144" y="620.0"/>
      <point x="306.32142857142856" y="620.0" type="curve" smooth="yes"/>
      <point x="347.7142857142857" y="620.0"/>
      <point x="370.82142857142856" y="593.75"/>
      <point x="388.2857142857143" y="570.4642857142857" type="curve" smooth="yes"/>
      <point x="402.8571428571429" y="550.4285714285714" type="line"/>
      <point x="407.92857142857144" y="549.8928571428571" type="line"/>
      <point x="449.9642857142857" y="585.0357142857143" type="line" smooth="yes"/>
      <point x="460.1428571428571" y="594.2142857142857"/>
      <point x="465.5" y="601.2142857142857"/>
      <point x="466.32142857142856" y="608.1071428571429" type="curve" smooth="yes"/>
      <point x="467.1428571428571" y="616.5714285714286"/>
      <point x="462.5" y="624.0357142857143"/>
      <point x="456.32142857142856" y="633.6785714285714" type="curve" smooth="yes"/>
      <point x="439.42857142857144" y="653.0357142857143"/>
      <point x="412.57142857142856" y="670.0"/>
      <point x="369.4642857142857" y="670.0" type="curve" smooth="yes"/>
      <point x="232.28571428571428" y="670.0"/>
      <point x="137.14285714285714" y="584.0714285714286"/>
      <point x="137.14285714285714" y="487.32142857142856" type="curve" smooth="yes"/>
      <point x="137.14285714285714" y="328.85714285714283"/>
      <point x="379.1071428571429" y="398.7857142857143"/>
      <point x="379.1071428571429" y="260.2142857142857" type="curve" smooth="yes"/>
      <point x="379.1071428571429" y="210.96428571428572"/>
      <point x="328.4642857142857" y="172.57142857142858"/>
      <point x="272.75" y="170.60714285714286" type="curve"/>
      <point x="256.7142857142857" y="134.0" type="line"/>
      <point x="382.57142857142856" y="150.64285714285714"/>
      <point x="459.32142857142856" y="213.92857142857142"/>
    </contour>
    <contour>
      <point x="123.25" y="-120.35714285714286" type="curve" smooth="yes"/>
      <point x="238.25" y="-120.35714285714286"/>
      <point x="356.35714285714283" y="-32.214285714285715"/>
      <point x="356.35714285714283" y="65.07142857142857" type="curve" smooth="yes"/>
      <point x="356.35714285714283" y="221.07142857142858"/>
      <point x="113.60714285714286" y="154.14285714285714"/>
      <point x="113.60714285714286" y="292.07142857142856" type="curve" smooth="yes"/>
      <point x="113.60714285714286" y="344.14285714285717"/>
      <point x="150.07142857142856" y="384.25"/>
      <point x="219.46428571428572" y="388.39285714285717" type="curve"/>
      <point x="241.07142857142858" y="423.0357142857143" type="line"/>
      <point x="112.03571428571429" y="409.0357142857143"/>
      <point x="31.75" y="337.2857142857143"/>
      <point x="31.75" y="246.64285714285714" type="curve" smooth="yes"/>
      <point x="31.75" y="89.92857142857143"/>
      <point x="274.85714285714283" y="143.53571428571428"/>
      <point x="276.5" y="22.82142857142857" type="curve" smooth="yes"/>
      <point x="277.32142857142856" y="-25.392857142857142"/>
      <point x="243.78571428571428" y="-67.07142857142857"/>
      <point x="180.89285714285714" y="-67.07142857142857" type="curve" smooth="yes"/>
      <point x="136.75" y="-67.07142857142857"/>
      <point x="112.03571428571428" y="-37.535714285714285"/>
      <point x="94.75" y="-12.607142857142861" type="curve" smooth="yes"/>
      <point x="79.17857142857143" y="9.07142857142857" type="line"/>
      <point x="73.46428571428572" y="9.607142857142854" type="line"/>
      <point x="28.964285714285715" y="-28.0" type="line" smooth="yes"/>
      <point x="17.785714285714285" y="-36.35714285714286"/>
      <point x="12.607142857142858" y="-46.0"/>
      <point x="12.607142857142858" y="-51.89285714285714" type="curve" smooth="yes"/>
      <point x="10.964285714285715" y="-60.35714285714286"/>
      <point x="14.607142857142858" y="-68.64285714285714"/>
      <point x="23.42857142857143" y="-79.92857142857143" type="curve" smooth="yes"/>
      <point x="40.32142857142857" y="-100.10714285714286"/>
      <point x="77.67857142857143" y="-120.35714285714286"/>
    </contour>
  </outline>
</glyph>
<glyph name="copyright" format="2">
  <advance width="806.0"/>
  <unicode hex="00A9"/>
  <outline>
    <contour>
      <point x="361.17857142857144" y="-10.0" type="curve" smooth="yes"/>
      <point x="587.25" y="-10.0"/>
      <point x="740.8928571428571" y="170.39285714285714"/>
      <point x="740.8928571428571" y="373.82142857142856" type="curve" smooth="yes"/>
      <point x="740.8928571428571" y="543.0"/>
      <point x="617.7142857142857" y="670.0"/>
      <point x="444.17857142857144" y="670.0" type="curve" smooth="yes"/>
      <point x="217.92857142857142" y="670.0"/>
      <point x="65.10714285714286" y="489.60714285714283"/>
      <point x="65.10714285714286" y="286.82142857142856" type="curve" smooth="yes"/>
      <point x="65.10714285714286" y="117.0"/>
      <point x="187.46428571428572" y="-10.0"/>
    </contour>
    <contour>
      <point x="363.7142857142857" y="24.178571428571427" type="curve" smooth="yes"/>
      <point x="211.64285714285714" y="24.178571428571427"/>
      <point x="106.28571428571429" y="138.17857142857142"/>
      <point x="106.28571428571429" y="290.64285714285717" type="curve" smooth="yes"/>
      <point x="106.28571428571429" y="484.5357142857143"/>
      <point x="249.10714285714286" y="635.4642857142857"/>
      <point x="441.4642857142857" y="635.4642857142857" type="curve" smooth="yes"/>
      <point x="595.0" y="635.4642857142857"/>
      <point x="699.7142857142857" y="520.8214285714286"/>
      <point x="699.7142857142857" y="370.0" type="curve" smooth="yes"/>
      <point x="699.7142857142857" y="175.46428571428572"/>
      <point x="556.7142857142857" y="24.178571428571427"/>
    </contour>
    <contour>
      <point x="378.0" y="129.0" type="curve" smooth="yes"/>
      <point x="428.84298029582146" y="129.0"/>
      <point x="464.06257670475" y="142.24280622585715"/>
      <point x="503.2857142857143" y="164.82142857142858" type="curve"/>
      <point x="528.4642857142857" y="266.0" type="line"/>
      <point x="502.4642857142857" y="266.0" type="line"/>
      <point x="437.35714285714283" y="171.17857142857142" type="line"/>
      <point x="476.75" y="210.0" type="line"/>
      <point x="453.45494357560716" y="194.82710524060715"/>
      <point x="427.8675595235357" y="175.0"/>
      <point x="386.10714285714283" y="175.0" type="curve" smooth="yes"/>
      <point x="329.10714285714283" y="175.0"/>
      <point x="292.35714285714283" y="218.53571428571428"/>
      <point x="292.35714285714283" y="294.42857142857144" type="curve" smooth="yes"/>
      <point x="292.35714285714283" y="413.82142857142856"/>
      <point x="352.7142857142857" y="495.17857142857144"/>
      <point x="437.57142857142856" y="495.17857142857144" type="curve" smooth="yes"/>
      <point x="467.39285714285717" y="495.17857142857144"/>
      <point x="484.516102955" y="484.5353672592143"/>
      <point x="514.75" y="458.17857142857144" type="curve"/>
      <point x="495.4642857142857" y="483.92857142857144" type="line"/>
      <point x="518.4642857142857" y="394.0" type="line"/>
      <point x="544.4642857142857" y="394.0" type="line"/>
      <point x="561.4642857142857" y="509.0" type="line"/>
      <point x="529.9285714285714" y="528.0"/>
      <point x="501.92857142857144" y="540.0"/>
      <point x="448.14285714285717" y="540.0" type="curve" smooth="yes"/>
      <point x="314.0357142857143" y="540.0"/>
      <point x="216.35714285714286" y="421.89285714285717"/>
      <point x="216.35714285714286" y="296.60714285714283" type="curve" smooth="yes"/>
      <point x="216.35714285714286" y="196.82142857142858"/>
      <point x="274.1366843031786" y="129.0"/>
    </contour>
  </outline>
</glyph>
<glyph name="ordfeminine" format="2">
  <advance width="400.0"/>
  <unicode hex="00AA"/>
  <outline>
    <contour>
      <point x="152.39285714285714" y="417.0" type="curve" smooth="yes"/>
      <point x="186.4396825395" y="417.0"/>
      <point x="214.64826772960714" y="436.9352643615357"/>
      <point x="241.39285714285714" y="476.4642857142857" type="curve"/>
      <point x="261.2142857142857" y="476.4642857142857" type="line"/>
      <point x="261.2142857142857" y="535.0" type="line"/>
      <point x="244.92857142857142" y="507.07142857142856"/>
      <point x="221.71428571428572" y="464.0357142857143"/>
      <point x="193.25" y="464.0357142857143" type="curve" smooth="yes"/>
      <point x="177.32142857142856" y="464.0357142857143"/>
      <point x="172.32142857142856" y="481.14285714285717"/>
      <point x="172.32142857142856" y="512.0" type="curve" smooth="yes"/>
      <point x="172.32142857142856" y="573.5714285714286"/>
      <point x="196.78571428571428" y="647.9285714285714"/>
      <point x="238.14285714285714" y="647.9285714285714" type="curve" smooth="yes"/>
      <point x="252.60714285714286" y="647.9285714285714"/>
      <point x="265.35714285714283" y="638.8214285714286"/>
      <point x="272.64285714285717" y="618.6071428571429" type="curve"/>
      <point x="272.75" y="635.0357142857143" type="line"/>
      <point x="244.75" y="480.14285714285717" type="line" smooth="yes"/>
      <point x="238.75" y="448.14285714285717"/>
      <point x="247.39285714285714" y="417.0"/>
      <point x="288.35714285714283" y="417.0" type="curve" smooth="yes"/>
      <point x="317.42857142857144" y="417.0"/>
      <point x="347.7857142857143" y="439.2857142857143"/>
      <point x="370.60714285714283" y="492.35714285714283" type="curve"/>
      <point x="357.60714285714283" y="497.35714285714283" type="line"/>
      <point x="343.14285714285717" y="469.35714285714283"/>
      <point x="332.5" y="457.07142857142856"/>
      <point x="322.5" y="457.07142857142856" type="curve" smooth="yes"/>
      <point x="312.5" y="457.07142857142856"/>
      <point x="308.5" y="466.07142857142856"/>
      <point x="312.5" y="487.07142857142856" type="curve" smooth="yes"/>
      <point x="346.32142857142856" y="670.0" type="line"/>
      <point x="333.32142857142856" y="670.0" type="line"/>
      <point x="286.2142857142857" y="645.0" type="line"/>
      <point x="305.14285714285717" y="647.0714285714286" type="line"/>
      <point x="294.5" y="659.7142857142857"/>
      <point x="268.85714285714283" y="670.0"/>
      <point x="243.39285714285714" y="670.0" type="curve" smooth="yes"/>
      <point x="166.28571428571428" y="670.0"/>
      <point x="104.21428571428571" y="580.0"/>
      <point x="104.21428571428571" y="491.0" type="curve" smooth="yes"/>
      <point x="104.21428571428571" y="442.0"/>
      <point x="123.21428571428571" y="417.0"/>
    </contour>
    <contour>
      <point x="78.21428571428571" y="292.0" type="line"/>
      <point x="312.32142857142856" y="292.0" type="line"/>
      <point x="321.32142857142856" y="342.0" type="line"/>
      <point x="87.21428571428571" y="342.0" type="line"/>
    </contour>
  </outline>
</glyph>
<glyph name="logicalnot" format="2">
  <advance width="517.8571428571429"/>
  <unicode hex="00AC"/>
  <outline>
    <contour>
      <point x="370.67857142857144" y="62.0" type="line"/>
      <point x="422.0" y="62.0" type="line"/>
      <point x="463.17857142857144" y="295.89285714285717" type="line"/>
      <point x="44.82142857142857" y="295.89285714285717" type="line"/>
      <point x="36.464285714285715" y="248.10714285714286" type="line"/>
      <point x="403.5" y="248.10714285714286" type="line"/>
    </contour>
  </outline>
</glyph>
<glyph name="registered" format="2">
  <advance width="500.0"/>
  <unicode hex="00AE"/>
  <outline>
    <contour>
      <point x="243.82142857142858" y="234.78571428571428" type="curve" smooth="yes"/>
      <point x="388.60714285714283" y="234.78571428571428"/>
      <point x="486.9642857142857" y="348.14285714285717"/>
      <point x="486.9642857142857" y="480.57142857142856" type="curve" smooth="yes"/>
      <point x="486.9642857142857" y="588.4642857142857"/>
      <point x="408.25" y="670.0"/>
      <point x="297.17857142857144" y="670.0" type="curve" smooth="yes"/>
      <point x="152.39285714285714" y="670.0"/>
      <point x="53.857142857142854" y="556.0"/>
      <point x="53.857142857142854" y="424.2142857142857" type="curve" smooth="yes"/>
      <point x="53.857142857142854" y="315.5"/>
      <point x="132.57142857142858" y="234.78571428571428"/>
    </contour>
    <contour>
      <point x="247.0" y="263.32142857142856" type="curve" smooth="yes"/>
      <point x="151.28571428571428" y="263.32142857142856"/>
      <point x="86.57142857142857" y="334.67857142857144"/>
      <point x="86.57142857142857" y="424.75" type="curve" smooth="yes"/>
      <point x="86.57142857142857" y="551.5714285714286"/>
      <point x="177.39285714285714" y="641.2857142857143"/>
      <point x="293.17857142857144" y="641.2857142857143" type="curve" smooth="yes"/>
      <point x="388.7142857142857" y="641.2857142857143"/>
      <point x="453.60714285714283" y="570.1071428571429"/>
      <point x="453.60714285714283" y="480.0357142857143" type="curve" smooth="yes"/>
      <point x="453.60714285714283" y="353.2142857142857"/>
      <point x="362.60714285714283" y="263.32142857142856"/>
    </contour>
    <contour>
      <point x="138.17857142857144" y="327.2142857142857" type="line"/>
      <point x="244.39285714285714" y="327.2142857142857" type="line"/>
      <point x="245.57142857142858" y="334.2142857142857" type="line"/>
      <point x="218.57142857142858" y="350.2142857142857" type="line"/>
      <point x="259.57142857142856" y="582.2142857142857" type="line"/>
      <point x="183.17857142857144" y="582.2142857142857" type="line"/>
      <point x="182.17857142857142" y="576.2142857142857" type="line"/>
      <point x="210.35714285714286" y="560.2142857142857" type="line"/>
      <point x="173.17857142857142" y="350.2142857142857" type="line"/>
      <point x="139.35714285714286" y="334.2142857142857" type="line"/>
    </contour>
    <contour>
      <point x="369.5" y="525.2142857142857" type="curve" smooth="yes"/>
      <point x="369.5" y="560.6785714285714"/>
      <point x="342.0357142857143" y="582.2142857142857"/>
      <point x="292.32142857142856" y="582.2142857142857" type="curve" smooth="yes"/>
      <point x="231.0" y="582.2142857142857" type="line"/>
      <point x="227.0" y="559.2142857142857" type="line"/>
      <point x="274.89285714285717" y="559.2142857142857" type="line" smooth="yes"/>
      <point x="302.5357142857143" y="559.2142857142857"/>
      <point x="320.64285714285717" y="547.8571428571429"/>
      <point x="320.64285714285717" y="523.3928571428571" type="curve" smooth="yes"/>
      <point x="320.64285714285717" y="487.85714285714283"/>
      <point x="294.35714285714283" y="467.2142857142857"/>
      <point x="259.82142857142856" y="467.2142857142857" type="curve"/>
      <point x="214.0" y="467.2142857142857" type="line"/>
      <point x="210.0" y="444.2142857142857" type="line"/>
      <point x="273.39285714285717" y="444.2142857142857" type="line"/>
      <point x="273.39285714285717" y="448.2857142857143" type="line"/>
      <point x="331.57142857142856" y="454.2857142857143"/>
      <point x="369.5" y="483.5"/>
    </contour>
    <contour>
      <point x="293.64285714285717" y="327.2142857142857" type="line"/>
      <point x="361.39285714285717" y="327.2142857142857" type="line"/>
      <point x="362.57142857142856" y="334.2142857142857" type="line"/>
      <point x="339.39285714285717" y="347.2142857142857" type="line"/>
      <point x="301.75" y="459.92857142857144" type="line"/>
      <point x="253.60714285714286" y="459.92857142857144" type="line"/>
    </contour>
  </outline>
</glyph>
<glyph name="degree" format="2">
  <advance width="500.0"/>
  <unicode hex="00B0"/>
  <outline>
    <contour>
      <point x="288.2142857142857" y="410.0" type="curve" smooth="yes"/>
      <point x="363.2142857142857" y="410.0"/>
      <point x="418.2142857142857" y="470.0"/>
      <point x="418.2142857142857" y="540.0" type="curve" smooth="yes"/>
      <point x="418.2142857142857" y="610.0"/>
      <point x="363.2142857142857" y="670.0"/>
      <point x="288.2142857142857" y="670.0" type="curve" smooth="yes"/>
      <point x="213.21428571428572" y="670.0"/>
      <point x="158.21428571428572" y="610.0"/>
      <point x="158.21428571428572" y="540.0" type="curve" smooth="yes"/>
      <point x="158.21428571428572" y="470.0"/>
      <point x="213.21428571428572" y="410.0"/>
    </contour>
    <contour>
      <point x="288.2142857142857" y="450.25" type="curve" smooth="yes"/>
      <point x="240.28571428571428" y="450.25"/>
      <point x="202.17857142857142" y="484.7142857142857"/>
      <point x="202.17857142857142" y="540.0" type="curve" smooth="yes"/>
      <point x="202.17857142857142" y="595.2857142857143"/>
      <point x="240.28571428571428" y="629.75"/>
      <point x="288.2142857142857" y="629.75" type="curve" smooth="yes"/>
      <point x="336.14285714285717" y="629.75"/>
      <point x="374.25" y="595.2857142857143"/>
      <point x="374.25" y="540.0" type="curve" smooth="yes"/>
      <point x="374.25" y="484.7142857142857"/>
      <point x="336.14285714285717" y="450.25"/>
    </contour>
  </outline>
</glyph>
<glyph name="plusminus" format="2">
  <advance width="517.8571428571429"/>
  <unicode hex="00B1"/>
  <outline>
    <contour>
      <point x="423.17857142857144" y="63.10714285714286" type="line"/>
      <point x="431.5357142857143" y="110.89285714285714" type="line"/>
      <point x="13.17857142857143" y="110.89285714285714" type="line"/>
      <point x="4.821428571428571" y="63.10714285714286" type="line"/>
    </contour>
    <contour>
      <point x="462.35714285714283" y="288.10714285714283" type="line"/>
      <point x="470.7142857142857" y="335.89285714285717" type="line"/>
      <point x="52.35714285714286" y="335.89285714285717" type="line"/>
      <point x="44.0" y="288.10714285714283" type="line"/>
    </contour>
    <contour>
      <point x="262.10714285714283" y="482.0" type="line"/>
      <point x="204.10714285714286" y="152.0" type="line"/>
      <point x="255.42857142857142" y="152.0" type="line"/>
      <point x="313.42857142857144" y="482.0" type="line"/>
    </contour>
  </outline>
</glyph>
<glyph name="paragraph" format="2">
  <advance width="485.3571428571429"/>
  <unicode hex="00B6"/>
  <outline>
    <contour>
      <point x="158.10714285714286" y="-110.0" type="line"/>
      <point x="207.25" y="-110.0" type="line"/>
      <point x="348.17857142857144" y="660.0" type="line"/>
      <point x="242.21428571428572" y="660.0" type="line" smooth="yes"/>
      <point x="129.42857142857142" y="660.0"/>
      <point x="48.785714285714285" y="596.75"/>
      <point x="48.785714285714285" y="492.2857142857143" type="curve" smooth="yes"/>
      <point x="48.785714285714285" y="411.35714285714283"/>
      <point x="109.67857142857143" y="359.0"/>
      <point x="202.75" y="359.0" type="curve" smooth="yes"/>
      <point x="243.57142857142856" y="359.0" type="line"/>
    </contour>
    <contour>
      <point x="263.7142857142857" y="-110.0" type="line"/>
      <point x="313.67857142857144" y="-110.0" type="line"/>
      <point x="443.7857142857143" y="603.6428571428571" type="line"/>
      <point x="527.5" y="644.0" type="line"/>
      <point x="530.5" y="660.0" type="line"/>
      <point x="404.6428571428571" y="660.0" type="line"/>
    </contour>
  </outline>
</glyph>
<glyph name="periodcentered" format="2">
  <advance width="250.0"/>
  <unicode hex="00B7"/>
  <outline>
    <contour>
      <point x="117.82142857142857" y="211.14285714285714" type="curve" smooth="yes"/>
      <point x="156.60714285714286" y="211.14285714285714"/>
      <point x="181.85714285714286" y="243.92857142857142"/>
      <point x="181.85714285714286" y="279.5357142857143" type="curve" smooth="yes"/>
      <point x="181.85714285714286" y="309.9642857142857"/>
      <point x="166.14285714285714" y="332.0357142857143"/>
      <point x="131.35714285714286" y="332.0357142857143" type="curve" smooth="yes"/>
      <point x="93.57142857142857" y="332.0357142857143"/>
      <point x="67.32142857142857" y="299.25"/>
      <point x="67.32142857142857" y="263.64285714285717" type="curve" smooth="yes"/>
      <point x="67.32142857142857" y="233.21428571428572"/>
      <point x="83.03571428571429" y="211.14285714285714"/>
    </contour>
  </outline>
</glyph>
<glyph name="ordmasculine" format="2">
  <advance width="400.0"/>
  <unicode hex="00BA"/>
  <outline>
    <contour>
      <point x="203.82142857142858" y="417.0" type="curve" smooth="yes"/>
      <point x="291.17857142857144" y="417.0"/>
      <point x="346.17857142857144" y="491.85714285714283"/>
      <point x="346.17857142857144" y="564.75" type="curve" smooth="yes"/>
      <point x="346.17857142857144" y="626.4642857142857"/>
      <point x="312.10714285714283" y="670.0"/>
      <point x="240.21428571428572" y="670.0" type="curve" smooth="yes"/>
      <point x="154.67857142857142" y="670.0"/>
      <point x="97.67857142857143" y="598.1428571428571"/>
      <point x="97.67857142857143" y="523.25" type="curve" smooth="yes"/>
      <point x="97.67857142857143" y="460.5357142857143"/>
      <point x="131.75" y="417.0"/>
    </contour>
    <contour>
      <point x="208.46428571428572" y="440.35714285714283" type="curve" smooth="yes"/>
      <point x="181.53571428571428" y="440.35714285714283"/>
      <point x="173.89285714285714" y="474.0"/>
      <point x="173.89285714285714" y="518.3928571428571" type="curve" smooth="yes"/>
      <point x="173.89285714285714" y="586.1785714285714"/>
      <point x="196.10714285714286" y="647.6428571428571"/>
      <point x="236.57142857142858" y="647.6428571428571" type="curve" smooth="yes"/>
      <point x="263.32142857142856" y="647.6428571428571"/>
      <point x="269.9642857142857" y="615.0"/>
      <point x="269.9642857142857" y="570.9642857142857" type="curve" smooth="yes"/>
      <point x="269.9642857142857" y="507.92857142857144"/>
      <point x="248.57142857142858" y="440.35714285714283"/>
    </contour>
    <contour>
      <point x="60.964285714285715" y="292.0" type="line"/>
      <point x="295.07142857142856" y="292.0" type="line"/>
      <point x="304.07142857142856" y="342.0" type="line"/>
      <point x="69.96428571428571" y="342.0" type="line"/>
    </contour>
  </outline>
</glyph>
